<svg width="1023" height="275" viewBox="0 0 1023 275" fill="none" xmlns="http://www.w3.org/2000/svg">
<path d="M268.986 29.9238H320.92C334.577 29.9238 345.156 31.4901 352.685 34.5952C360.214 37.7277 365.49 41.9868 368.513 47.3726C371.535 52.7858 373.074 58.8586 373.074 65.6183C373.074 71.9933 371.535 77.7088 368.43 82.7923C365.325 87.8758 360.049 92.1074 352.603 95.4873C362.11 99.0045 368.677 103.731 372.25 109.639C375.822 115.574 377.635 121.976 377.635 128.874C377.635 136.54 375.877 143.437 372.36 149.565C368.842 155.692 363.154 160.501 355.295 164.018C347.437 167.536 336.94 169.294 323.86 169.294H269.041V29.9513L268.986 29.9238ZM343.672 51.8791C338.836 48.6916 330.702 47.0978 319.271 47.0978H291.133V88.0956H321.964C332.159 88.0956 339.55 86.3095 344.112 82.7373C348.673 79.1651 350.926 73.9167 350.926 67.0197C350.926 60.1226 348.508 55.094 343.7 51.9065L343.672 51.8791ZM355.048 128.874C355.048 121.207 352.63 115.354 347.821 111.315C342.985 107.276 334.989 105.27 323.833 105.27H291.133V152.12H322.569C330.977 152.12 337.544 151.186 342.216 149.29C346.915 147.394 350.212 144.729 352.135 141.294C354.059 137.859 355.021 133.71 355.021 128.901L355.048 128.874Z" fill="#234B7A"/>
<path d="M393.546 119.503C393.546 107.797 395.716 97.8777 400.058 89.7441C404.4 81.6105 410.445 75.4278 418.166 71.1962C425.888 66.9645 434.791 64.8486 444.848 64.8486C455.894 64.8486 464.962 66.9645 472.051 71.1962C479.141 75.4278 484.417 81.2807 487.879 88.7548C491.314 96.229 493.045 104.857 493.045 114.612V123.597H415.254C415.803 134.012 418.524 142.118 423.415 147.888C428.306 153.686 435.45 156.572 444.82 156.572C452.954 156.572 458.999 155.115 462.929 152.175C466.858 149.235 469.523 145.25 470.897 140.167H491.369C489.583 150.197 484.856 158.055 477.19 163.771C469.523 169.486 458.752 172.344 444.82 172.344C428.416 172.344 415.748 167.645 406.845 158.303C397.942 148.96 393.491 135.99 393.491 119.476L393.546 119.503ZM419.403 94.5253C417.342 98.9493 416.023 104.033 415.473 109.748H471.749C471.2 100.131 469.029 92.7667 465.237 87.6832C461.445 82.5997 454.575 80.0717 444.655 80.0717C438.033 80.0717 432.702 81.3631 428.636 83.9736C424.569 86.584 421.491 90.1013 419.43 94.5253H419.403Z" fill="#234B7A"/>
<path d="M579.107 142.145C579.107 138.381 578.008 135.193 575.809 132.583C573.611 129.972 568.83 128.159 561.521 127.115L548.276 125.164C535.856 123.213 526.458 120.053 520.028 115.684C513.626 111.314 510.411 104.472 510.411 95.1022C510.411 88.7272 512.307 83.2865 516.099 78.8075C519.891 74.3285 525.057 70.8663 531.624 68.4756C538.164 66.0575 545.666 64.876 554.074 64.876C564.406 64.876 572.622 66.1125 578.695 68.5856C584.767 71.0586 589.356 74.411 592.461 78.6427C595.566 82.8743 597.737 87.7105 598.974 93.1787L579.327 95.7067C577.541 90.6232 574.985 86.8037 571.66 84.1933C568.335 81.5828 562.62 80.2914 554.486 80.2914C545.666 80.2914 539.565 81.6928 536.186 84.4955C532.806 87.2983 531.13 90.4584 531.13 93.9756C531.13 97.8775 532.366 100.928 534.867 103.153C537.34 105.379 542.396 107.055 549.98 108.237L564.873 110.573C577.843 112.661 587.076 116.096 592.599 120.904C598.122 125.713 600.87 132.803 600.87 142.173C600.87 151.021 597.215 158.275 589.906 163.936C582.597 169.596 571.55 172.426 556.794 172.426C547.836 172.426 539.758 171.355 532.586 169.211C525.414 167.068 519.644 163.551 515.302 158.66C510.96 153.769 508.515 147.311 507.965 139.233H528.657C529.756 145.607 532.613 150.141 537.23 152.807C541.846 155.472 548.166 156.819 556.162 156.819C564.571 156.819 570.506 155.5 573.941 152.807C577.376 150.141 579.107 146.597 579.107 142.173V142.145Z" fill="#234B7A"/>
<path d="M627.524 135.495V84.1654H610.762V67.9532H627.524V40.6396H649.04V67.9532H676.545V84.1654H649.04V139.012C649.04 143.821 650.166 147.64 652.447 150.416C654.728 153.219 658.217 154.62 662.889 154.62C665.637 154.62 668.165 154.428 670.445 154.043C672.726 153.658 674.759 153.191 676.545 152.669L680.063 168.084C677.04 168.991 673.77 169.761 670.335 170.42C666.901 171.08 662.889 171.409 658.327 171.409C650.056 171.409 643.709 169.953 639.285 167.013C634.861 164.073 631.811 159.923 630.08 154.51C628.348 149.124 627.497 142.777 627.497 135.468L627.524 135.495Z" fill="#234B7A"/>
<path d="M696 29.9238H746.698C761.179 29.9238 772.445 31.8198 780.524 35.5844C788.602 39.3489 794.208 44.4324 797.395 50.8074C800.555 57.1824 802.149 64.3268 802.149 72.268C802.149 80.594 800.5 88.1506 797.175 94.9102C793.851 101.67 788.217 107.056 780.221 111.013C772.225 114.969 761.041 116.975 746.698 116.975H718.56V169.294H696V29.9513V29.9238ZM779.782 72.8726C779.782 67.1571 778.82 62.4583 776.896 58.8311C774.973 55.1765 771.538 52.4561 766.647 50.6425C761.756 48.829 754.969 47.9222 746.258 47.9222H718.532V99.0595H746.45C755.408 99.0595 762.278 98.0153 767.032 95.9269C771.785 93.8386 775.11 90.816 776.951 86.8591C778.792 82.9022 779.754 78.2308 779.754 72.9L779.782 72.8726Z" fill="#234B7A"/>
<path d="M810.612 141.348C810.612 134.589 812.124 129.011 815.174 124.669C818.196 120.3 822.318 116.893 827.484 114.42C832.65 111.946 838.475 110.16 844.96 109.061C851.445 107.962 858.122 107.275 865.02 107L882.826 106.423V102.521C882.826 94.5801 881.039 88.8921 877.44 85.4573C873.84 82.0225 868.07 80.2914 860.073 80.2914C852.077 80.2914 846.636 81.5279 842.899 84.0009C839.162 86.474 836.772 89.9363 835.673 94.3328L816.026 92.3819C817.949 82.8743 822.675 75.9223 830.204 71.4983C837.706 67.0743 847.955 64.876 860.925 64.876C876.505 64.876 887.579 68.2833 894.119 75.1254C900.659 81.9675 903.956 91.6125 903.956 104.115V169.294H883.265V156.214C879.253 160.501 874.362 164.155 868.564 167.151C862.766 170.146 855.677 171.63 847.268 171.63C836.36 171.63 827.539 169.102 820.779 164.018C814.02 158.935 810.64 151.405 810.64 141.376L810.612 141.348ZM832.128 140.579C832.128 145.278 833.639 149.015 836.689 151.79C839.712 154.593 844.631 155.994 851.39 155.994C860.76 155.994 868.344 153.796 874.142 149.345C879.94 144.921 882.826 138.491 882.826 130.027V119.888L866.284 120.465C857.463 120.74 850.566 121.674 845.592 123.295C840.619 124.916 837.129 127.169 835.15 130.027C833.145 132.885 832.155 136.402 832.155 140.551L832.128 140.579Z" fill="#234B7A"/>
<path d="M927.066 190.343C931.215 191.634 935.144 192.294 938.854 192.294C943.113 192.294 946.438 191.085 948.774 188.694C951.109 186.276 953.61 181.907 956.22 175.532L960.15 165.777L914.838 68.0088H939.239L970.674 143.355L999.444 68.0088H1022.61L976.472 177.318C973.587 184.352 970.647 190.233 967.679 194.986C964.711 199.74 961.221 203.312 957.237 205.731C953.225 208.149 948.142 209.33 941.932 209.33C938.497 209.33 935.309 209.11 932.424 208.643C929.539 208.176 926.434 207.434 923.109 206.39L927.038 190.398L927.066 190.343Z" fill="#234B7A"/>
<path d="M109.639 274.976H50.0381L90.1291 86.3643H174.268C188.09 86.3643 200.125 91.805 208.121 101.67C216.31 111.782 219.168 125.164 216.172 139.288C210.265 167.041 183.858 188.776 156.022 188.776H127.967L109.639 274.976ZM70.3996 258.489H96.2842L114.612 172.289H156.022C175.697 172.289 195.866 155.61 200.043 135.853C201.994 126.675 200.317 118.212 195.316 112.029C190.508 106.094 183.061 102.824 174.295 102.824H112.854L103.841 101.175L70.3996 258.461V258.489Z" fill="#00B3F2"/>
<path d="M87.6561 188.337H0L40.036 0H116.921C130.742 0 142.778 5.44072 150.774 15.3055C158.963 25.4175 161.82 38.7995 158.825 52.9234C155.308 69.4654 144.481 83.8915 130.44 92.822C133.957 95.1027 137.09 97.9055 139.783 101.23C147.971 111.342 150.829 124.724 147.834 138.848C141.926 166.602 115.519 188.337 87.6835 188.337H87.6561ZM20.3615 171.85H87.6561C107.331 171.85 127.5 155.17 131.676 135.414C133.627 126.236 131.951 117.772 126.95 111.59C122.141 105.654 114.695 102.412 105.929 102.412H86.3371L90.0742 86.1997L98.6474 85.925C118.322 85.925 138.491 69.2456 142.668 49.4886C144.619 40.3108 142.943 31.8475 137.942 25.6648C133.133 19.7295 125.686 16.4596 116.921 16.4596H53.3905L20.3615 171.822V171.85Z" fill="#55E7FF"/>
</svg>
