<svg width="40" height="40" viewBox="0 0 40 40" fill="none" xmlns="http://www.w3.org/2000/svg">
<path fill-rule="evenodd" clip-rule="evenodd" d="M28 16.5C28 17.8809 26.8806 19 25.5 19C24.1194 19 23 17.8809 23 16.5C23 15.1194 24.1194 14 25.5 14C26.8806 14 28 15.1194 28 16.5ZM26.3334 16.5C26.3334 16.9604 25.9601 17.3334 25.5 17.3334C25.0399 17.3334 24.6666 16.9604 24.6666 16.5C24.6666 16.0399 25.0399 15.6669 25.5 15.6669C25.9601 15.6669 26.3334 16.0399 26.3334 16.5Z" fill="#F2A71B"/>
<path d="M26.5001 23C26.7761 23 26.9999 23.2987 26.9999 23.6667V25.6667H28.4999C28.7762 25.6667 29 25.9652 29 26.3335C29 26.7016 28.7762 27 28.4999 27H26.5001C26.2238 27 26 26.7016 26 26.3335V23.6667C26 23.2987 26.2238 23 26.5001 23Z" fill="#F2A71B"/>
<path fill-rule="evenodd" clip-rule="evenodd" d="M21.3743 26.5456H10C8.89555 26.5456 8 25.6908 8 24.6366V11.9091C8 10.8548 8.89555 10 10 10H25.3332C26.4379 10 27.3332 10.8548 27.3332 11.9091V12.5455H28.6667C29.7712 12.5455 30.6667 13.4003 30.6667 14.4546V22.5419C31.4965 23.4394 32 24.6182 32 25.9092C32 28.7208 29.612 31 26.6667 31C23.9468 31 21.7025 29.0568 21.3743 26.5456ZM29.3332 14.4547C29.3332 14.1033 29.0348 13.8183 28.6667 13.8183H11.4409C11.0728 13.8183 10.7742 13.5334 10.7742 13.182C10.7742 12.8305 11.0728 12.5456 11.4409 12.5456H26.0004V11.9092C26.0004 11.5578 25.702 11.273 25.3337 11.273H10.0005C9.63238 11.273 9.33372 11.5578 9.33372 11.9092V24.6367C9.33372 24.988 9.63238 25.2729 10.0005 25.2729H21.3748C21.7029 22.7617 23.9472 20.8185 26.667 20.8185C27.1273 20.8185 27.5742 20.8742 28.0003 20.9788C28.4733 21.0951 28.921 21.2717 29.3335 21.4995L29.3332 14.4547ZM22.6349 25.9091L22.6977 25.4301C22.9434 23.5481 24.6278 22.091 26.6666 22.091C27.3974 22.091 28.0785 22.277 28.6655 22.601L29.3332 22.9696V23.0231L29.6669 23.3838C30.2901 24.0577 30.6667 24.9398 30.6667 25.9091C30.6667 28.0178 28.8758 29.7273 26.6666 29.7273C24.6278 29.7273 22.9434 28.2701 22.6976 26.3881L22.6349 25.9091Z" fill="#F23322"/>
<path d="M31.2 26C31.2 28.2496 29.1692 30.2 26.5 30.2C23.8308 30.2 21.8 28.2496 21.8 26C21.8 23.7504 23.8308 21.8 26.5 21.8C29.1692 21.8 31.2 23.7504 31.2 26Z" stroke="#F2A71B" stroke-width="1.6"/>
</svg>
