<svg width="22" height="22" viewBox="0 0 22 22" fill="none" xmlns="http://www.w3.org/2000/svg">
<path d="M10.9926 16.7949L13.4355 13.5377C12.7569 13.0288 11.9087 12.7234 10.9926 12.7234C10.0766 12.7234 9.22836 13.0288 8.54978 13.5377L10.9926 16.7949ZM10.9926 4.58057C8.24443 4.58057 5.70657 5.48985 3.66406 7.02343L4.88549 8.652C6.58192 7.37628 8.69907 6.61628 10.9926 6.61628C13.2862 6.61628 15.4034 7.37628 17.0998 8.652L18.3212 7.02343C16.2787 5.48985 13.7409 4.58057 10.9926 4.58057ZM10.9926 8.652C9.1605 8.652 7.47085 9.25593 6.10692 10.2806L7.32835 11.9091C8.34621 11.1424 9.61514 10.6877 10.9926 10.6877C12.3701 10.6877 13.6391 11.1424 14.6569 11.9091L15.8784 10.2806C14.5144 9.25593 12.8248 8.652 10.9926 8.652Z" fill="#252526"/>
</svg>
