<svg width="32" height="26" viewBox="0 0 32 26" fill="none" xmlns="http://www.w3.org/2000/svg">
<path d="M28.7139 25.0401H2.99797C1.35146 25.0401 0 23.6887 0 22.0422V2.99797C0 1.35146 1.35146 0 2.99797 0H28.7139C30.3604 0 31.7118 1.35146 31.7118 2.99797V22.0422C31.7213 23.6887 30.3699 25.0401 28.7139 25.0401Z" fill="#F6C859"/>
<path d="M12.2104 21.7C12.0772 21.7 11.944 21.6238 11.8869 21.5001C11.7917 21.3193 11.8678 21.1004 12.0487 21.0052C12.5816 20.7292 13.3049 20.2248 13.7237 19.3397C14.2567 18.2166 14.1139 16.9984 13.895 16.8937C13.8379 16.8652 13.619 16.9794 13.4858 17.046C13.1336 17.2268 12.6578 17.4648 12.1058 17.2744C11.5633 17.0841 11.2968 16.5987 11.1635 16.3703C10.3355 14.8475 10.0786 10.8787 10.9542 8.91817C11.2492 8.26148 11.6394 7.88078 12.1343 7.75706C12.6387 7.64285 13.048 7.85223 13.3716 8.02354C13.638 8.1663 13.7808 8.22341 13.8665 8.17582C14.2091 7.96644 14.1996 6.71015 13.7237 5.71083C13.3049 4.82571 12.5816 4.31178 12.0487 4.04529C11.8678 3.95012 11.8012 3.73122 11.8869 3.55039C11.982 3.36956 12.2009 3.30294 12.3818 3.38859C13.0099 3.71218 13.876 4.32129 14.3804 5.39675C14.8848 6.45318 15.1228 8.27099 14.2376 8.80397C13.7903 9.07045 13.3716 8.85155 13.0289 8.68024C12.772 8.53748 12.534 8.42327 12.2961 8.47086C11.9725 8.547 11.7536 8.91818 11.6204 9.21321C10.8495 10.9359 11.0684 14.6762 11.8012 16.0181C11.9249 16.2465 12.0772 16.494 12.3342 16.5796C12.5816 16.6653 12.81 16.5606 13.1431 16.3893C13.4667 16.2275 13.8284 16.0372 14.2091 16.2275C15.0276 16.6272 14.98 18.3975 14.3804 19.6537C13.876 20.7197 13.0099 21.3383 12.3818 21.6619C12.3247 21.6905 12.2676 21.7 12.2104 21.7Z" fill="#7D662D"/>
<path d="M11.1068 9.58415H4.49227C4.29241 9.58415 4.12109 9.42236 4.12109 9.21297C4.12109 9.01311 4.28289 8.8418 4.49227 8.8418H11.1068C11.3067 8.8418 11.478 9.00359 11.478 9.21297C11.478 9.42236 11.3067 9.58415 11.1068 9.58415Z" fill="#7D662D"/>
<path d="M11.1068 16.1989H4.49227C4.29241 16.1989 4.12109 16.0371 4.12109 15.8277C4.12109 15.6279 4.28289 15.4565 4.49227 15.4565H11.1068C11.3067 15.4565 11.478 15.6183 11.478 15.8277C11.478 16.0276 11.3067 16.1989 11.1068 16.1989Z" fill="#7D662D"/>
<path d="M19.9198 21.6997C19.8627 21.6997 19.8056 21.6902 19.7485 21.6616C19.1204 21.338 18.2543 20.7289 17.7499 19.6535C17.1503 18.3972 17.1027 16.6269 17.9212 16.2272C18.3019 16.0464 18.6635 16.2272 18.9871 16.389C19.3202 16.5603 19.5487 16.665 19.7961 16.5794C20.0721 16.4842 20.2339 16.1891 20.3291 16.0178C21.0619 14.6759 21.2808 10.9356 20.5099 9.21292C20.3767 8.91788 20.1482 8.54671 19.8342 8.47057C19.6343 8.42298 19.5106 8.22312 19.5582 8.03277C19.6058 7.83291 19.8056 7.70918 19.996 7.75677C20.4909 7.87098 20.8906 8.26119 21.1761 8.91788C22.0517 10.888 21.8043 14.8472 20.9667 16.37C20.843 16.5984 20.5765 17.0838 20.034 17.2741C19.482 17.4645 18.9966 17.2265 18.654 17.0457C18.5208 16.9791 18.2924 16.8649 18.2448 16.8934C18.0259 16.9981 17.8831 18.2163 18.4161 19.3394C18.8349 20.2245 19.5582 20.7384 20.0911 21.0049C20.272 21.1001 20.3386 21.319 20.2529 21.4998C20.1863 21.6331 20.0531 21.6997 19.9198 21.6997Z" fill="#7D662D"/>
<path d="M18.4538 8.1185C18.3015 8.1185 18.1587 8.02333 18.1016 7.87105C17.3117 5.51075 19.1581 3.69294 19.7481 3.38838C19.929 3.29321 20.1479 3.36935 20.243 3.55018C20.3382 3.73101 20.2621 3.94991 20.0813 4.04508C19.8148 4.17832 18.1207 5.63448 18.7964 7.64264C18.863 7.83298 18.7583 8.04237 18.568 8.10899C18.5299 8.10899 18.4919 8.1185 18.4538 8.1185Z" fill="#7D662D"/>
<path d="M27.6381 9.58415H21.0235C20.8237 9.58415 20.6523 9.42236 20.6523 9.21297C20.6523 9.01311 20.8141 8.8418 21.0235 8.8418H27.6381C27.8379 8.8418 28.0093 9.00359 28.0093 9.21297C27.9997 9.42236 27.8379 9.58415 27.6381 9.58415Z" fill="#7D662D"/>
<path d="M27.6381 16.1989H21.0235C20.8237 16.1989 20.6523 16.0371 20.6523 15.8277C20.6523 15.6279 20.8141 15.4565 21.0235 15.4565H27.6381C27.8379 15.4565 28.0093 15.6183 28.0093 15.8277C27.9997 16.0276 27.8379 16.1989 27.6381 16.1989Z" fill="#7D662D"/>
</svg>
