<svg width="40" height="40" viewBox="0 0 40 40" fill="none" xmlns="http://www.w3.org/2000/svg">
<path d="M29 15V13H15V15H29ZM29 23V18H15V23H29ZM29 11C29.5304 11 30.0391 11.2107 30.4142 11.5858C30.7893 11.9609 31 12.4696 31 13V23C31 23.5304 30.7893 24.0391 30.4142 24.4142C30.0391 24.7893 29.5304 25 29 25H15C13.89 25 13 24.1 13 23V13C13 11.89 13.89 11 15 11H29Z" fill="#F23322"/>
<path d="M11 27H26V29H11C10.4696 29 9.96086 28.7893 9.58579 28.4142C9.21071 28.0391 9 27.5304 9 27V16H11V27Z" fill="#F2A71B"/>
</svg>
