<svg width="341" height="55" viewBox="0 0 341 55" fill="none" xmlns="http://www.w3.org/2000/svg">
<path d="M33.83 39.868C33.134 40.332 32.1867 40.854 30.988 41.434C29.7893 42.014 28.378 42.4973 26.754 42.884C25.1687 43.2707 23.4287 43.464 21.534 43.464C18.286 43.4253 15.3473 42.8453 12.718 41.724C10.1273 40.6027 7.92333 39.0753 6.106 37.142C4.28867 35.2087 2.87733 32.9853 1.872 30.472C0.905334 27.92 0.422 25.2133 0.422 22.352C0.422 19.22 0.924667 16.3393 1.93 13.71C2.974 11.042 4.424 8.74133 6.28 6.808C8.136 4.836 10.3207 3.30867 12.834 2.226C15.386 1.14333 18.17 0.602 21.186 0.602C23.6993 0.602 25.9807 0.949999 28.03 1.646C30.0793 2.30333 31.8387 3.096 33.308 4.024L31.046 9.244C29.886 8.47066 28.4747 7.736 26.812 7.04C25.188 6.344 23.3707 5.996 21.36 5.996C19.3107 5.996 17.3773 6.402 15.56 7.214C13.7427 8.026 12.138 9.16667 10.746 10.636C9.354 12.1053 8.252 13.826 7.44 15.798C6.66667 17.7313 6.28 19.8193 6.28 22.062C6.28 24.3433 6.628 26.47 7.324 28.442C8.05867 30.3753 9.08333 32.0573 10.398 33.488C11.7513 34.9187 13.3753 36.04 15.27 36.852C17.1647 37.664 19.2913 38.07 21.65 38.07C23.7767 38.07 25.6713 37.7413 27.334 37.084C28.9967 36.4267 30.3693 35.692 31.452 34.88L33.83 39.868ZM39.8815 30.762C39.8815 28.3647 40.4422 26.1993 41.5635 24.266C42.7235 22.3327 44.3088 20.8053 46.3195 19.684C48.3302 18.5627 50.6115 18.002 53.1635 18.002C55.7928 18.002 58.0935 18.5627 60.0655 19.684C62.0375 20.8053 63.5648 22.3327 64.6475 24.266C65.7302 26.1993 66.2715 28.3647 66.2715 30.762C66.2715 33.1593 65.7302 35.344 64.6475 37.316C63.5648 39.2493 62.0182 40.7767 60.0075 41.898C58.0355 43.0193 55.7348 43.58 53.1055 43.58C50.5535 43.58 48.2722 43.058 46.2615 42.014C44.2895 40.9313 42.7235 39.4427 41.5635 37.548C40.4422 35.6147 39.8815 33.3527 39.8815 30.762ZM45.2755 30.82C45.2755 32.3667 45.6235 33.778 46.3195 35.054C47.0155 36.2913 47.9435 37.2773 49.1035 38.012C50.3022 38.7467 51.6168 39.114 53.0475 39.114C54.5555 39.114 55.8895 38.7467 57.0495 38.012C58.2482 37.2773 59.1762 36.2913 59.8335 35.054C60.4908 33.778 60.8195 32.3667 60.8195 30.82C60.8195 29.2733 60.4908 27.8813 59.8335 26.644C59.1762 25.368 58.2482 24.3627 57.0495 23.628C55.8895 22.8547 54.5555 22.468 53.0475 22.468C51.5782 22.468 50.2442 22.8547 49.0455 23.628C47.8855 24.4013 46.9575 25.426 46.2615 26.702C45.6042 27.9393 45.2755 29.312 45.2755 30.82ZM78.389 18.988L78.853 24.382L78.621 23.918C79.5103 22.1007 80.767 20.67 82.391 19.626C84.0536 18.582 85.9483 18.06 88.075 18.06C89.4283 18.06 90.627 18.2727 91.671 18.698C92.715 19.1233 93.5656 19.742 94.223 20.554C94.919 21.3273 95.3636 22.294 95.557 23.454L95.267 23.628C96.195 21.888 97.471 20.5347 99.095 19.568C100.758 18.5627 102.498 18.06 104.315 18.06C106.674 18.06 108.53 18.7367 109.883 20.09C111.275 21.4047 111.99 23.1253 112.029 25.252V43H106.635V27.166C106.596 25.9287 106.287 24.904 105.707 24.092C105.166 23.2413 104.199 22.7773 102.807 22.7C101.415 22.7 100.158 23.1253 99.037 23.976C97.9543 24.8267 97.1036 25.9287 96.485 27.282C95.8663 28.5967 95.5376 30.0273 95.499 31.574V43H90.105V27.166C90.0663 25.9287 89.7376 24.904 89.119 24.092C88.539 23.2413 87.553 22.7773 86.161 22.7C84.7303 22.7 83.4736 23.1253 82.391 23.976C81.3083 24.8267 80.4576 25.9287 79.839 27.282C79.259 28.6353 78.969 30.0853 78.969 31.632V43H73.575V18.988H78.389ZM121.436 18.988H126.83V43H121.436V18.988ZM121.03 10.288C121.03 9.43733 121.359 8.722 122.016 8.142C122.712 7.562 123.466 7.272 124.278 7.272C125.09 7.272 125.806 7.562 126.424 8.142C127.082 8.722 127.41 9.43733 127.41 10.288C127.41 11.1773 127.082 11.912 126.424 12.492C125.806 13.0333 125.09 13.304 124.278 13.304C123.466 13.304 122.712 13.014 122.016 12.434C121.359 11.854 121.03 11.1387 121.03 10.288ZM140.977 18.988L141.441 24.846L141.209 23.918C141.982 22.1393 143.239 20.728 144.979 19.684C146.719 18.6013 148.73 18.06 151.011 18.06C153.292 18.06 155.148 18.7367 156.579 20.09C158.048 21.4047 158.802 23.1253 158.841 25.252V43H153.389V27.166C153.35 25.8513 152.964 24.788 152.229 23.976C151.533 23.1253 150.431 22.7 148.923 22.7C147.531 22.7 146.274 23.0867 145.153 23.86C144.032 24.6333 143.142 25.6967 142.485 27.05C141.866 28.4033 141.557 29.9693 141.557 31.748V43H136.163V18.988H140.977ZM179.763 54.89C177.985 54.89 176.419 54.6773 175.065 54.252C173.712 53.8653 172.475 53.3047 171.353 52.57C170.271 51.8353 169.227 51.004 168.221 50.076L171.353 46.422C172.629 47.6207 173.925 48.5487 175.239 49.206C176.554 49.8633 178.023 50.192 179.647 50.192C181.465 50.192 182.992 49.8827 184.229 49.264C185.505 48.684 186.472 47.8527 187.129 46.77C187.787 45.726 188.115 44.508 188.115 43.116L188.173 36.62L188.637 37.664C187.941 39.3267 186.685 40.738 184.867 41.898C183.05 43.0193 180.846 43.58 178.255 43.58C176.051 43.58 174.021 43.0193 172.165 41.898C170.348 40.7767 168.879 39.2687 167.757 37.374C166.675 35.4407 166.133 33.2753 166.133 30.878C166.133 28.3647 166.713 26.1607 167.873 24.266C169.033 22.3327 170.561 20.8053 172.455 19.684C174.35 18.5627 176.419 18.002 178.661 18.002C180.788 18.002 182.721 18.4467 184.461 19.336C186.24 20.1867 187.535 21.2887 188.347 22.642L188.057 23.628L188.637 18.988H193.567V43.174C193.567 45.3393 193.007 47.3113 191.885 49.09C190.764 50.8687 189.179 52.28 187.129 53.324C185.08 54.368 182.625 54.89 179.763 54.89ZM171.527 30.762C171.527 32.3087 171.895 33.72 172.629 34.996C173.364 36.272 174.35 37.2773 175.587 38.012C176.863 38.7467 178.275 39.114 179.821 39.114C181.252 39.114 182.528 38.8627 183.649 38.36C184.809 37.8187 185.776 37.1033 186.549 36.214C187.323 35.286 187.864 34.2227 188.173 33.024V28.268C187.825 27.108 187.245 26.1027 186.433 25.252C185.621 24.3627 184.655 23.686 183.533 23.222C182.412 22.7193 181.175 22.468 179.821 22.468C178.275 22.468 176.863 22.816 175.587 23.512C174.35 24.208 173.364 25.194 172.629 26.47C171.895 27.7073 171.527 29.138 171.527 30.762ZM244.263 8.548C242.832 7.81333 241.266 7.17533 239.565 6.634C237.864 6.09266 236.201 5.822 234.577 5.822C232.334 5.822 230.536 6.344 229.183 7.388C227.868 8.432 227.211 9.824 227.211 11.564C227.211 12.8787 227.636 14 228.487 14.928C229.338 15.8173 230.459 16.5907 231.851 17.248C233.243 17.9053 234.693 18.524 236.201 19.104C237.516 19.6067 238.811 20.1673 240.087 20.786C241.363 21.4047 242.504 22.178 243.509 23.106C244.553 24.034 245.365 25.1747 245.945 26.528C246.564 27.8813 246.873 29.5633 246.873 31.574C246.873 33.778 246.312 35.7887 245.191 37.606C244.108 39.4233 242.542 40.854 240.493 41.898C238.444 42.942 236.008 43.464 233.185 43.464C231.329 43.464 229.55 43.2513 227.849 42.826C226.186 42.4007 224.64 41.8593 223.209 41.202C221.778 40.506 220.502 39.7907 219.381 39.056L221.875 34.648C222.803 35.3053 223.866 35.9433 225.065 36.562C226.264 37.142 227.52 37.6253 228.835 38.012C230.15 38.36 231.426 38.534 232.663 38.534C233.978 38.534 235.273 38.302 236.549 37.838C237.864 37.3353 238.946 36.5813 239.797 35.576C240.648 34.5707 241.073 33.2367 241.073 31.574C241.073 30.1433 240.686 28.964 239.913 28.036C239.178 27.0693 238.192 26.2573 236.955 25.6C235.718 24.904 234.403 24.2853 233.011 23.744C231.696 23.2413 230.362 22.7 229.009 22.12C227.656 21.5013 226.399 20.7667 225.239 19.916C224.079 19.0267 223.151 17.944 222.455 16.668C221.759 15.392 221.411 13.8453 221.411 12.028C221.411 9.824 221.933 7.91 222.977 6.286C224.06 4.62333 225.529 3.328 227.385 2.4C229.241 1.43333 231.368 0.911331 233.765 0.833997C236.472 0.833997 238.85 1.16266 240.899 1.82C242.987 2.47733 244.824 3.28933 246.409 4.256L244.263 8.548ZM252.907 30.762C252.907 28.3647 253.468 26.1993 254.589 24.266C255.749 22.3327 257.334 20.8053 259.345 19.684C261.356 18.5627 263.637 18.002 266.189 18.002C268.818 18.002 271.119 18.5627 273.091 19.684C275.063 20.8053 276.59 22.3327 277.673 24.266C278.756 26.1993 279.297 28.3647 279.297 30.762C279.297 33.1593 278.756 35.344 277.673 37.316C276.59 39.2493 275.044 40.7767 273.033 41.898C271.061 43.0193 268.76 43.58 266.131 43.58C263.579 43.58 261.298 43.058 259.287 42.014C257.315 40.9313 255.749 39.4427 254.589 37.548C253.468 35.6147 252.907 33.3527 252.907 30.762ZM258.301 30.82C258.301 32.3667 258.649 33.778 259.345 35.054C260.041 36.2913 260.969 37.2773 262.129 38.012C263.328 38.7467 264.642 39.114 266.073 39.114C267.581 39.114 268.915 38.7467 270.075 38.012C271.274 37.2773 272.202 36.2913 272.859 35.054C273.516 33.778 273.845 32.3667 273.845 30.82C273.845 29.2733 273.516 27.8813 272.859 26.644C272.202 25.368 271.274 24.3627 270.075 23.628C268.915 22.8547 267.581 22.468 266.073 22.468C264.604 22.468 263.27 22.8547 262.071 23.628C260.911 24.4013 259.983 25.426 259.287 26.702C258.63 27.9393 258.301 29.312 258.301 30.82ZM284.512 30.762C284.512 28.3647 285.073 26.1993 286.194 24.266C287.354 22.3327 288.94 20.8053 290.95 19.684C292.961 18.5627 295.242 18.002 297.794 18.002C300.424 18.002 302.724 18.5627 304.696 19.684C306.668 20.8053 308.196 22.3327 309.278 24.266C310.361 26.1993 310.902 28.3647 310.902 30.762C310.902 33.1593 310.361 35.344 309.278 37.316C308.196 39.2493 306.649 40.7767 304.638 41.898C302.666 43.0193 300.366 43.58 297.736 43.58C295.184 43.58 292.903 43.058 290.892 42.014C288.92 40.9313 287.354 39.4427 286.194 37.548C285.073 35.6147 284.512 33.3527 284.512 30.762ZM289.906 30.82C289.906 32.3667 290.254 33.778 290.95 35.054C291.646 36.2913 292.574 37.2773 293.734 38.012C294.933 38.7467 296.248 39.114 297.678 39.114C299.186 39.114 300.52 38.7467 301.68 38.012C302.879 37.2773 303.807 36.2913 304.464 35.054C305.122 33.778 305.45 32.3667 305.45 30.82C305.45 29.2733 305.122 27.8813 304.464 26.644C303.807 25.368 302.879 24.3627 301.68 23.628C300.52 22.8547 299.186 22.468 297.678 22.468C296.209 22.468 294.875 22.8547 293.676 23.628C292.516 24.4013 291.588 25.426 290.892 26.702C290.235 27.9393 289.906 29.312 289.906 30.82ZM323.02 18.988L323.484 24.846L323.252 23.918C324.025 22.1393 325.282 20.728 327.022 19.684C328.762 18.6013 330.772 18.06 333.054 18.06C335.335 18.06 337.191 18.7367 338.622 20.09C340.091 21.4047 340.845 23.1253 340.884 25.252V43H335.432V27.166C335.393 25.8513 335.006 24.788 334.272 23.976C333.576 23.1253 332.474 22.7 330.966 22.7C329.574 22.7 328.317 23.0867 327.196 23.86C326.074 24.6333 325.185 25.6967 324.528 27.05C323.909 28.4033 323.6 29.9693 323.6 31.748V43H318.206V18.988H323.02Z" fill="#F2A71B"/>
</svg>
