<svg width="40" height="40" viewBox="0 0 40 40" fill="none" xmlns="http://www.w3.org/2000/svg">
<path d="M25 19V17H11V19H25ZM25 27V22H11V27H25ZM25 15C25.5304 15 26.0391 15.2107 26.4142 15.5858C26.7893 15.9609 27 16.4696 27 17V27C27 27.5304 26.7893 28.0391 26.4142 28.4142C26.0391 28.7893 25.5304 29 25 29H11C9.89 29 9 28.1 9 27V17C9 15.89 9.89 15 11 15H25Z" fill="#F23322"/>
<path d="M29 13H14V11H29C29.5304 11 30.0391 11.2107 30.4142 11.5858C30.7893 11.9609 31 12.4696 31 13V24H29V13Z" fill="#F2A71B"/>
</svg>
