<svg width="40" height="40" viewBox="0 0 40 40" fill="none" xmlns="http://www.w3.org/2000/svg">
<path d="M20 31.9999C16.8173 31.9999 13.7649 30.7355 11.5147 28.4852C9.26443 26.2347 8 23.1827 8 20C8 16.8172 9.26443 13.7649 11.5147 11.5147C13.7652 9.26424 16.8172 8 20 8C23.1827 8 26.235 9.26424 28.4852 11.5147C30.7357 13.7652 31.9999 16.8172 31.9999 20C31.9964 23.1815 30.7311 26.2317 28.4813 28.4814C26.2316 30.731 23.1812 31.9965 19.9999 32L20 31.9999ZM20 8.79111C17.0272 8.79111 14.1761 9.97199 12.0742 12.074C9.97199 14.176 8.79111 17.0271 8.79111 19.9998C8.79111 22.9725 9.97199 25.8236 12.0742 27.9255C14.1762 30.0277 17.0273 31.2086 20 31.2086C22.9726 31.2086 25.8238 30.0277 27.9257 27.9255C30.0277 25.8235 31.2086 22.9725 31.2086 19.9998C31.2051 17.0281 30.0231 14.1792 27.9218 12.0778C25.8206 9.97651 22.9716 8.79451 19.9999 8.79102L20 8.79111Z" fill="#F23322"/>
<path d="M15 18.1762C15 18.5697 15.0942 18.9344 15.2826 19.2705C15.4791 19.5984 15.7453 19.8607 16.0811 20.0574C16.4169 20.2541 16.7936 20.3525 17.2113 20.3525C17.6372 20.3525 18.0139 20.2541 18.3415 20.0574C18.6773 19.8607 18.9394 19.5984 19.1278 19.2705C19.3161 18.9344 19.4103 18.5697 19.4103 18.1762C19.4103 17.7664 19.3161 17.3975 19.1278 17.0697C18.9394 16.7418 18.6773 16.4836 18.3415 16.2951C18.0139 16.0984 17.6372 16 17.2113 16C16.7936 16 16.4169 16.0984 16.0811 16.2951C15.7453 16.4836 15.4791 16.7418 15.2826 17.0697C15.0942 17.3975 15 17.7664 15 18.1762ZM16.3268 18.1762C16.3268 18.0041 16.3636 17.8484 16.4373 17.709C16.5111 17.5697 16.6134 17.459 16.7445 17.377C16.8755 17.2869 17.0311 17.2418 17.2113 17.2418C17.3915 17.2418 17.543 17.2869 17.6658 17.377C17.7969 17.459 17.8993 17.5697 17.973 17.709C18.0467 17.8484 18.0835 18.0041 18.0835 18.1762C18.0835 18.3402 18.0467 18.4959 17.973 18.6434C17.8993 18.7828 17.7969 18.8934 17.6658 18.9754C17.543 19.0574 17.3915 19.0984 17.2113 19.0984C17.0311 19.0984 16.8755 19.0574 16.7445 18.9754C16.6134 18.8934 16.5111 18.7828 16.4373 18.6434C16.3636 18.4959 16.3268 18.3402 16.3268 18.1762ZM20.5897 22.8238C20.5897 23.2254 20.6839 23.5902 20.8722 23.918C21.0688 24.2459 21.335 24.5082 21.6708 24.7049C22.0066 24.9016 22.3833 25 22.801 25C23.2269 25 23.6036 24.9016 23.9312 24.7049C24.267 24.5082 24.5291 24.2459 24.7174 23.918C24.9058 23.5902 25 23.2254 25 22.8238C25 22.4221 24.9058 22.0574 24.7174 21.7295C24.5291 21.3934 24.267 21.1311 23.9312 20.9426C23.6036 20.7459 23.2269 20.6475 22.801 20.6475C22.3833 20.6475 22.0066 20.7459 21.6708 20.9426C21.335 21.1311 21.0688 21.3934 20.8722 21.7295C20.6839 22.0574 20.5897 22.4221 20.5897 22.8238ZM21.9165 22.8238C21.9165 22.6516 21.9533 22.4959 22.027 22.3566C22.1007 22.2172 22.2031 22.1066 22.3342 22.0246C22.4652 21.9426 22.6208 21.9016 22.801 21.9016C22.9812 21.9016 23.1327 21.9426 23.2555 22.0246C23.3866 22.1066 23.4889 22.2172 23.5627 22.3566C23.6364 22.4959 23.6732 22.6516 23.6732 22.8238C23.6732 22.9877 23.6364 23.1434 23.5627 23.291C23.4889 23.4303 23.3866 23.541 23.2555 23.623C23.1327 23.7049 22.9812 23.7459 22.801 23.7459C22.6208 23.7459 22.4652 23.7049 22.3342 23.623C22.2031 23.541 22.1007 23.4303 22.027 23.291C21.9533 23.1434 21.9165 22.9877 21.9165 22.8238ZM22.3342 16.1967L16.0688 24.8033H17.6781L23.9435 16.1967H22.3342Z" fill="#F2A71B"/>
<path fill-rule="evenodd" clip-rule="evenodd" d="M20 30C25.5229 30 30 25.5228 30 20C30 14.4772 25.5229 10 20 10C14.4771 10 10 14.4772 10 20C10 25.5228 14.4771 30 20 30ZM20 28.3333C24.6025 28.3333 28.3333 24.6024 28.3333 20C28.3333 15.3976 24.6025 11.6667 20 11.6667C15.3975 11.6667 11.6667 15.3976 11.6667 20C11.6667 24.6024 15.3975 28.3333 20 28.3333Z" fill="#F2A71B"/>
</svg>
