<svg width="40" height="40" viewBox="0 0 40 40" fill="none" xmlns="http://www.w3.org/2000/svg">
<path d="M28 26V27C28 27.5304 27.7893 28.0391 27.4142 28.4142C27.0391 28.7893 26.5304 29 26 29H12C10.89 29 10 28.1 10 27V13C10 12.4696 10.2107 11.9609 10.5858 11.5858C10.9609 11.2107 11.4696 11 12 11H26C26.5304 11 27.0391 11.2107 27.4142 11.5858C27.7893 11.9609 28 12.4696 28 13V14H19C17.89 14 17 14.9 17 16V24C17 24.5304 17.2107 25.0391 17.5858 25.4142C17.9609 25.7893 18.4696 26 19 26H28Z" fill="#F23322"/>
<path d="M19 24H29V16H19V24ZM23 21.5C22.6022 21.5 22.2206 21.342 21.9393 21.0607C21.658 20.7794 21.5 20.3978 21.5 20C21.5 19.6022 21.658 19.2206 21.9393 18.9393C22.2206 18.658 22.6022 18.5 23 18.5C23.3978 18.5 23.7794 18.658 24.0607 18.9393C24.342 19.2206 24.5 19.6022 24.5 20C24.5 20.3978 24.342 20.7794 24.0607 21.0607C23.7794 21.342 23.3978 21.5 23 21.5Z" fill="#F2A71B"/>
</svg>
