<svg width="40" height="40" viewBox="0 0 40 40" fill="none" xmlns="http://www.w3.org/2000/svg">
<path d="M18.5 10L9 15V17H23L21.5 11.5L18.5 10ZM23 19V26H26V19H23ZM9 31H28V28H9V31ZM17 19V26H20V19H17ZM11 19V26H14V19H11Z" fill="#F23322"/>
<path d="M28.18 14C28.22 13.67 28.25 13.34 28.25 13C28.25 12.66 28.22 12.33 28.18 12H29.87C29.95 12.32 30 12.655 30 13C30 13.345 29.95 13.68 29.87 14H28.18ZM27.295 16.78C27.595 16.225 27.825 15.625 27.985 15H29.46C28.98 15.825 28.215 16.465 27.295 16.78ZM27.17 14H24.83C24.78 13.67 24.75 13.34 24.75 13C24.75 12.66 24.78 12.325 24.83 12H27.17C27.215 12.325 27.25 12.66 27.25 13C27.25 13.34 27.215 13.67 27.17 14ZM26 16.98C25.585 16.38 25.25 15.715 25.045 15H26.955C26.75 15.715 26.415 16.38 26 16.98ZM24 11H22.54C23.015 10.17 23.785 9.53 24.7 9.22C24.4 9.775 24.175 10.375 24 11ZM22.54 15H24C24.175 15.625 24.4 16.225 24.7 16.78C23.785 16.465 23.015 15.825 22.54 15ZM22.13 14C22.05 13.68 22 13.345 22 13C22 12.655 22.05 12.32 22.13 12H23.82C23.78 12.33 23.75 12.66 23.75 13C23.75 13.34 23.78 13.67 23.82 14H22.13ZM26 9.015C26.415 9.615 26.75 10.285 26.955 11H25.045C25.25 10.285 25.585 9.615 26 9.015ZM29.46 11H27.985C27.825 10.375 27.595 9.775 27.295 9.22C28.215 9.535 28.98 10.17 29.46 11ZM26 8C23.235 8 21 10.25 21 13C21 14.3261 21.5268 15.5979 22.4645 16.5355C22.9288 16.9998 23.48 17.3681 24.0866 17.6194C24.6932 17.8707 25.3434 18 26 18C27.3261 18 28.5979 17.4732 29.5355 16.5355C30.4732 15.5979 31 14.3261 31 13C31 12.3434 30.8707 11.6932 30.6194 11.0866C30.3681 10.48 29.9998 9.92876 29.5355 9.46447C29.0712 9.00017 28.52 8.63188 27.9134 8.3806C27.3068 8.12933 26.6566 8 26 8Z" fill="#F2A71B"/>
</svg>
