<svg width="7" height="9" viewBox="0 0 7 9" fill="none" xmlns="http://www.w3.org/2000/svg">
<path d="M6.7375 1.28571C6.88247 1.28571 7 1.17777 7 1.04464V0.241071C7 0.10794 6.88247 0 6.7375 0H0.2625C0.117534 0 0 0.10794 0 0.241071V1.14003C0 1.27316 0.117534 1.3811 0.2625 1.3811H2.128C2.72536 1.3811 3.18371 1.58115 3.46172 1.92857H0.2625C0.117534 1.92857 0 2.03651 0 2.16964V2.97321C0 3.10635 0.117534 3.21429 0.2625 3.21429H3.73531C3.59931 3.93923 3.01429 4.39216 2.1 4.39216H0.2625C0.117534 4.39216 0 4.5001 0 4.63323V5.69821C0 5.76548 0.030625 5.82971 0.0844594 5.87535L3.69497 8.93608C3.74346 8.97718 3.80703 9 3.87301 9H5.67906C5.91802 9 6.03269 8.73064 5.8571 8.58178L2.55655 5.78383C4.22997 5.73682 5.42533 4.71116 5.58226 3.21429H6.7375C6.88247 3.21429 7 3.10635 7 2.97321V2.16964C7 2.03651 6.88247 1.92857 6.7375 1.92857H5.45366C5.3774 1.69672 5.27253 1.48167 5.14189 1.28571H6.7375Z" fill="#444445"/>
</svg>
