<svg width="35" height="11" viewBox="0 0 35 11" fill="none" xmlns="http://www.w3.org/2000/svg">
<path d="M15.0847 10.2924H12.2648L14.0285 0.183105H16.8483L15.0847 10.2924Z" fill="#00579F"/>
<path d="M25.3071 0.430394C24.7509 0.225846 23.8687 0 22.7779 0C19.9931 0 18.0321 1.37652 18.0201 3.34452C17.997 4.79651 19.4241 5.60298 20.4915 6.08712C21.5825 6.58184 21.9534 6.90474 21.9534 7.34571C21.9422 8.02296 21.0718 8.33514 20.2599 8.33514C19.1341 8.33514 18.5308 8.17419 17.6141 7.7974L17.2428 7.63588L16.8481 9.9052C17.5095 10.1845 18.728 10.4324 19.9931 10.4432C22.952 10.4432 24.8783 9.08801 24.9011 6.99079C24.9124 5.83998 24.1588 4.95818 22.5341 4.23761C21.5478 3.77506 20.9438 3.46316 20.9438 2.98989C20.9553 2.55963 21.4547 2.11895 22.568 2.11895C23.4847 2.09737 24.1583 2.30163 24.6686 2.50603L24.9236 2.61338L25.3071 0.430394Z" fill="#00579F"/>
<path d="M29.055 6.71105C29.2872 6.13029 30.1808 3.88255 30.1808 3.88255C30.1691 3.90413 30.4126 3.29106 30.5519 2.9147L30.7489 3.78578C30.7489 3.78578 31.2829 6.20562 31.3989 6.71105C30.9582 6.71105 29.612 6.71105 29.055 6.71105ZM32.5358 0.183105H30.3546C29.682 0.183105 29.171 0.365783 28.8808 1.02188L24.6921 10.2923H27.651C27.651 10.2923 28.1381 9.04456 28.2428 8.77583C28.5674 8.77583 31.4458 8.77583 31.8634 8.77583C31.9443 9.13075 32.1998 10.2923 32.1998 10.2923H34.8108L32.5358 0.183105Z" fill="#00579F"/>
<path d="M9.90939 0.183105L7.14776 7.07669L6.84599 5.67859C6.33542 4.06537 4.73417 2.31263 2.94727 1.44112L5.47682 10.2817H8.4588L12.8912 0.183105H9.90939Z" fill="#00579F"/>
<path d="M4.58338 0.183105H0.046415L0 0.387367C3.53912 1.22628 5.88301 3.24846 6.84601 5.67902L5.85972 1.03289C5.69735 0.387224 5.19835 0.204404 4.58338 0.183105Z" fill="#FAA61A"/>
</svg>
