<svg width="50" height="50" viewBox="0 0 50 50" fill="none" xmlns="http://www.w3.org/2000/svg">
<g clip-path="url(#clip0_0_2099)">
<rect width="50" height="50" rx="24.8201" fill="#D9D9D9"/>
<g clip-path="url(#clip1_0_2099)">
<mask id="path-2-inside-1_0_2099" fill="white">
<path d="M8.27344 44.6818C8.27085 41.2141 11.2292 38.6689 14.6969 38.6689H34.7203C38.3288 38.6689 41.3561 41.4145 41.2555 45.0216C41.1606 48.4231 40.723 52.5156 39.3738 55.5052C38.5874 57.2478 36.6772 58.0035 34.7655 58.0035C29.2695 58.0035 21.1943 58.0035 14.9831 58.0035C13.0713 58.0035 11.1538 57.2583 10.2947 55.5504C8.68088 52.3426 8.276 48.1075 8.27344 44.6818Z"/>
</mask>
<path d="M8.27344 44.6818C8.27085 41.2141 11.2292 38.6689 14.6969 38.6689H34.7203C38.3288 38.6689 41.3561 41.4145 41.2555 45.0216C41.1606 48.4231 40.723 52.5156 39.3738 55.5052C38.5874 57.2478 36.6772 58.0035 34.7655 58.0035C29.2695 58.0035 21.1943 58.0035 14.9831 58.0035C13.0713 58.0035 11.1538 57.2583 10.2947 55.5504C8.68088 52.3426 8.276 48.1075 8.27344 44.6818Z" fill="#334B71"/>
<path d="M39.3738 55.5052L40.0296 55.8012L39.3738 55.5052ZM41.2555 45.0216L41.9746 45.0417L41.2555 45.0216ZM40.5363 45.0016C40.4419 48.3857 40.0054 52.3569 38.7181 55.2093L40.0296 55.8012C41.4407 52.6743 41.8792 48.4605 41.9746 45.0417L40.5363 45.0016ZM34.7655 57.2841C34.7547 57.2841 34.744 57.2841 34.7332 57.2841C34.7225 57.2841 34.7117 57.2841 34.701 57.2841C34.6902 57.2841 34.6794 57.2841 34.6686 57.2841C34.6578 57.2841 34.647 57.2841 34.6362 57.2841C34.6254 57.2841 34.6146 57.2841 34.6037 57.2841C34.5929 57.2841 34.5821 57.2841 34.5712 57.2841C34.5604 57.2841 34.5495 57.2841 34.5386 57.2841C34.5278 57.2841 34.5169 57.2841 34.506 57.2841C34.4951 57.2841 34.4842 57.2841 34.4733 57.2841C34.4624 57.2841 34.4515 57.2841 34.4405 57.2841C34.4296 57.2841 34.4187 57.2841 34.4077 57.2841C34.3968 57.2841 34.3858 57.2841 34.3748 57.2841C34.3639 57.2841 34.3529 57.2841 34.3419 57.2841C34.3309 57.2841 34.3199 57.2841 34.3089 57.2841C34.2979 57.2841 34.2869 57.2841 34.2759 57.2841C34.2649 57.2841 34.2539 57.2841 34.2428 57.2841C34.2318 57.2841 34.2207 57.2841 34.2097 57.2841C34.1986 57.2841 34.1875 57.2841 34.1765 57.2841C34.1654 57.2841 34.1543 57.2841 34.1432 57.2841C34.1321 57.2841 34.121 57.2841 34.1099 57.2841C34.0988 57.2841 34.0876 57.2841 34.0765 57.2841C34.0654 57.2841 34.0542 57.2841 34.0431 57.2841C34.0319 57.2841 34.0208 57.2841 34.0096 57.2841C33.9984 57.2841 33.9873 57.2841 33.9761 57.2841C33.9649 57.2841 33.9537 57.2841 33.9425 57.2841C33.9313 57.2841 33.9201 57.2841 33.9088 57.2841C33.8976 57.2841 33.8864 57.2841 33.8751 57.2841C33.8639 57.2841 33.8526 57.2841 33.8414 57.2841C33.8301 57.2841 33.8189 57.2841 33.8076 57.2841C33.7963 57.2841 33.785 57.2841 33.7737 57.2841C33.7624 57.2841 33.7511 57.2841 33.7398 57.2841C33.7285 57.2841 33.7172 57.2841 33.7058 57.2841C33.6945 57.2841 33.6832 57.2841 33.6718 57.2841C33.6605 57.2841 33.6491 57.2841 33.6378 57.2841C33.6264 57.2841 33.615 57.2841 33.6036 57.2841C33.5923 57.2841 33.5809 57.2841 33.5695 57.2841C33.5581 57.2841 33.5467 57.2841 33.5352 57.2841C33.5238 57.2841 33.5124 57.2841 33.501 57.2841C33.4895 57.2841 33.4781 57.2841 33.4666 57.2841C33.4552 57.2841 33.4437 57.2841 33.4323 57.2841C33.4208 57.2841 33.4093 57.2841 33.3978 57.2841C33.3863 57.2841 33.3748 57.2841 33.3633 57.2841C33.3633 57.2841 33.2943 57.2841 33.2942 57.2841C33.2827 57.2841 33.2711 57.2841 33.2596 57.2841C33.248 57.2841 33.2365 57.2841 33.2249 57.2841C33.2133 57.2841 33.2018 57.2841 33.1902 57.2841C33.1786 57.2841 33.167 57.2841 33.1554 57.2841C33.1438 57.2841 33.1322 57.2841 33.1206 57.2841C33.1089 57.2841 33.0973 57.2841 33.0857 57.2841C33.074 57.2841 33.0624 57.2841 33.0507 57.2841C33.0391 57.2841 33.0274 57.2841 33.0158 57.2841C33.0041 57.2841 32.9924 57.2841 32.9807 57.2841C32.9691 57.2841 32.9574 57.2841 32.9457 57.2841C32.934 57.2841 32.9223 57.2841 32.9105 57.2841C32.8988 57.2841 32.8871 57.2841 32.8754 57.2841C32.8636 57.2841 32.8519 57.2841 32.8401 57.2841C32.8284 57.2841 32.8166 57.2841 32.8049 57.2841C32.7931 57.2841 32.7813 57.2841 32.7696 57.2841C32.7578 57.2841 32.746 57.2841 32.7342 57.2841C32.7224 57.2841 32.7106 57.2841 32.6988 57.2841C32.687 57.2841 32.6751 57.2841 32.6633 57.2841C32.6515 57.2841 32.6397 57.2841 32.6278 57.2841C32.616 57.2841 32.6041 57.2841 32.5923 57.2841C32.5804 57.2841 32.5685 57.2841 32.5567 57.2841C32.5448 57.2841 32.5329 57.2841 32.521 57.2841C32.5091 57.2841 32.4972 57.2841 32.4853 57.2841C32.4734 57.2841 32.4615 57.2841 32.4496 57.2841C32.4377 57.2841 32.4258 57.2841 32.4138 57.2841C32.4019 57.2841 32.3899 57.2841 32.378 57.2841C32.366 57.2841 32.3541 57.2841 32.3421 57.2841C32.3302 57.2841 32.3182 57.2841 32.3062 57.2841C32.2942 57.2841 32.2822 57.2841 32.2702 57.2841C32.2582 57.2841 32.2462 57.2841 32.2342 57.2841C32.2222 57.2841 32.2102 57.2841 32.1982 57.2841C32.1862 57.2841 32.1741 57.2841 32.1621 57.2841C32.1501 57.2841 32.138 57.2841 32.126 57.2841C32.1139 57.2841 32.1018 57.2841 32.0898 57.2841C32.0777 57.2841 32.0656 57.2841 32.0535 57.2841C32.0415 57.2841 32.0294 57.2841 32.0173 57.2841C32.0052 57.2841 31.9931 57.2841 31.981 57.2841C31.9689 57.2841 31.9567 57.2841 31.9446 57.2841C31.9325 57.2841 31.9204 57.2841 31.9082 57.2841C31.8961 57.2841 31.8839 57.2841 31.8718 57.2841C31.8596 57.2841 31.8475 57.2841 31.8353 57.2841C31.8231 57.2841 31.811 57.2841 31.7988 57.2841C31.7866 57.2841 31.7744 57.2841 31.7622 57.2841C31.75 57.2841 31.7378 57.2841 31.7256 57.2841C31.7134 57.2841 31.7012 57.2841 31.6889 57.2841C31.6767 57.2841 31.6645 57.2841 31.6523 57.2841C31.64 57.2841 31.6278 57.2841 31.6155 57.2841C31.6033 57.2841 31.591 57.2841 31.5788 57.2841C31.5665 57.2841 31.5542 57.2841 31.5419 57.2841C31.5297 57.2841 31.5174 57.2841 31.5051 57.2841C31.4928 57.2841 31.4805 57.2841 31.4682 57.2841C31.4559 57.2841 31.4436 57.2841 31.4313 57.2841C31.4189 57.2841 31.4066 57.2841 31.3943 57.2841C31.3819 57.2841 31.3696 57.2841 31.3573 57.2841C31.3449 57.2841 31.3326 57.2841 31.3202 57.2841C31.3078 57.2841 31.2955 57.2841 31.2831 57.2841C31.2707 57.2841 31.2584 57.2841 31.246 57.2841C31.2336 57.2841 31.2212 57.2841 31.2088 57.2841C31.1964 57.2841 31.184 57.2841 31.1716 57.2841C31.1592 57.2841 31.1468 57.2841 31.1343 57.2841C31.1219 57.2841 31.1095 57.2841 31.0971 57.2841C31.0846 57.2841 31.0722 57.2841 31.0597 57.2841C31.0473 57.2841 31.0348 57.2841 31.0224 57.2841C31.0099 57.2841 30.9974 57.2841 30.985 57.2841C30.9725 57.2841 30.96 57.2841 30.9475 57.2841C30.935 57.2841 30.9226 57.2841 30.9101 57.2841C30.8976 57.2841 30.8851 57.2841 30.8725 57.2841C30.86 57.2841 30.8475 57.2841 30.835 57.2841C30.8225 57.2841 30.8099 57.2841 30.7974 57.2841C30.7849 57.2841 30.7723 57.2841 30.7598 57.2841C30.7472 57.2841 30.7347 57.2841 30.7221 57.2841C30.7096 57.2841 30.697 57.2841 30.6844 57.2841C30.6719 57.2841 30.6593 57.2841 30.6467 57.2841C30.6341 57.2841 30.6215 57.2841 30.6089 57.2841C30.5963 57.2841 30.5837 57.2841 30.5711 57.2841C30.5585 57.2841 30.5459 57.2841 30.5333 57.2841C30.5207 57.2841 30.508 57.2841 30.4954 57.2841C30.4828 57.2841 30.4701 57.2841 30.4575 57.2841C30.4449 57.2841 30.4322 57.2841 30.4195 57.2841C30.4069 57.2841 30.3942 57.2841 30.3816 57.2841C30.3689 57.2841 30.3562 57.2841 30.3436 57.2841C30.3309 57.2841 30.3182 57.2841 30.3055 57.2841C30.2928 57.2841 30.2801 57.2841 30.2674 57.2841C30.2547 57.2841 30.242 57.2841 30.2293 57.2841C30.2166 57.2841 30.2039 57.2841 30.1912 57.2841C30.1784 57.2841 30.1657 57.2841 30.153 57.2841C30.1402 57.2841 30.1275 57.2841 30.1148 57.2841C30.102 57.2841 30.0893 57.2841 30.0765 57.2841C30.0638 57.2841 30.051 57.2841 30.0382 57.2841C30.0255 57.2841 30.0127 57.2841 29.9999 57.2841C29.9871 57.2841 29.9744 57.2841 29.9616 57.2841C29.9488 57.2841 29.936 57.2841 29.9232 57.2841C29.9104 57.2841 29.8976 57.2841 29.8848 57.2841C29.872 57.2841 29.8592 57.2841 29.8463 57.2841C29.8335 57.2841 29.8207 57.2841 29.8079 57.2841C29.795 57.2841 29.7822 57.2841 29.7694 57.2841C29.7565 57.2841 29.7437 57.2841 29.7308 57.2841C29.718 57.2841 29.7051 57.2841 29.6923 57.2841C29.6794 57.2841 29.6665 57.2841 29.6537 57.2841C29.6408 57.2841 29.6279 57.2841 29.615 57.2841C29.6021 57.2841 29.5893 57.2841 29.5764 57.2841C29.5635 57.2841 29.5506 57.2841 29.5377 57.2841C29.5248 57.2841 29.5119 57.2841 29.499 57.2841C29.486 57.2841 29.4731 57.2841 29.4602 57.2841C29.4473 57.2841 29.4344 57.2841 29.4214 57.2841C29.4085 57.2841 29.3956 57.2841 29.3826 57.2841C29.3697 57.2841 29.3567 57.2841 29.3438 57.2841C29.3308 57.2841 29.3179 57.2841 29.3049 57.2841C29.292 57.2841 29.279 57.2841 29.266 57.2841C29.2531 57.2841 29.2401 57.2841 29.2271 57.2841C29.2141 57.2841 29.2011 57.2841 29.1881 57.2841C29.1752 57.2841 29.1622 57.2841 29.1492 57.2841C29.1362 57.2841 29.1232 57.2841 29.1102 57.2841C29.0971 57.2841 29.0841 57.2841 29.0711 57.2841C29.0581 57.2841 29.0451 57.2841 29.0321 57.2841C29.019 57.2841 29.006 57.2841 28.993 57.2841C28.9799 57.2841 28.9669 57.2841 28.9538 57.2841C28.9408 57.2841 28.9277 57.2841 28.9147 57.2841C28.9016 57.2841 28.8886 57.2841 28.8755 57.2841C28.8625 57.2841 28.8494 57.2841 28.8363 57.2841C28.8232 57.2841 28.8102 57.2841 28.7971 57.2841C28.784 57.2841 28.7709 57.2841 28.7578 57.2841C28.7448 57.2841 28.7317 57.2841 28.7186 57.2841C28.7055 57.2841 28.6924 57.2841 28.6793 57.2841C28.6661 57.2841 28.653 57.2841 28.6399 57.2841C28.6268 57.2841 28.6137 57.2841 28.6006 57.2841C28.5874 57.2841 28.5743 57.2841 28.5612 57.2841C28.5481 57.2841 28.5349 57.2841 28.5218 57.2841C28.5086 57.2841 28.4955 57.2841 28.4824 57.2841C28.4692 57.2841 28.4561 57.2841 28.4429 57.2841C28.4297 57.2841 28.4166 57.2841 28.4034 57.2841C28.3902 57.2841 28.3771 57.2841 28.3639 57.2841C28.3507 57.2841 28.3376 57.2841 28.3244 57.2841C28.3112 57.2841 28.298 57.2841 28.2848 57.2841C28.2716 57.2841 28.2584 57.2841 28.2453 57.2841C28.2321 57.2841 28.2189 57.2841 28.2057 57.2841C28.1924 57.2841 28.1792 57.2841 28.166 57.2841C28.1528 57.2841 28.1396 57.2841 28.1264 57.2841C28.1132 57.2841 28.0999 57.2841 28.0867 57.2841C28.0735 57.2841 28.0603 57.2841 28.047 57.2841C28.0338 57.2841 28.0205 57.2841 28.0073 57.2841C27.9941 57.2841 27.9808 57.2841 27.9676 57.2841C27.9543 57.2841 27.9411 57.2841 27.9278 57.2841C27.9146 57.2841 27.9013 57.2841 27.888 57.2841C27.8748 57.2841 27.8615 57.2841 27.8482 57.2841C27.835 57.2841 27.8217 57.2841 27.8084 57.2841C27.7951 57.2841 27.7818 57.2841 27.7686 57.2841C27.7553 57.2841 27.742 57.2841 27.7287 57.2841C27.7154 57.2841 27.7021 57.2841 27.6888 57.2841C27.6755 57.2841 27.6622 57.2841 27.6489 57.2841C27.6356 57.2841 27.6223 57.2841 27.609 57.2841C27.5957 57.2841 27.5823 57.2841 27.569 57.2841C27.5557 57.2841 27.5424 57.2841 27.5291 57.2841C27.5157 57.2841 27.5024 57.2841 27.4891 57.2841C27.4757 57.2841 27.4624 57.2841 27.4491 57.2841C27.4357 57.2841 27.4224 57.2841 27.409 57.2841C27.3957 57.2841 27.3823 57.2841 27.369 57.2841C27.3556 57.2841 27.3423 57.2841 27.3289 57.2841C27.3156 57.2841 27.3022 57.2841 27.2888 57.2841C27.2755 57.2841 27.2621 57.2841 27.2487 57.2841C27.2354 57.2841 27.222 57.2841 27.2086 57.2841C27.1952 57.2841 27.1819 57.2841 27.1685 57.2841C27.1551 57.2841 27.1417 57.2841 27.1283 57.2841C27.1149 57.2841 27.1015 57.2841 27.0881 57.2841C27.0747 57.2841 27.0613 57.2841 27.0479 57.2841C27.0345 57.2841 27.0211 57.2841 27.0077 57.2841C26.9943 57.2841 26.9809 57.2841 26.9675 57.2841C26.9541 57.2841 26.9407 57.2841 26.9273 57.2841C26.9138 57.2841 26.9004 57.2841 26.887 57.2841C26.8736 57.2841 26.8601 57.2841 26.8467 57.2841C26.8333 57.2841 26.8198 57.2841 26.8064 57.2841C26.793 57.2841 26.7795 57.2841 26.7661 57.2841C26.7527 57.2841 26.7392 57.2841 26.7258 57.2841C26.7123 57.2841 26.6989 57.2841 26.6854 57.2841C26.672 57.2841 26.6585 57.2841 26.6451 57.2841C26.6316 57.2841 26.6182 57.2841 26.6047 57.2841C26.5912 57.2841 26.5778 57.2841 26.5643 57.2841C26.5508 57.2841 26.5374 57.2841 26.5239 57.2841C26.5104 57.2841 26.4969 57.2841 26.4835 57.2841C26.47 57.2841 26.4565 57.2841 26.443 57.2841C26.4296 57.2841 26.4161 57.2841 26.4026 57.2841C26.3891 57.2841 26.3756 57.2841 26.3621 57.2841C26.3486 57.2841 26.3351 57.2841 26.3216 57.2841C26.3081 57.2841 26.2946 57.2841 26.2811 57.2841C26.2676 57.2841 26.2541 57.2841 26.2406 57.2841C26.2271 57.2841 26.2136 57.2841 26.2001 57.2841C26.1866 57.2841 26.1731 57.2841 26.1596 57.2841C26.1461 57.2841 26.1326 57.2841 26.119 57.2841C26.1055 57.2841 26.092 57.2841 26.0785 57.2841C26.065 57.2841 26.0514 57.2841 26.0379 57.2841C26.0244 57.2841 26.0109 57.2841 25.9973 57.2841C25.9838 57.2841 25.9703 57.2841 25.9567 57.2841C25.9432 57.2841 25.9297 57.2841 25.9161 57.2841C25.9026 57.2841 25.889 57.2841 25.8755 57.2841C25.8619 57.2841 25.8484 57.2841 25.8349 57.2841C25.8213 57.2841 25.8078 57.2841 25.7942 57.2841C25.7807 57.2841 25.7671 57.2841 25.7536 57.2841C25.74 57.2841 25.7264 57.2841 25.7129 57.2841C25.6993 57.2841 25.6858 57.2841 25.6722 57.2841C25.6587 57.2841 25.6451 57.2841 25.6315 57.2841C25.618 57.2841 25.6044 57.2841 25.5908 57.2841C25.5773 57.2841 25.5637 57.2841 25.5501 57.2841C25.5365 57.2841 25.523 57.2841 25.5094 57.2841C25.4958 57.2841 25.4822 57.2841 25.4687 57.2841C25.4551 57.2841 25.4415 57.2841 25.4279 57.2841C25.4143 57.2841 25.4008 57.2841 25.3872 57.2841C25.3736 57.2841 25.36 57.2841 25.3464 57.2841C25.3328 57.2841 25.3192 57.2841 25.3056 57.2841C25.2921 57.2841 25.2785 57.2841 25.2649 57.2841C25.2513 57.2841 25.2377 57.2841 25.2241 57.2841C25.2105 57.2841 25.1969 57.2841 25.1833 57.2841C25.1697 57.2841 25.1561 57.2841 25.1425 57.2841C25.1289 57.2841 25.1153 57.2841 25.1017 57.2841C25.0881 57.2841 25.0745 57.2841 25.0609 57.2841C25.0472 57.2841 25.0336 57.2841 25.02 57.2841C25.0064 57.2841 24.9928 57.2841 24.9792 57.2841C24.9656 57.2841 24.952 57.2841 24.9384 57.2841C24.9247 57.2841 24.9111 57.2841 24.8975 57.2841C24.8839 57.2841 24.8703 57.2841 24.8566 57.2841C24.843 57.2841 24.8294 57.2841 24.8158 57.2841C24.8022 57.2841 24.7885 57.2841 24.7749 57.2841C24.7613 57.2841 24.7477 57.2841 24.734 57.2841C24.7204 57.2841 24.7068 57.2841 24.6932 57.2841C24.6795 57.2841 24.6659 57.2841 24.6523 57.2841C24.6386 57.2841 24.625 57.2841 24.6114 57.2841C24.5977 57.2841 24.5841 57.2841 24.5705 57.2841C24.5568 57.2841 24.5432 57.2841 24.5296 57.2841C24.5159 57.2841 24.5023 57.2841 24.4887 57.2841C24.475 57.2841 24.4614 57.2841 24.4477 57.2841C24.4341 57.2841 24.4205 57.2841 24.4068 57.2841C24.3932 57.2841 24.3795 57.2841 24.3659 57.2841C24.3523 57.2841 24.3386 57.2841 24.325 57.2841C24.3113 57.2841 24.2977 57.2841 24.284 57.2841C24.2704 57.2841 24.2567 57.2841 24.2431 57.2841C24.2295 57.2841 24.2158 57.2841 24.2022 57.2841C24.1885 57.2841 24.1749 57.2841 24.1612 57.2841C24.1476 57.2841 24.1339 57.2841 24.1203 57.2841C24.1066 57.2841 24.093 57.2841 24.0793 57.2841C24.0657 57.2841 24.052 57.2841 24.0384 57.2841C24.0247 57.2841 24.0111 57.2841 23.9974 57.2841C23.9838 57.2841 23.9701 57.2841 23.9564 57.2841C23.9428 57.2841 23.9291 57.2841 23.9155 57.2841C23.9018 57.2841 23.8882 57.2841 23.8745 57.2841C23.8609 57.2841 23.8472 57.2841 23.8336 57.2841C23.8199 57.2841 23.8062 57.2841 23.7926 57.2841C23.7789 57.2841 23.7653 57.2841 23.7516 57.2841C23.738 57.2841 23.7243 57.2841 23.7106 57.2841C23.697 57.2841 23.6833 57.2841 23.6697 57.2841C23.656 57.2841 23.6424 57.2841 23.6287 57.2841C23.615 57.2841 23.6014 57.2841 23.5877 57.2841C23.5741 57.2841 23.5604 57.2841 23.5467 57.2841C23.5331 57.2841 23.5194 57.2841 23.5058 57.2841C23.4921 57.2841 23.4785 57.2841 23.4648 57.2841C23.4511 57.2841 23.4375 57.2841 23.4238 57.2841C23.4102 57.2841 23.3965 57.2841 23.3828 57.2841C23.3692 57.2841 23.3555 57.2841 23.3419 57.2841C23.3282 57.2841 23.3146 57.2841 23.3009 57.2841C23.2872 57.2841 23.2736 57.2841 23.2599 57.2841C23.2463 57.2841 23.2326 57.2841 23.2189 57.2841C23.2053 57.2841 23.1916 57.2841 23.178 57.2841C23.1643 57.2841 23.1507 57.2841 23.137 57.2841C23.1233 57.2841 23.1097 57.2841 23.096 57.2841C23.0824 57.2841 23.0687 57.2841 23.0551 57.2841C23.0414 57.2841 23.0278 57.2841 23.0141 57.2841C23.0004 57.2841 22.9868 57.2841 22.9731 57.2841C22.9595 57.2841 22.9458 57.2841 22.9322 57.2841C22.9185 57.2841 22.9049 57.2841 22.8912 57.2841C22.8776 57.2841 22.8639 57.2841 22.8503 57.2841C22.8366 57.2841 22.823 57.2841 22.8093 57.2841C22.7957 57.2841 22.782 57.2841 22.7684 57.2841C22.7547 57.2841 22.7411 57.2841 22.7274 57.2841C22.7138 57.2841 22.7001 57.2841 22.6865 57.2841C22.6728 57.2841 22.6592 57.2841 22.6455 57.2841C22.6319 57.2841 22.6182 57.2841 22.6046 57.2841C22.591 57.2841 22.5773 57.2841 22.5637 57.2841C22.55 57.2841 22.5364 57.2841 22.5227 57.2841C22.5091 57.2841 22.4955 57.2841 22.4818 57.2841C22.4682 57.2841 22.4545 57.2841 22.4409 57.2841C22.4273 57.2841 22.4136 57.2841 22.4 57.2841C22.3864 57.2841 22.3727 57.2841 22.3591 57.2841C22.3455 57.2841 22.3318 57.2841 22.3182 57.2841C22.3046 57.2841 22.2909 57.2841 22.2773 57.2841C22.2637 57.2841 22.25 57.2841 22.2364 57.2841C22.2228 57.2841 22.2091 57.2841 22.1955 57.2841C22.1819 57.2841 22.1683 57.2841 22.1546 57.2841C22.141 57.2841 22.1274 57.2841 22.1138 57.2841C22.1001 57.2841 22.0865 57.2841 22.0729 57.2841C22.0593 57.2841 22.0457 57.2841 22.032 57.2841C22.0184 57.2841 22.0048 57.2841 21.9912 57.2841C21.9776 57.2841 21.964 57.2841 21.9503 57.2841C21.9367 57.2841 21.9231 57.2841 21.9095 57.2841C21.8959 57.2841 21.8823 57.2841 21.8687 57.2841C21.8551 57.2841 21.8415 57.2841 21.8279 57.2841C21.8142 57.2841 21.8006 57.2841 21.787 57.2841C21.7734 57.2841 21.7598 57.2841 21.7462 57.2841C21.7326 57.2841 21.719 57.2841 21.7054 57.2841C21.6329 57.2841 21.6964 57.2841 21.6239 57.2841C21.6103 57.2841 21.5967 57.2841 21.5831 57.2841C21.5695 57.2841 21.5559 57.2841 21.5423 57.2841C21.5287 57.2841 21.5152 57.2841 21.5016 57.2841C21.488 57.2841 21.4744 57.2841 21.4608 57.2841C21.4473 57.2841 21.4337 57.2841 21.4201 57.2841C21.4065 57.2841 21.3929 57.2841 21.3794 57.2841C21.3658 57.2841 21.3522 57.2841 21.3387 57.2841C21.3251 57.2841 21.3115 57.2841 21.298 57.2841C21.2844 57.2841 21.2708 57.2841 21.2573 57.2841C21.2437 57.2841 21.2301 57.2841 21.2166 57.2841C21.203 57.2841 21.1895 57.2841 21.1759 57.2841C21.1623 57.2841 21.1488 57.2841 21.1352 57.2841C21.1217 57.2841 21.1081 57.2841 21.0946 57.2841C21.081 57.2841 21.0675 57.2841 21.054 57.2841C21.0404 57.2841 21.0269 57.2841 21.0133 57.2841C20.9998 57.2841 20.9863 57.2841 20.9727 57.2841C20.9592 57.2841 20.9456 57.2841 20.9321 57.2841C20.9186 57.2841 20.9051 57.2841 20.8915 57.2841C20.878 57.2841 20.8645 57.2841 20.8509 57.2841C20.8374 57.2841 20.8239 57.2841 20.8104 57.2841C20.7969 57.2841 20.7833 57.2841 20.7698 57.2841C20.7563 57.2841 20.7428 57.2841 20.7293 57.2841C20.7158 57.2841 20.7023 57.2841 20.6888 57.2841C20.6753 57.2841 20.6618 57.2841 20.6482 57.2841C20.6347 57.2841 20.6212 57.2841 20.6078 57.2841C20.5943 57.2841 20.5808 57.2841 20.5673 57.2841C20.5538 57.2841 20.5403 57.2841 20.5268 57.2841C20.5133 57.2841 20.4998 57.2841 20.4863 57.2841C20.4729 57.2841 20.4594 57.2841 20.4459 57.2841C20.4324 57.2841 20.4189 57.2841 20.4055 57.2841C20.392 57.2841 20.3785 57.2841 20.3651 57.2841C20.3516 57.2841 20.3381 57.2841 20.3247 57.2841C20.3112 57.2841 20.2977 57.2841 20.2843 57.2841C20.2708 57.2841 20.2574 57.2841 20.2439 57.2841C20.2305 57.2841 20.217 57.2841 20.2036 57.2841C20.1901 57.2841 20.1767 57.2841 20.1632 57.2841C20.1498 57.2841 20.1363 57.2841 20.1229 57.2841C20.1095 57.2841 20.096 57.2841 20.0826 57.2841C20.0692 57.2841 20.0557 57.2841 20.0423 57.2841C20.0289 57.2841 20.0155 57.2841 20.002 57.2841C19.9886 57.2841 19.9752 57.2841 19.9618 57.2841C19.9484 57.2841 19.935 57.2841 19.9216 57.2841C19.9081 57.2841 19.8947 57.2841 19.8813 57.2841C19.8679 57.2841 19.8545 57.2841 19.8411 57.2841C19.8277 57.2841 19.8143 57.2841 19.801 57.2841C19.7876 57.2841 19.7742 57.2841 19.7608 57.2841C19.7474 57.2841 19.734 57.2841 19.7206 57.2841C19.7073 57.2841 19.6939 57.2841 19.6805 57.2841C19.6671 57.2841 19.6538 57.2841 19.6404 57.2841C19.627 57.2841 19.6137 57.2841 19.6003 57.2841C19.5869 57.2841 19.5736 57.2841 19.5602 57.2841C19.5469 57.2841 19.5335 57.2841 19.5202 57.2841C19.5068 57.2841 19.4935 57.2841 19.4801 57.2841C19.4668 57.2841 19.4535 57.2841 19.4401 57.2841C19.4268 57.2841 19.4135 57.2841 19.4001 57.2841C19.3868 57.2841 19.3735 57.2841 19.3601 57.2841C19.3468 57.2841 19.3335 57.2841 19.3202 57.2841C19.3069 57.2841 19.2936 57.2841 19.2803 57.2841C19.2669 57.2841 19.2536 57.2841 19.2403 57.2841C19.227 57.2841 19.2137 57.2841 19.2004 57.2841C19.1871 57.2841 19.1739 57.2841 19.1606 57.2841C19.1473 57.2841 19.134 57.2841 19.1207 57.2841C19.1074 57.2841 19.0942 57.2841 19.0809 57.2841C19.0676 57.2841 19.0543 57.2841 19.0411 57.2841C19.0278 57.2841 19.0145 57.2841 19.0013 57.2841C18.988 57.2841 18.9748 57.2841 18.9615 57.2841C18.9483 57.2841 18.935 57.2841 18.9218 57.2841C18.9085 57.2841 18.8953 57.2841 18.882 57.2841C18.8688 57.2841 18.8556 57.2841 18.8423 57.2841C18.8291 57.2841 18.8159 57.2841 18.8027 57.2841C18.7894 57.2841 18.7762 57.2841 18.763 57.2841C18.7498 57.2841 18.7366 57.2841 18.7234 57.2841C18.7102 57.2841 18.697 57.2841 18.6838 57.2841C18.6706 57.2841 18.6574 57.2841 18.6442 57.2841C18.631 57.2841 18.6178 57.2841 18.6046 57.2841C18.5914 57.2841 18.5783 57.2841 18.5651 57.2841C18.5519 57.2841 18.5387 57.2841 18.5256 57.2841C18.5124 57.2841 18.4992 57.2841 18.4861 57.2841C18.4729 57.2841 18.4598 57.2841 18.4466 57.2841C18.4335 57.2841 18.4203 57.2841 18.4072 57.2841C18.394 57.2841 18.3809 57.2841 18.3678 57.2841C18.3546 57.2841 18.3415 57.2841 18.3284 57.2841C18.3152 57.2841 18.3021 57.2841 18.289 57.2841C18.2759 57.2841 18.2628 57.2841 18.2497 57.2841C18.2365 57.2841 18.2234 57.2841 18.2103 57.2841C18.1972 57.2841 18.1841 57.2841 18.1711 57.2841C18.158 57.2841 18.1449 57.2841 18.1318 57.2841C18.1187 57.2841 18.1056 57.2841 18.0926 57.2841C18.0795 57.2841 18.0664 57.2841 18.0533 57.2841C18.0403 57.2841 18.0272 57.2841 18.0142 57.2841C18.0011 57.2841 17.988 57.2841 17.975 57.2841C17.9619 57.2841 17.9489 57.2841 17.9359 57.2841C17.9228 57.2841 17.9098 57.2841 17.8968 57.2841C17.8837 57.2841 17.8707 57.2841 17.8577 57.2841C17.8447 57.2841 17.8316 57.2841 17.8186 57.2841C17.8056 57.2841 17.7926 57.2841 17.7796 57.2841C17.7666 57.2841 17.7536 57.2841 17.7406 57.2841C17.7276 57.2841 17.7146 57.2841 17.7017 57.2841C17.6887 57.2841 17.6757 57.2841 17.6627 57.2841C17.6497 57.2841 17.6368 57.2841 17.6238 57.2841C17.6109 57.2841 17.5979 57.2841 17.5849 57.2841C17.572 57.2841 17.559 57.2841 17.5461 57.2841C17.5331 57.2841 17.5202 57.2841 17.5073 57.2841C17.4943 57.2841 17.4814 57.2841 17.4685 57.2841C17.4555 57.2841 17.4426 57.2841 17.4297 57.2841C17.4168 57.2841 17.4039 57.2841 17.391 57.2841C17.3781 57.2841 17.3652 57.2841 17.3523 57.2841C17.3394 57.2841 17.3265 57.2841 17.3136 57.2841C17.3007 57.2841 17.2878 57.2841 17.275 57.2841C17.2621 57.2841 17.2492 57.2841 17.2364 57.2841C17.2235 57.2841 17.2106 57.2841 17.1978 57.2841C17.1849 57.2841 17.1721 57.2841 17.1592 57.2841C17.1464 57.2841 17.1335 57.2841 17.1207 57.2841C17.1079 57.2841 17.095 57.2841 17.0822 57.2841C17.0694 57.2841 17.0566 57.2841 17.0438 57.2841C17.0309 57.2841 17.0181 57.2841 17.0053 57.2841C16.9925 57.2841 16.9797 57.2841 16.9669 57.2841C16.9542 57.2841 16.9414 57.2841 16.9286 57.2841C16.9158 57.2841 16.903 57.2841 16.8903 57.2841C16.8775 57.2841 16.8647 57.2841 16.852 57.2841C16.8392 57.2841 16.8264 57.2841 16.8137 57.2841C16.801 57.2841 16.7882 57.2841 16.7755 57.2841C16.7627 57.2841 16.75 57.2841 16.7373 57.2841C16.7245 57.2841 16.7118 57.2841 16.6991 57.2841C16.6864 57.2841 16.6737 57.2841 16.661 57.2841C16.6483 57.2841 16.6356 57.2841 16.6229 57.2841C16.6102 57.2841 16.5975 57.2841 16.5848 57.2841C16.5721 57.2841 16.5595 57.2841 16.5468 57.2841C16.5341 57.2841 16.5215 57.2841 16.5088 57.2841C16.4961 57.2841 16.4835 57.2841 16.4708 57.2841C16.4582 57.2841 16.4456 57.2841 16.4329 57.2841C16.4203 57.2841 16.4077 57.2841 16.395 57.2841C16.3824 57.2841 16.3698 57.2841 16.3572 57.2841C16.3446 57.2841 16.332 57.2841 16.3194 57.2841C16.3068 57.2841 16.2942 57.2841 16.2816 57.2841C16.269 57.2841 16.2564 57.2841 16.2438 57.2841C16.2313 57.2841 16.2187 57.2841 16.2061 57.2841C16.1936 57.2841 16.181 57.2841 16.1684 57.2841C16.1559 57.2841 16.1433 57.2841 16.1308 57.2841C16.1183 57.2841 16.1057 57.2841 16.0932 57.2841C16.0807 57.2841 16.0682 57.2841 16.0556 57.2841C16.0431 57.2841 16.0306 57.2841 16.0181 57.2841C16.0056 57.2841 15.9931 57.2841 15.9806 57.2841C15.9681 57.2841 15.9556 57.2841 15.9432 57.2841C15.9307 57.2841 15.9182 57.2841 15.9057 57.2841C15.8933 57.2841 15.8808 57.2841 15.8684 57.2841C15.8559 57.2841 15.8435 57.2841 15.831 57.2841C15.8186 57.2841 15.8061 57.2841 15.7937 57.2841C15.7813 57.2841 15.7689 57.2841 15.7565 57.2841C15.744 57.2841 15.7316 57.2841 15.7192 57.2841C15.7068 57.2841 15.6944 57.2841 15.682 57.2841C15.6697 57.2841 15.6573 57.2841 15.6449 57.2841C15.6325 57.2841 15.6201 57.2841 15.6078 57.2841C15.5954 57.2841 15.5831 57.2841 15.5707 57.2841C15.5584 57.2841 15.546 57.2841 15.5337 57.2841C15.5213 57.2841 15.509 57.2841 15.4967 57.2841C15.4844 57.2841 15.472 57.2841 15.4597 57.2841C15.4474 57.2841 15.4351 57.2841 15.4228 57.2841C15.4105 57.2841 15.3982 57.2841 15.386 57.2841C15.3737 57.2841 15.3614 57.2841 15.3491 57.2841C15.3369 57.2841 15.3246 57.2841 15.3123 57.2841C15.3001 57.2841 15.2878 57.2841 15.2756 57.2841C15.2633 57.2841 15.2511 57.2841 15.2389 57.2841C15.2267 57.2841 15.2144 57.2841 15.2022 57.2841C15.19 57.2841 15.1778 57.2841 15.1656 57.2841C15.1534 57.2841 15.1412 57.2841 15.129 57.2841C15.1168 57.2841 15.1046 57.2841 15.0925 57.2841C15.0803 57.2841 15.0681 57.2841 15.056 57.2841C15.0438 57.2841 15.0317 57.2841 15.0195 57.2841C15.0074 57.2841 14.9952 57.2841 14.9831 57.2841V58.7229C14.9952 58.7229 15.0074 58.7229 15.0195 58.7229C15.0317 58.7229 15.0438 58.7229 15.056 58.7229C15.0681 58.7229 15.0803 58.7229 15.0925 58.7229C15.1046 58.7229 15.1168 58.7229 15.129 58.7229C15.1412 58.7229 15.1534 58.7229 15.1656 58.7229C15.1778 58.7229 15.19 58.7229 15.2022 58.7229C15.2144 58.7229 15.2267 58.7229 15.2389 58.7229C15.2511 58.7229 15.2633 58.7229 15.2756 58.7229C15.2878 58.7229 15.3001 58.7229 15.3123 58.7229C15.3246 58.7229 15.3369 58.7229 15.3491 58.7229C15.3614 58.7229 15.3737 58.7229 15.386 58.7229C15.3982 58.7229 15.4105 58.7229 15.4228 58.7229C15.4351 58.7229 15.4474 58.7229 15.4597 58.7229C15.472 58.7229 15.4844 58.7229 15.4967 58.7229C15.509 58.7229 15.5213 58.7229 15.5337 58.7229C15.546 58.7229 15.5584 58.7229 15.5707 58.7229C15.5831 58.7229 15.5954 58.7229 15.6078 58.7229C15.6201 58.7229 15.6325 58.7229 15.6449 58.7229C15.6573 58.7229 15.6697 58.7229 15.682 58.7229C15.6944 58.7229 15.7068 58.7229 15.7192 58.7229C15.7316 58.7229 15.744 58.7229 15.7565 58.7229C15.7689 58.7229 15.7813 58.7229 15.7937 58.7229C15.8061 58.7229 15.8186 58.7229 15.831 58.7229C15.8435 58.7229 15.8559 58.7229 15.8684 58.7229C15.8808 58.7229 15.8933 58.7229 15.9057 58.7229C15.9182 58.7229 15.9307 58.7229 15.9432 58.7229C15.9556 58.7229 15.9681 58.7229 15.9806 58.7229C15.9931 58.7229 16.0056 58.7229 16.0181 58.7229C16.0306 58.7229 16.0431 58.7229 16.0556 58.7229C16.0682 58.7229 16.0807 58.7229 16.0932 58.7229C16.1057 58.7229 16.1183 58.7229 16.1308 58.7229C16.1433 58.7229 16.1559 58.7229 16.1684 58.7229C16.181 58.7229 16.1936 58.7229 16.2061 58.7229C16.2187 58.7229 16.2313 58.7229 16.2438 58.7229C16.2564 58.7229 16.269 58.7229 16.2816 58.7229C16.2942 58.7229 16.3068 58.7229 16.3194 58.7229C16.332 58.7229 16.3446 58.7229 16.3572 58.7229C16.3698 58.7229 16.3824 58.7229 16.395 58.7229C16.4077 58.7229 16.4203 58.7229 16.4329 58.7229C16.4456 58.7229 16.4582 58.7229 16.4708 58.7229C16.4835 58.7229 16.4961 58.7229 16.5088 58.7229C16.5215 58.7229 16.5341 58.7229 16.5468 58.7229C16.5595 58.7229 16.5721 58.7229 16.5848 58.7229C16.5975 58.7229 16.6102 58.7229 16.6229 58.7229C16.6356 58.7229 16.6483 58.7229 16.661 58.7229C16.6737 58.7229 16.6864 58.7229 16.6991 58.7229C16.7118 58.7229 16.7245 58.7229 16.7373 58.7229C16.75 58.7229 16.7627 58.7229 16.7755 58.7229C16.7882 58.7229 16.801 58.7229 16.8137 58.7229C16.8264 58.7229 16.8392 58.7229 16.852 58.7229C16.8647 58.7229 16.8775 58.7229 16.8903 58.7229C16.903 58.7229 16.9158 58.7229 16.9286 58.7229C16.9414 58.7229 16.9542 58.7229 16.9669 58.7229C16.9797 58.7229 16.9925 58.7229 17.0053 58.7229C17.0181 58.7229 17.0309 58.7229 17.0438 58.7229C17.0566 58.7229 17.0694 58.7229 17.0822 58.7229C17.095 58.7229 17.1079 58.7229 17.1207 58.7229C17.1335 58.7229 17.1464 58.7229 17.1592 58.7229C17.1721 58.7229 17.1849 58.7229 17.1978 58.7229C17.2106 58.7229 17.2235 58.7229 17.2364 58.7229C17.2492 58.7229 17.2621 58.7229 17.275 58.7229C17.2878 58.7229 17.3007 58.7229 17.3136 58.7229C17.3265 58.7229 17.3394 58.7229 17.3523 58.7229C17.3652 58.7229 17.3781 58.7229 17.391 58.7229C17.4039 58.7229 17.4168 58.7229 17.4297 58.7229C17.4426 58.7229 17.4555 58.7229 17.4685 58.7229C17.4814 58.7229 17.4943 58.7229 17.5073 58.7229C17.5202 58.7229 17.5331 58.7229 17.5461 58.7229C17.559 58.7229 17.572 58.7229 17.5849 58.7229C17.5979 58.7229 17.6109 58.7229 17.6238 58.7229C17.6368 58.7229 17.6497 58.7229 17.6627 58.7229C17.6757 58.7229 17.6887 58.7229 17.7017 58.7229C17.7146 58.7229 17.7276 58.7229 17.7406 58.7229C17.7536 58.7229 17.7666 58.7229 17.7796 58.7229C17.7926 58.7229 17.8056 58.7229 17.8186 58.7229C17.8316 58.7229 17.8447 58.7229 17.8577 58.7229C17.8707 58.7229 17.8837 58.7229 17.8968 58.7229C17.9098 58.7229 17.9228 58.7229 17.9359 58.7229C17.9489 58.7229 17.9619 58.7229 17.975 58.7229C17.988 58.7229 18.0011 58.7229 18.0142 58.7229C18.0272 58.7229 18.0403 58.7229 18.0533 58.7229C18.0664 58.7229 18.0795 58.7229 18.0926 58.7229C18.1056 58.7229 18.1187 58.7229 18.1318 58.7229C18.1449 58.7229 18.158 58.7229 18.1711 58.7229C18.1841 58.7229 18.1972 58.7229 18.2103 58.7229C18.2234 58.7229 18.2365 58.7229 18.2497 58.7229C18.2628 58.7229 18.2759 58.7229 18.289 58.7229C18.3021 58.7229 18.3152 58.7229 18.3284 58.7229C18.3415 58.7229 18.3546 58.7229 18.3678 58.7229C18.3809 58.7229 18.394 58.7229 18.4072 58.7229C18.4203 58.7229 18.4335 58.7229 18.4466 58.7229C18.4598 58.7229 18.4729 58.7229 18.4861 58.7229C18.4992 58.7229 18.5124 58.7229 18.5256 58.7229C18.5387 58.7229 18.5519 58.7229 18.5651 58.7229C18.5783 58.7229 18.5914 58.7229 18.6046 58.7229C18.6178 58.7229 18.631 58.7229 18.6442 58.7229C18.6574 58.7229 18.6706 58.7229 18.6838 58.7229C18.697 58.7229 18.7102 58.7229 18.7234 58.7229C18.7366 58.7229 18.7498 58.7229 18.763 58.7229C18.7762 58.7229 18.7894 58.7229 18.8027 58.7229C18.8159 58.7229 18.8291 58.7229 18.8423 58.7229C18.8556 58.7229 18.8688 58.7229 18.882 58.7229C18.8953 58.7229 18.9085 58.7229 18.9218 58.7229C18.935 58.7229 18.9483 58.7229 18.9615 58.7229C18.9748 58.7229 18.988 58.7229 19.0013 58.7229C19.0145 58.7229 19.0278 58.7229 19.0411 58.7229C19.0543 58.7229 19.0676 58.7229 19.0809 58.7229C19.0942 58.7229 19.1074 58.7229 19.1207 58.7229C19.134 58.7229 19.1473 58.7229 19.1606 58.7229C19.1739 58.7229 19.1871 58.7229 19.2004 58.7229C19.2137 58.7229 19.227 58.7229 19.2403 58.7229C19.2536 58.7229 19.2669 58.7229 19.2803 58.7229C19.2936 58.7229 19.3069 58.7229 19.3202 58.7229C19.3335 58.7229 19.3468 58.7229 19.3601 58.7229C19.3735 58.7229 19.3868 58.7229 19.4001 58.7229C19.4135 58.7229 19.4268 58.7229 19.4401 58.7229C19.4535 58.7229 19.4668 58.7229 19.4801 58.7229C19.4935 58.7229 19.5068 58.7229 19.5202 58.7229C19.5335 58.7229 19.5469 58.7229 19.5602 58.7229C19.5736 58.7229 19.5869 58.7229 19.6003 58.7229C19.6137 58.7229 19.627 58.7229 19.6404 58.7229C19.6538 58.7229 19.6671 58.7229 19.6805 58.7229C19.6939 58.7229 19.7073 58.7229 19.7206 58.7229C19.734 58.7229 19.7474 58.7229 19.7608 58.7229C19.7742 58.7229 19.7876 58.7229 19.801 58.7229C19.8143 58.7229 19.8277 58.7229 19.8411 58.7229C19.8545 58.7229 19.8679 58.7229 19.8813 58.7229C19.8947 58.7229 19.9081 58.7229 19.9216 58.7229C19.935 58.7229 19.9484 58.7229 19.9618 58.7229C19.9752 58.7229 19.9886 58.7229 20.002 58.7229C20.0155 58.7229 20.0289 58.7229 20.0423 58.7229C20.0557 58.7229 20.0692 58.7229 20.0826 58.7229C20.096 58.7229 20.1095 58.7229 20.1229 58.7229C20.1363 58.7229 20.1498 58.7229 20.1632 58.7229C20.1767 58.7229 20.1901 58.7229 20.2036 58.7229C20.217 58.7229 20.2305 58.7229 20.2439 58.7229C20.2574 58.7229 20.2708 58.7229 20.2843 58.7229C20.2977 58.7229 20.3112 58.7229 20.3247 58.7229C20.3381 58.7229 20.3516 58.7229 20.3651 58.7229C20.3785 58.7229 20.392 58.7229 20.4055 58.7229C20.4189 58.7229 20.4324 58.7229 20.4459 58.7229C20.4594 58.7229 20.4729 58.7229 20.4863 58.7229C20.4998 58.7229 20.5133 58.7229 20.5268 58.7229C20.5403 58.7229 20.5538 58.7229 20.5673 58.7229C20.5808 58.7229 20.5943 58.7229 20.6078 58.7229C20.6212 58.7229 20.6347 58.7229 20.6482 58.7229C20.6618 58.7229 20.6753 58.7229 20.6888 58.7229C20.7023 58.7229 20.7158 58.7229 20.7293 58.7229C20.7428 58.7229 20.7563 58.7229 20.7698 58.7229C20.7833 58.7229 20.7969 58.7229 20.8104 58.7229C20.8239 58.7229 20.8374 58.7229 20.8509 58.7229C20.8645 58.7229 20.878 58.7229 20.8915 58.7229C20.9051 58.7229 20.9186 58.7229 20.9321 58.7229C20.9456 58.7229 20.9592 58.7229 20.9727 58.7229C20.9863 58.7229 20.9998 58.7229 21.0133 58.7229C21.0269 58.7229 21.0404 58.7229 21.054 58.7229C21.0675 58.7229 21.081 58.7229 21.0946 58.7229C21.1081 58.7229 21.1217 58.7229 21.1352 58.7229C21.1488 58.7229 21.1623 58.7229 21.1759 58.7229C21.1895 58.7229 21.203 58.7229 21.2166 58.7229C21.2301 58.7229 21.2437 58.7229 21.2573 58.7229C21.2708 58.7229 21.2844 58.7229 21.298 58.7229C21.3115 58.7229 21.3251 58.7229 21.3387 58.7229C21.3522 58.7229 21.3658 58.7229 21.3794 58.7229C21.3929 58.7229 21.4065 58.7229 21.4201 58.7229C21.4337 58.7229 21.4473 58.7229 21.4608 58.7229C21.4744 58.7229 21.488 58.7229 21.5016 58.7229C21.5152 58.7229 21.5287 58.7229 21.5423 58.7229C21.5559 58.7229 21.5695 58.7229 21.5831 58.7229C21.5967 58.7229 21.6103 58.7229 21.6239 58.7229C21.6375 58.7229 21.651 58.7229 21.6646 58.7229C21.6782 58.7229 21.6918 58.7229 21.7054 58.7229C21.719 58.7229 21.7326 58.7229 21.7462 58.7229C21.7598 58.7229 21.7734 58.7229 21.787 58.7229C21.8006 58.7229 21.8142 58.7229 21.8279 58.7229C21.8415 58.7229 21.8551 58.7229 21.8687 58.7229C21.8823 58.7229 21.8959 58.7229 21.9095 58.7229C21.9231 58.7229 21.9367 58.7229 21.9503 58.7229C21.964 58.7229 21.9776 58.7229 21.9912 58.7229C22.0048 58.7229 22.0184 58.7229 22.032 58.7229C22.0457 58.7229 22.0593 58.7229 22.0729 58.7229C22.0865 58.7229 22.1001 58.7229 22.1138 58.7229C22.1274 58.7229 22.141 58.7229 22.1546 58.7229C22.1683 58.7229 22.1819 58.7229 22.1955 58.7229C22.2091 58.7229 22.2228 58.7229 22.2364 58.7229C22.25 58.7229 22.2637 58.7229 22.2773 58.7229C22.2909 58.7229 22.3046 58.7229 22.3182 58.7229C22.3318 58.7229 22.3455 58.7229 22.3591 58.7229C22.3727 58.7229 22.3864 58.7229 22.4 58.7229C22.4136 58.7229 22.4273 58.7229 22.4409 58.7229C22.4545 58.7229 22.4682 58.7229 22.4818 58.7229C22.4955 58.7229 22.5091 58.7229 22.5227 58.7229C22.5364 58.7229 22.55 58.7229 22.5637 58.7229C22.5773 58.7229 22.591 58.7229 22.6046 58.7229C22.6182 58.7229 22.6319 58.7229 22.6455 58.7229C22.6592 58.7229 22.6728 58.7229 22.6865 58.7229C22.7001 58.7229 22.7138 58.7229 22.7274 58.7229C22.7411 58.7229 22.7547 58.7229 22.7684 58.7229C22.782 58.7229 22.7957 58.7229 22.8093 58.7229C22.823 58.7229 22.8366 58.7229 22.8503 58.7229C22.8639 58.7229 22.8776 58.7229 22.8912 58.7229C22.9049 58.7229 22.9185 58.7229 22.9322 58.7229C22.9458 58.7229 22.9595 58.7229 22.9731 58.7229C22.9868 58.7229 23.0004 58.7229 23.0141 58.7229C23.0278 58.7229 23.0414 58.7229 23.0551 58.7229C23.0687 58.7229 23.0824 58.7229 23.096 58.7229C23.1097 58.7229 23.1233 58.7229 23.137 58.7229C23.1507 58.7229 23.1643 58.7229 23.178 58.7229C23.1916 58.7229 23.2053 58.7229 23.2189 58.7229C23.2326 58.7229 23.2463 58.7229 23.2599 58.7229C23.2736 58.7229 23.2872 58.7229 23.3009 58.7229C23.3146 58.7229 23.3282 58.7229 23.3419 58.7229C23.3555 58.7229 23.3692 58.7229 23.3828 58.7229C23.3965 58.7229 23.4102 58.7229 23.4238 58.7229C23.4375 58.7229 23.4511 58.7229 23.4648 58.7229C23.4785 58.7229 23.4921 58.7229 23.5058 58.7229C23.5194 58.7229 23.5331 58.7229 23.5467 58.7229C23.5604 58.7229 23.5741 58.7229 23.5877 58.7229C23.6014 58.7229 23.615 58.7229 23.6287 58.7229C23.6424 58.7229 23.656 58.7229 23.6697 58.7229C23.6833 58.7229 23.697 58.7229 23.7106 58.7229C23.7243 58.7229 23.738 58.7229 23.7516 58.7229C23.7653 58.7229 23.7789 58.7229 23.7926 58.7229C23.8062 58.7229 23.8199 58.7229 23.8336 58.7229C23.8472 58.7229 23.8609 58.7229 23.8745 58.7229C23.8882 58.7229 23.9018 58.7229 23.9155 58.7229C23.9291 58.7229 23.9428 58.7229 23.9564 58.7229C23.9701 58.7229 23.9838 58.7229 23.9974 58.7229C24.0111 58.7229 24.0247 58.7229 24.0384 58.7229C24.052 58.7229 24.0657 58.7229 24.0793 58.7229C24.093 58.7229 24.1066 58.7229 24.1203 58.7229C24.1339 58.7229 24.1476 58.7229 24.1612 58.7229C24.1749 58.7229 24.1885 58.7229 24.2022 58.7229C24.2158 58.7229 24.2295 58.7229 24.2431 58.7229C24.2567 58.7229 24.2704 58.7229 24.284 58.7229C24.2977 58.7229 24.3113 58.7229 24.325 58.7229C24.3386 58.7229 24.3523 58.7229 24.3659 58.7229C24.3795 58.7229 24.3932 58.7229 24.4068 58.7229C24.4205 58.7229 24.4341 58.7229 24.4477 58.7229C24.4614 58.7229 24.475 58.7229 24.4887 58.7229C24.5023 58.7229 24.5159 58.7229 24.5296 58.7229C24.5432 58.7229 24.5568 58.7229 24.5705 58.7229C24.5841 58.7229 24.5977 58.7229 24.6114 58.7229C24.625 58.7229 24.6386 58.7229 24.6523 58.7229C24.6659 58.7229 24.6795 58.7229 24.6932 58.7229C24.7068 58.7229 24.7204 58.7229 24.734 58.7229C24.7477 58.7229 24.7613 58.7229 24.7749 58.7229C24.7885 58.7229 24.8022 58.7229 24.8158 58.7229C24.8294 58.7229 24.843 58.7229 24.8566 58.7229C24.8703 58.7229 24.8839 58.7229 24.8975 58.7229C24.9111 58.7229 24.9247 58.7229 24.9384 58.7229C24.952 58.7229 24.9656 58.7229 24.9792 58.7229C24.9928 58.7229 25.0064 58.7229 25.02 58.7229C25.0336 58.7229 25.0472 58.7229 25.0609 58.7229C25.0745 58.7229 25.0881 58.7229 25.1017 58.7229C25.1153 58.7229 25.1289 58.7229 25.1425 58.7229C25.1561 58.7229 25.1697 58.7229 25.1833 58.7229C25.1969 58.7229 25.2105 58.7229 25.2241 58.7229C25.2377 58.7229 25.2513 58.7229 25.2649 58.7229C25.2785 58.7229 25.2921 58.7229 25.3056 58.7229C25.3192 58.7229 25.3328 58.7229 25.3464 58.7229C25.36 58.7229 25.3736 58.7229 25.3872 58.7229C25.4008 58.7229 25.4143 58.7229 25.4279 58.7229C25.4415 58.7229 25.4551 58.7229 25.4687 58.7229C25.4822 58.7229 25.4958 58.7229 25.5094 58.7229C25.523 58.7229 25.5365 58.7229 25.5501 58.7229C25.5637 58.7229 25.5773 58.7229 25.5908 58.7229C25.6044 58.7229 25.618 58.7229 25.6315 58.7229C25.6451 58.7229 25.6587 58.7229 25.6722 58.7229C25.6858 58.7229 25.6993 58.7229 25.7129 58.7229C25.7264 58.7229 25.74 58.7229 25.7536 58.7229C25.7671 58.7229 25.7807 58.7229 25.7942 58.7229C25.8078 58.7229 25.8213 58.7229 25.8349 58.7229C25.8484 58.7229 25.8619 58.7229 25.8755 58.7229C25.889 58.7229 25.9026 58.7229 25.9161 58.7229C25.9297 58.7229 25.9432 58.7229 25.9567 58.7229C25.9703 58.7229 25.9838 58.7229 25.9973 58.7229C26.0109 58.7229 26.0244 58.7229 26.0379 58.7229C26.0514 58.7229 26.065 58.7229 26.0785 58.7229C26.092 58.7229 26.1055 58.7229 26.119 58.7229C26.1326 58.7229 26.1461 58.7229 26.1596 58.7229C26.1731 58.7229 26.1866 58.7229 26.2001 58.7229C26.2136 58.7229 26.2271 58.7229 26.2406 58.7229C26.2541 58.7229 26.2676 58.7229 26.2811 58.7229C26.2946 58.7229 26.3081 58.7229 26.3216 58.7229C26.3351 58.7229 26.3486 58.7229 26.3621 58.7229C26.3756 58.7229 26.3891 58.7229 26.4026 58.7229C26.4161 58.7229 26.4296 58.7229 26.443 58.7229C26.4565 58.7229 26.47 58.7229 26.4835 58.7229C26.4969 58.7229 26.5104 58.7229 26.5239 58.7229C26.5374 58.7229 26.5508 58.7229 26.5643 58.7229C26.5778 58.7229 26.5912 58.7229 26.6047 58.7229C26.6182 58.7229 26.6316 58.7229 26.6451 58.7229C26.6585 58.7229 26.672 58.7229 26.6854 58.7229C26.6989 58.7229 26.7123 58.7229 26.7258 58.7229C26.7392 58.7229 26.7527 58.7229 26.7661 58.7229C26.7795 58.7229 26.793 58.7229 26.8064 58.7229C26.8198 58.7229 26.8333 58.7229 26.8467 58.7229C26.8601 58.7229 26.8736 58.7229 26.887 58.7229C26.9004 58.7229 26.9138 58.7229 26.9273 58.7229C26.9407 58.7229 26.9541 58.7229 26.9675 58.7229C26.9809 58.7229 26.9943 58.7229 27.0077 58.7229C27.0211 58.7229 27.0345 58.7229 27.0479 58.7229C27.0613 58.7229 27.0747 58.7229 27.0881 58.7229C27.1015 58.7229 27.1149 58.7229 27.1283 58.7229C27.1417 58.7229 27.1551 58.7229 27.1685 58.7229C27.1819 58.7229 27.1952 58.7229 27.2086 58.7229C27.222 58.7229 27.2354 58.7229 27.2487 58.7229C27.2621 58.7229 27.2755 58.7229 27.2888 58.7229C27.3022 58.7229 27.3156 58.7229 27.3289 58.7229C27.3423 58.7229 27.3556 58.7229 27.369 58.7229C27.3823 58.7229 27.3957 58.7229 27.409 58.7229C27.4224 58.7229 27.4357 58.7229 27.4491 58.7229C27.4624 58.7229 27.4757 58.7229 27.4891 58.7229C27.5024 58.7229 27.5157 58.7229 27.5291 58.7229C27.5424 58.7229 27.5557 58.7229 27.569 58.7229C27.5823 58.7229 27.5957 58.7229 27.609 58.7229C27.6223 58.7229 27.6356 58.7229 27.6489 58.7229C27.6622 58.7229 27.6755 58.7229 27.6888 58.7229C27.7021 58.7229 27.7154 58.7229 27.7287 58.7229C27.742 58.7229 27.7553 58.7229 27.7686 58.7229C27.7818 58.7229 27.7951 58.7229 27.8084 58.7229C27.8217 58.7229 27.835 58.7229 27.8482 58.7229C27.8615 58.7229 27.8748 58.7229 27.888 58.7229C27.9013 58.7229 27.9146 58.7229 27.9278 58.7229C27.9411 58.7229 27.9543 58.7229 27.9676 58.7229C27.9808 58.7229 27.9941 58.7229 28.0073 58.7229C28.0205 58.7229 28.0338 58.7229 28.047 58.7229C28.0603 58.7229 28.0735 58.7229 28.0867 58.7229C28.0999 58.7229 28.1132 58.7229 28.1264 58.7229C28.1396 58.7229 28.1528 58.7229 28.166 58.7229C28.1792 58.7229 28.1924 58.7229 28.2057 58.7229C28.2189 58.7229 28.2321 58.7229 28.2453 58.7229C28.2584 58.7229 28.2716 58.7229 28.2848 58.7229C28.298 58.7229 28.3112 58.7229 28.3244 58.7229C28.3376 58.7229 28.3507 58.7229 28.3639 58.7229C28.3771 58.7229 28.3902 58.7229 28.4034 58.7229C28.4166 58.7229 28.4297 58.7229 28.4429 58.7229C28.4561 58.7229 28.4692 58.7229 28.4824 58.7229C28.4955 58.7229 28.5086 58.7229 28.5218 58.7229C28.5349 58.7229 28.5481 58.7229 28.5612 58.7229C28.5743 58.7229 28.5874 58.7229 28.6006 58.7229C28.6137 58.7229 28.6268 58.7229 28.6399 58.7229C28.653 58.7229 28.6661 58.7229 28.6793 58.7229C28.6924 58.7229 28.7055 58.7229 28.7186 58.7229C28.7317 58.7229 28.7448 58.7229 28.7578 58.7229C28.7709 58.7229 28.784 58.7229 28.7971 58.7229C28.8102 58.7229 28.8232 58.7229 28.8363 58.7229C28.8494 58.7229 28.8625 58.7229 28.8755 58.7229C28.8886 58.7229 28.9016 58.7229 28.9147 58.7229C28.9277 58.7229 28.9408 58.7229 28.9538 58.7229C28.9669 58.7229 28.9799 58.7229 28.993 58.7229C29.006 58.7229 29.019 58.7229 29.0321 58.7229C29.0451 58.7229 29.0581 58.7229 29.0711 58.7229C29.0841 58.7229 29.0971 58.7229 29.1102 58.7229C29.1232 58.7229 29.1362 58.7229 29.1492 58.7229C29.1622 58.7229 29.1752 58.7229 29.1881 58.7229C29.2011 58.7229 29.2141 58.7229 29.2271 58.7229C29.2401 58.7229 29.2531 58.7229 29.266 58.7229C29.279 58.7229 29.292 58.7229 29.3049 58.7229C29.3179 58.7229 29.3308 58.7229 29.3438 58.7229C29.3567 58.7229 29.3697 58.7229 29.3826 58.7229C29.3956 58.7229 29.4085 58.7229 29.4214 58.7229C29.4344 58.7229 29.4473 58.7229 29.4602 58.7229C29.4731 58.7229 29.486 58.7229 29.499 58.7229C29.5119 58.7229 29.5248 58.7229 29.5377 58.7229C29.5506 58.7229 29.5635 58.7229 29.5764 58.7229C29.5893 58.7229 29.6021 58.7229 29.615 58.7229C29.6279 58.7229 29.6408 58.7229 29.6537 58.7229C29.6665 58.7229 29.6794 58.7229 29.6923 58.7229C29.7051 58.7229 29.718 58.7229 29.7308 58.7229C29.7437 58.7229 29.7565 58.7229 29.7694 58.7229C29.7822 58.7229 29.795 58.7229 29.8079 58.7229C29.8207 58.7229 29.8335 58.7229 29.8463 58.7229C29.8592 58.7229 29.872 58.7229 29.8848 58.7229C29.8976 58.7229 29.9104 58.7229 29.9232 58.7229C29.936 58.7229 29.9488 58.7229 29.9616 58.7229C29.9744 58.7229 29.9871 58.7229 29.9999 58.7229C30.0127 58.7229 30.0255 58.7229 30.0382 58.7229C30.051 58.7229 30.0638 58.7229 30.0765 58.7229C30.0893 58.7229 30.102 58.7229 30.1148 58.7229C30.1275 58.7229 30.1402 58.7229 30.153 58.7229C30.1657 58.7229 30.1784 58.7229 30.1912 58.7229C30.2039 58.7229 30.2166 58.7229 30.2293 58.7229C30.242 58.7229 30.2547 58.7229 30.2674 58.7229C30.2801 58.7229 30.2928 58.7229 30.3055 58.7229C30.3182 58.7229 30.3309 58.7229 30.3436 58.7229C30.3562 58.7229 30.3689 58.7229 30.3816 58.7229C30.3942 58.7229 30.4069 58.7229 30.4195 58.7229C30.4322 58.7229 30.4449 58.7229 30.4575 58.7229C30.4701 58.7229 30.4828 58.7229 30.4954 58.7229C30.508 58.7229 30.5207 58.7229 30.5333 58.7229C30.5459 58.7229 30.5585 58.7229 30.5711 58.7229C30.5837 58.7229 30.5963 58.7229 30.6089 58.7229C30.6215 58.7229 30.6341 58.7229 30.6467 58.7229C30.6593 58.7229 30.6719 58.7229 30.6844 58.7229C30.697 58.7229 30.7096 58.7229 30.7221 58.7229C30.7347 58.7229 30.7472 58.7229 30.7598 58.7229C30.7723 58.7229 30.7849 58.7229 30.7974 58.7229C30.8099 58.7229 30.8225 58.7229 30.835 58.7229C30.8475 58.7229 30.86 58.7229 30.8725 58.7229C30.8851 58.7229 30.8976 58.7229 30.9101 58.7229C30.9226 58.7229 30.935 58.7229 30.9475 58.7229C30.96 58.7229 30.9725 58.7229 30.985 58.7229C30.9974 58.7229 31.0099 58.7229 31.0224 58.7229C31.0348 58.7229 31.0473 58.7229 31.0597 58.7229C31.0722 58.7229 31.0846 58.7229 31.0971 58.7229C31.1095 58.7229 31.1219 58.7229 31.1343 58.7229C31.1468 58.7229 31.1592 58.7229 31.1716 58.7229C31.184 58.7229 31.1964 58.7229 31.2088 58.7229C31.2212 58.7229 31.2336 58.7229 31.246 58.7229C31.2584 58.7229 31.2707 58.7229 31.2831 58.7229C31.2955 58.7229 31.3078 58.7229 31.3202 58.7229C31.3326 58.7229 31.3449 58.7229 31.3573 58.7229C31.3696 58.7229 31.3819 58.7229 31.3943 58.7229C31.4066 58.7229 31.4189 58.7229 31.4313 58.7229C31.4436 58.7229 31.4559 58.7229 31.4682 58.7229C31.4805 58.7229 31.4928 58.7229 31.5051 58.7229C31.5174 58.7229 31.5297 58.7229 31.5419 58.7229C31.5542 58.7229 31.5665 58.7229 31.5788 58.7229C31.591 58.7229 31.6033 58.7229 31.6155 58.7229C31.6278 58.7229 31.64 58.7229 31.6523 58.7229C31.6645 58.7229 31.6767 58.7229 31.6889 58.7229C31.7012 58.7229 31.7134 58.7229 31.7256 58.7229C31.7378 58.7229 31.75 58.7229 31.7622 58.7229C31.7744 58.7229 31.7866 58.7229 31.7988 58.7229C31.811 58.7229 31.8231 58.7229 31.8353 58.7229C31.8475 58.7229 31.8596 58.7229 31.8718 58.7229C31.8839 58.7229 31.8961 58.7229 31.9082 58.7229C31.9204 58.7229 31.9325 58.7229 31.9446 58.7229C31.9567 58.7229 31.9689 58.7229 31.981 58.7229C31.9931 58.7229 32.0052 58.7229 32.0173 58.7229C32.0294 58.7229 32.0415 58.7229 32.0535 58.7229C32.0656 58.7229 32.0777 58.7229 32.0898 58.7229C32.1018 58.7229 32.1139 58.7229 32.126 58.7229C32.138 58.7229 32.1501 58.7229 32.1621 58.7229C32.1741 58.7229 32.1862 58.7229 32.1982 58.7229C32.2102 58.7229 32.2222 58.7229 32.2342 58.7229C32.2462 58.7229 32.2582 58.7229 32.2702 58.7229C32.2822 58.7229 32.2942 58.7229 32.3062 58.7229C32.3182 58.7229 32.3302 58.7229 32.3421 58.7229C32.3541 58.7229 32.366 58.7229 32.378 58.7229C32.3899 58.7229 32.4019 58.7229 32.4138 58.7229C32.4258 58.7229 32.4377 58.7229 32.4496 58.7229C32.4615 58.7229 32.4734 58.7229 32.4853 58.7229C32.4972 58.7229 32.5091 58.7229 32.521 58.7229C32.5329 58.7229 32.5448 58.7229 32.5567 58.7229C32.5685 58.7229 32.5804 58.7229 32.5923 58.7229C32.6041 58.7229 32.616 58.7229 32.6278 58.7229C32.6397 58.7229 32.6515 58.7229 32.6633 58.7229C32.6751 58.7229 32.687 58.7229 32.6988 58.7229C32.7106 58.7229 32.7224 58.7229 32.7342 58.7229C32.746 58.7229 32.7578 58.7229 32.7696 58.7229C32.7813 58.7229 32.7931 58.7229 32.8049 58.7229C32.8166 58.7229 32.8284 58.7229 32.8401 58.7229C32.8519 58.7229 32.8636 58.7229 32.8754 58.7229C32.8871 58.7229 32.8988 58.7229 32.9105 58.7229C32.9223 58.7229 32.934 58.7229 32.9457 58.7229C32.9574 58.7229 32.9691 58.7229 32.9807 58.7229C32.9924 58.7229 33.0041 58.7229 33.0158 58.7229C33.0274 58.7229 33.0391 58.7229 33.0507 58.7229C33.0624 58.7229 33.074 58.7229 33.0857 58.7229C33.0973 58.7229 33.1089 58.7229 33.1206 58.7229C33.1322 58.7229 33.1438 58.7229 33.1554 58.7229C33.167 58.7229 33.1786 58.7229 33.1902 58.7229C33.2018 58.7229 33.2133 58.7229 33.2249 58.7229C33.2365 58.7229 33.248 58.7229 33.2596 58.7229C33.2711 58.7229 33.2827 58.7229 33.2942 58.7229C33.3556 58.7229 33.302 58.7229 33.3633 58.7229C33.3748 58.7229 33.3863 58.7229 33.3978 58.7229C33.4093 58.7229 33.4208 58.7229 33.4323 58.7229C33.4437 58.7229 33.4552 58.7229 33.4666 58.7229C33.4781 58.7229 33.4895 58.7229 33.501 58.7229C33.5124 58.7229 33.5238 58.7229 33.5352 58.7229C33.5467 58.7229 33.5581 58.7229 33.5695 58.7229C33.5809 58.7229 33.5923 58.7229 33.6036 58.7229C33.615 58.7229 33.6264 58.7229 33.6378 58.7229C33.6491 58.7229 33.6605 58.7229 33.6718 58.7229C33.6832 58.7229 33.6945 58.7229 33.7058 58.7229C33.7172 58.7229 33.7285 58.7229 33.7398 58.7229C33.7511 58.7229 33.7624 58.7229 33.7737 58.7229C33.785 58.7229 33.7963 58.7229 33.8076 58.7229C33.8189 58.7229 33.8301 58.7229 33.8414 58.7229C33.8526 58.7229 33.8639 58.7229 33.8751 58.7229C33.8864 58.7229 33.8976 58.7229 33.9088 58.7229C33.9201 58.7229 33.9313 58.7229 33.9425 58.7229C33.9537 58.7229 33.9649 58.7229 33.9761 58.7229C33.9873 58.7229 33.9984 58.7229 34.0096 58.7229C34.0208 58.7229 34.0319 58.7229 34.0431 58.7229C34.0542 58.7229 34.0654 58.7229 34.0765 58.7229C34.0876 58.7229 34.0988 58.7229 34.1099 58.7229C34.121 58.7229 34.1321 58.7229 34.1432 58.7229C34.1543 58.7229 34.1654 58.7229 34.1765 58.7229C34.1875 58.7229 34.1986 58.7229 34.2097 58.7229C34.2207 58.7229 34.2318 58.7229 34.2428 58.7229C34.2539 58.7229 34.2649 58.7229 34.2759 58.7229C34.2869 58.7229 34.2979 58.7229 34.3089 58.7229C34.3199 58.7229 34.3309 58.7229 34.3419 58.7229C34.3529 58.7229 34.3639 58.7229 34.3748 58.7229C34.3858 58.7229 34.3968 58.7229 34.4077 58.7229C34.4187 58.7229 34.4296 58.7229 34.4405 58.7229C34.4515 58.7229 34.4624 58.7229 34.4733 58.7229C34.4842 58.7229 34.4951 58.7229 34.506 58.7229C34.5169 58.7229 34.5278 58.7229 34.5386 58.7229C34.5495 58.7229 34.5604 58.7229 34.5712 58.7229C34.5821 58.7229 34.5929 58.7229 34.6037 58.7229C34.6146 58.7229 34.6254 58.7229 34.6362 58.7229C34.647 58.7229 34.6578 58.7229 34.6686 58.7229C34.6794 58.7229 34.6902 58.7229 34.701 58.7229C34.7117 58.7229 34.7225 58.7229 34.7332 58.7229C34.744 58.7229 34.7547 58.7229 34.7655 58.7229V57.2841ZM10.9373 55.2271C9.40162 52.1744 8.9954 48.0793 8.99286 44.6813L7.55401 44.6823C7.55659 48.1357 7.96013 52.5107 9.65198 55.8737L10.9373 55.2271ZM14.6969 39.3884H34.7203V37.9495H14.6969V39.3884ZM14.9831 57.2841C13.2197 57.2841 11.6273 56.5985 10.9373 55.2271L9.65198 55.8737C10.6804 57.918 12.923 58.7229 14.9831 58.7229V57.2841ZM38.7181 55.2093C38.0954 56.5892 36.531 57.2841 34.7655 57.2841V58.7229C36.8234 58.7229 39.0795 57.9064 40.0296 55.8012L38.7181 55.2093ZM41.9746 45.0417C42.088 40.9772 38.6796 37.9495 34.7203 37.9495V39.3884C37.978 39.3884 40.6242 41.8519 40.5363 45.0016L41.9746 45.0417ZM8.99286 44.6813C8.99062 41.6724 11.5625 39.3884 14.6969 39.3884V37.9495C10.8958 37.9495 7.55109 40.7558 7.55401 44.6823L8.99286 44.6813Z" fill="#150C0C" mask="url(#path-2-inside-1_0_2099)"/>
<mask id="path-4-inside-2_0_2099" fill="white">
<path fill-rule="evenodd" clip-rule="evenodd" d="M21.2275 38.9995C21.2299 38.9415 21.2368 38.8832 21.248 38.8253C21.7809 36.0778 21.7809 32.4639 21.7809 32.4639H28.6411C28.6411 32.4639 28.6411 36.0778 29.174 38.8253C29.211 39.0156 29.2003 39.2102 29.1407 39.3867C28.051 39.9066 26.8312 40.1977 25.5434 40.1977C23.9643 40.1977 22.4875 39.7601 21.2275 38.9995Z"/>
</mask>
<path fill-rule="evenodd" clip-rule="evenodd" d="M21.2275 38.9995C21.2299 38.9415 21.2368 38.8832 21.248 38.8253C21.7809 36.0778 21.7809 32.4639 21.7809 32.4639H28.6411C28.6411 32.4639 28.6411 36.0778 29.174 38.8253C29.211 39.0156 29.2003 39.2102 29.1407 39.3867C28.051 39.9066 26.8312 40.1977 25.5434 40.1977C23.9643 40.1977 22.4875 39.7601 21.2275 38.9995Z" fill="#DEB3A3"/>
<path d="M21.248 38.8253L20.5417 38.6883L21.248 38.8253ZM21.2275 38.9995L20.5087 38.9699L20.4912 39.3954L20.8558 39.6154L21.2275 38.9995ZM21.7809 32.4639V31.7444H21.0615L21.0615 32.4639L21.7809 32.4639ZM28.6411 32.4639L29.3606 32.4639V31.7444H28.6411V32.4639ZM29.174 38.8253L29.8803 38.6883V38.6883L29.174 38.8253ZM29.1407 39.3867L29.4505 40.0359L29.7248 39.9051L29.8221 39.6172L29.1407 39.3867ZM20.5417 38.6883C20.5237 38.7813 20.5126 38.8754 20.5087 38.9699L21.9464 39.0291C21.9472 39.0076 21.9498 38.9852 21.9542 38.9623L20.5417 38.6883ZM21.7809 32.4639C21.0615 32.4639 21.0615 32.4638 21.0615 32.4638C21.0615 32.4638 21.0615 32.4638 21.0615 32.4638C21.0615 32.4639 21.0615 32.464 21.0615 32.4641C21.0615 32.4644 21.0615 32.4649 21.0615 32.4657C21.0615 32.4671 21.0615 32.4695 21.0615 32.4726C21.0614 32.479 21.0614 32.4887 21.0614 32.5017C21.0612 32.5276 21.061 32.5665 21.0605 32.6173C21.0595 32.7189 21.0574 32.868 21.0533 33.0558C21.0451 33.4315 21.0287 33.9614 20.9959 34.5759C20.9299 35.8111 20.7988 37.3629 20.5417 38.6883L21.9542 38.9623C22.2301 37.5402 22.3654 35.9113 22.4327 34.6526C22.4665 34.0202 22.4834 33.4749 22.4918 33.0872C22.4961 32.8932 22.4982 32.7385 22.4992 32.6317C22.4998 32.5783 22.5001 32.5369 22.5002 32.5086C22.5003 32.4944 22.5003 32.4835 22.5003 32.476C22.5003 32.4723 22.5003 32.4694 22.5003 32.4673C22.5003 32.4663 22.5003 32.4655 22.5003 32.4649C22.5003 32.4647 22.5003 32.4644 22.5003 32.4642C22.5003 32.4642 22.5003 32.4641 22.5003 32.464C22.5003 32.4639 22.5003 32.4639 21.7809 32.4639ZM28.6411 31.7444H21.7809V33.1833H28.6411V31.7444ZM29.8803 38.6883C29.6232 37.3629 29.4921 35.8111 29.4261 34.5759C29.3933 33.9614 29.3769 33.4315 29.3687 33.0558C29.3646 32.868 29.3626 32.7189 29.3616 32.6173C29.3611 32.5665 29.3608 32.5276 29.3607 32.5017C29.3606 32.4887 29.3606 32.479 29.3606 32.4726C29.3606 32.4695 29.3606 32.4671 29.3606 32.4657C29.3606 32.4649 29.3606 32.4644 29.3606 32.4641C29.3606 32.464 29.3606 32.4639 29.3606 32.4638C29.3606 32.4638 29.3606 32.4638 29.3606 32.4638C29.3606 32.4638 29.3606 32.4639 28.6411 32.4639C27.9217 32.4639 27.9217 32.4639 27.9217 32.464C27.9217 32.4641 27.9217 32.4642 27.9217 32.4642C27.9217 32.4644 27.9217 32.4647 27.9217 32.4649C27.9217 32.4655 27.9217 32.4663 27.9217 32.4673C27.9217 32.4694 27.9217 32.4723 27.9217 32.476C27.9217 32.4835 27.9218 32.4944 27.9218 32.5086C27.922 32.5369 27.9223 32.5783 27.9228 32.6317C27.9239 32.7385 27.926 32.8932 27.9302 33.0872C27.9387 33.4749 27.9556 34.0202 27.9893 34.6526C28.0566 35.9113 28.1919 37.5402 28.4678 38.9623L29.8803 38.6883ZM29.8221 39.6172C29.9247 39.314 29.9392 38.9922 29.8803 38.6883L28.4678 38.9623C28.4827 39.0391 28.476 39.1064 28.4592 39.1561L29.8221 39.6172ZM28.8308 38.7374C27.8359 39.2121 26.7217 39.4783 25.5434 39.4783V40.9171C26.9406 40.9171 28.2661 40.6011 29.4505 40.0359L28.8308 38.7374ZM25.5434 39.4783C24.099 39.4783 22.7502 39.0784 21.5993 38.3836L20.8558 39.6154C22.2247 40.4418 23.8296 40.9171 25.5434 40.9171V39.4783Z" fill="#150C0C" mask="url(#path-4-inside-2_0_2099)"/>
<path d="M25.1908 40.1857C25.2253 40.0859 25.1668 39.9781 25.0645 39.9525L21.3838 39.0323C21.3695 39.0287 21.3549 39.0269 21.3402 39.0269L19.3555 39.0269C19.1959 39.0269 19.1154 39.2196 19.2276 39.3332L23.6602 43.8217C23.7539 43.9165 23.9146 43.88 23.9581 43.754L25.1908 40.1857Z" fill="#334B71" stroke="#150C0C" stroke-width="0.719425"/>
<path d="M25.9791 40.1857C25.9446 40.0859 26.0031 39.9781 26.1055 39.9525L29.7861 39.0323C29.8004 39.0287 29.815 39.0269 29.8297 39.0269L31.8144 39.0269C31.9741 39.0269 32.0546 39.2196 31.9424 39.3332L27.5098 43.8217C27.4161 43.9165 27.2553 43.88 27.2118 43.754L25.9791 40.1857Z" fill="#334B71" stroke="#150C0C" stroke-width="0.719425"/>
<circle cx="25.5434" cy="43.5253" r="0.44964" fill="#C8D3E6"/>
<circle cx="25.5434" cy="48.4711" r="0.44964" fill="#C8D3E6"/>
<path d="M30.7517 46.9425C30.7517 46.4458 31.1543 46.0432 31.651 46.0432H35.8776C36.3743 46.0432 36.7769 46.4458 36.7769 46.9425V47.3357V51.5288C36.7769 52.0255 36.3743 52.4281 35.8776 52.4281H31.651C31.1543 52.4281 30.7517 52.0255 30.7517 51.5288V47.3357V46.9425Z" stroke="#150C0C" stroke-width="0.539568"/>
</g>
<path d="M37.9714 20.9532C37.9714 21.4789 37.8112 21.941 37.5693 22.2635C37.3275 22.5859 37.0208 22.7518 36.7125 22.7518C36.4041 22.7518 36.0975 22.5859 35.8556 22.2635C35.6137 21.941 35.4535 21.4789 35.4535 20.9532C35.4535 20.4275 35.6137 19.9654 35.8556 19.6429C36.0975 19.3205 36.4041 19.1546 36.7125 19.1546C37.0208 19.1546 37.3275 19.3205 37.5693 19.6429C37.8112 19.9654 37.9714 20.4275 37.9714 20.9532Z" fill="#DEB3A3" stroke="#150C0C" stroke-width="0.719425"/>
<path d="M14.2088 20.9532C14.2088 21.4789 14.0485 21.941 13.8066 22.2635C13.5648 22.5859 13.2581 22.7518 12.9498 22.7518C12.6414 22.7518 12.3348 22.5859 12.0929 22.2635C11.851 21.941 11.6908 21.4789 11.6908 20.9532C11.6908 20.4275 11.851 19.9654 12.0929 19.6429C12.3348 19.3205 12.6414 19.1546 12.9498 19.1546C13.2581 19.1546 13.5648 19.3205 13.8066 19.6429C14.0485 19.9654 14.2088 20.4275 14.2088 20.9532Z" fill="#DEB3A3" stroke="#150C0C" stroke-width="0.719425"/>
<path d="M24.8195 9.17271L24.8203 9.17271L24.8354 9.1727C31.1102 9.18554 36.1083 13.0214 36.1083 17.8503C36.1083 18.9756 36.1779 19.8465 36.2583 20.8535C36.2757 21.0721 36.2937 21.2971 36.3116 21.5325C36.4119 22.854 36.5105 24.155 36.5105 25.462C36.5105 28.2116 34.8224 30.6484 32.4796 32.4185C30.1373 34.1882 27.2051 35.2397 24.8449 35.2517V35.2517L24.8398 35.2518L24.8357 35.2518L24.8207 35.2518L24.8191 35.2518L24.8041 35.2518L24.7999 35.2518V35.2518L24.7949 35.2517C22.4347 35.2397 19.5025 34.1882 17.1602 32.4185C14.8174 30.6484 13.1292 28.2116 13.1292 25.462C13.1292 24.155 13.2279 22.854 13.3282 21.5325C13.3461 21.2971 13.3641 21.0721 13.3815 20.8535C13.4619 19.8464 13.5314 18.9756 13.5314 17.8503C13.5314 13.0213 18.5298 9.18539 24.8048 9.17273L24.8195 9.17271Z" fill="#D9A392" stroke="#150C0C" stroke-width="0.719425"/>
<mask id="path-14-inside-3_0_2099" fill="white">
<path fill-rule="evenodd" clip-rule="evenodd" d="M36.7121 6.52721C41.1522 4.60213 30.1865 0.360646 22.6576 3.62492C20.9959 4.34541 19.5605 5.23306 18.414 6.18452C18.3677 6.18302 18.3212 6.18227 18.2746 6.18227C14.7871 6.18227 11.96 10.3993 11.96 15.6012C11.96 18.0866 12.6053 20.3471 13.6597 22.0303C13.6913 21.6068 13.729 21.1834 13.7668 20.7593C13.7838 20.5684 13.8008 20.3866 13.8173 20.2105C13.8927 19.4038 13.9569 18.7179 13.9569 17.8277C13.9569 13.7284 18.8974 10.5893 24.8948 10.579L24.9097 10.579L24.9245 10.579C30.9219 10.5893 35.8624 13.7284 35.8624 17.8277C35.8624 18.7179 35.9266 19.4038 36.002 20.2105C36.0185 20.3866 36.0355 20.5684 36.0525 20.7593C36.1322 21.6541 36.2116 22.5462 36.2342 23.4419C37.2313 21.6323 37.8592 18.9968 37.8592 16.0625C37.8592 12.3231 36.8394 9.06879 35.3353 7.39089C35.7198 7.05557 36.1697 6.7624 36.7121 6.52721Z"/>
</mask>
<path fill-rule="evenodd" clip-rule="evenodd" d="M36.7121 6.52721C41.1522 4.60213 30.1865 0.360646 22.6576 3.62492C20.9959 4.34541 19.5605 5.23306 18.414 6.18452C18.3677 6.18302 18.3212 6.18227 18.2746 6.18227C14.7871 6.18227 11.96 10.3993 11.96 15.6012C11.96 18.0866 12.6053 20.3471 13.6597 22.0303C13.6913 21.6068 13.729 21.1834 13.7668 20.7593C13.7838 20.5684 13.8008 20.3866 13.8173 20.2105C13.8927 19.4038 13.9569 18.7179 13.9569 17.8277C13.9569 13.7284 18.8974 10.5893 24.8948 10.579L24.9097 10.579L24.9245 10.579C30.9219 10.5893 35.8624 13.7284 35.8624 17.8277C35.8624 18.7179 35.9266 19.4038 36.002 20.2105C36.0185 20.3866 36.0355 20.5684 36.0525 20.7593C36.1322 21.6541 36.2116 22.5462 36.2342 23.4419C37.2313 21.6323 37.8592 18.9968 37.8592 16.0625C37.8592 12.3231 36.8394 9.06879 35.3353 7.39089C35.7198 7.05557 36.1697 6.7624 36.7121 6.52721Z" fill="#4B301C"/>
<path d="M22.6576 3.62492L22.9438 4.28498V4.28497L22.6576 3.62492ZM36.7121 6.52721L36.9983 7.18727L36.7121 6.52721ZM18.414 6.18452L18.3908 6.90357L18.6635 6.91237L18.8735 6.73812L18.414 6.18452ZM13.6597 22.0303L13.05 22.4122L14.2139 24.2701L14.3771 22.0839L13.6597 22.0303ZM13.7668 20.7593L13.0502 20.6955H13.0502L13.7668 20.7593ZM13.8173 20.2105L14.5336 20.2775V20.2775L13.8173 20.2105ZM24.8948 10.579L24.8939 9.85956L24.8936 9.85956L24.8948 10.579ZM24.9097 10.579L24.9094 9.85954L24.9087 9.85954L24.9097 10.579ZM24.9245 10.579L24.9257 9.85953L24.9242 9.85953L24.9245 10.579ZM36.002 20.2105L35.2857 20.2775L36.002 20.2105ZM36.0525 20.7593L36.7691 20.6955V20.6955L36.0525 20.7593ZM36.2342 23.4419L35.515 23.4601L35.5821 26.1162L36.8643 23.7891L36.2342 23.4419ZM35.3353 7.39089L34.8624 6.84874L34.3129 7.32809L34.7996 7.87109L35.3353 7.39089ZM22.9438 4.28497C26.5121 2.73788 30.9559 2.95961 33.9757 3.82184C34.7235 4.03534 35.3665 4.28347 35.8742 4.54287C36.3923 4.80756 36.7252 5.06171 36.8983 5.26669C36.982 5.36583 37.0083 5.42996 37.0155 5.4559C37.0186 5.46736 37.0178 5.47032 37.018 5.46703C37.0181 5.46332 37.019 5.46112 37.0183 5.46292C37.0118 5.48023 36.9219 5.65214 36.4259 5.86716L36.9983 7.18727C37.6124 6.92102 38.151 6.53927 38.3653 5.96891C38.6023 5.33797 38.3504 4.75608 37.9977 4.33841C37.6495 3.92604 37.127 3.56718 36.5289 3.26159C35.9204 2.95071 35.1868 2.67126 34.3707 2.43828C31.1355 1.51456 26.332 1.24769 22.3715 2.96486L22.9438 4.28497ZM18.8735 6.73812C19.9636 5.83342 21.3397 4.98047 22.9438 4.28498L22.3715 2.96486C20.652 3.71035 19.1574 4.6327 17.9546 5.63091L18.8735 6.73812ZM18.2746 6.90169C18.3135 6.90169 18.3522 6.90232 18.3908 6.90357L18.4372 5.46547C18.3832 5.46372 18.329 5.46284 18.2746 5.46284V6.90169ZM12.6794 15.6012C12.6794 13.1233 13.354 10.9123 14.407 9.34162C15.4632 7.76629 16.8444 6.90169 18.2746 6.90169V5.46284C16.2174 5.46284 14.4412 6.70674 13.2119 8.54039C11.9795 10.3787 11.2405 12.8772 11.2405 15.6012H12.6794ZM14.2694 21.6484C13.2951 20.093 12.6794 17.9681 12.6794 15.6012H11.2405C11.2405 18.205 11.9156 20.6012 13.05 22.4122L14.2694 21.6484ZM14.3771 22.0839C14.4083 21.6663 14.4456 21.248 14.4834 20.8231L13.0502 20.6955C13.0125 21.1187 12.9744 21.5473 12.9423 21.9767L14.3771 22.0839ZM14.4834 20.8231C14.5002 20.634 14.5171 20.4538 14.5336 20.2775L13.101 20.1435C13.0845 20.3193 13.0674 20.5027 13.0502 20.6955L14.4834 20.8231ZM14.5336 20.2775C14.609 19.4713 14.6763 18.7552 14.6763 17.8277H13.2375C13.2375 18.6806 13.1765 19.3363 13.101 20.1435L14.5336 20.2775ZM14.6763 17.8277C14.6763 16.0952 15.7178 14.4842 17.5707 13.272C19.4212 12.0614 22.0142 11.3034 24.8961 11.2984L24.8936 9.85956C21.778 9.86492 18.9021 10.6816 16.783 12.068C14.6663 13.4527 13.2375 15.461 13.2375 17.8277H14.6763ZM24.8957 11.2984L24.9106 11.2984L24.9087 9.85954L24.8939 9.85956L24.8957 11.2984ZM24.9099 11.2984L24.9248 11.2984L24.9242 9.85953L24.9094 9.85954L24.9099 11.2984ZM24.9233 11.2984C27.8051 11.3033 30.3981 12.0614 32.2486 13.272C34.1015 14.4842 35.143 16.0952 35.143 17.8277H36.5818C36.5818 15.461 35.1531 13.4527 33.0363 12.0679C30.9172 10.6816 28.0413 9.86489 24.9257 9.85953L24.9233 11.2984ZM35.143 17.8277C35.143 18.7552 35.2103 19.4713 35.2857 20.2775L36.7183 20.1435C36.6428 19.3363 36.5818 18.6806 36.5818 17.8277H35.143ZM35.2857 20.2775C35.3022 20.4538 35.3191 20.634 35.3359 20.8231L36.7691 20.6955C36.752 20.5027 36.7348 20.3193 36.7183 20.1435L35.2857 20.2775ZM35.3359 20.8231C35.4159 21.7217 35.4931 22.591 35.515 23.4601L36.9534 23.4237C36.9301 22.5014 36.8484 21.5865 36.7691 20.6955L35.3359 20.8231ZM37.1398 16.0625C37.1398 18.9074 36.5289 21.4164 35.6041 23.0947L36.8643 23.7891C37.9337 21.8483 38.5787 19.0862 38.5787 16.0625H37.1398ZM34.7996 7.87109C36.1382 9.36437 37.1398 12.4139 37.1398 16.0625H38.5787C38.5787 12.2323 37.5406 8.77321 35.8711 6.91069L34.7996 7.87109ZM36.4259 5.86716C35.8143 6.13233 35.3017 6.46561 34.8624 6.84874L35.8083 7.93304C36.1379 7.64553 36.525 7.39248 36.9983 7.18727L36.4259 5.86716Z" fill="black" mask="url(#path-14-inside-3_0_2099)"/>
<path d="M30.1114 16.648C32.241 16.187 33.8041 16.7453 34.972 17.3009C35.5323 17.5674 35.8543 18.239 35.0476 17.9846C33.9047 17.6241 32.1061 17.446 30.6406 17.8226C30.1114 17.9586 29.2284 16.8391 30.1114 16.648Z" fill="#4B301C"/>
<path d="M20.1771 16.648C18.0476 16.187 16.4845 16.7453 15.3165 17.3009C14.7563 17.5674 14.4343 18.239 15.2409 17.9846C16.3839 17.6241 18.1825 17.446 19.648 17.8226C20.1771 17.9586 21.0602 16.8391 20.1771 16.648Z" fill="#4B301C"/>
<path d="M19.4249 21.8524C19.4249 22.4415 18.7002 23.2913 17.8062 23.2913C16.9122 23.2913 16.1875 22.6471 16.1875 21.8524C16.1875 21.0578 16.9122 20.4136 17.8062 20.4136C18.7002 20.4136 19.4249 21.2633 19.4249 21.8524Z" fill="#150C0C"/>
<path d="M29.9501 21.8524C29.9501 22.4415 30.6748 23.2913 31.5688 23.2913C32.4628 23.2913 33.1875 22.6471 33.1875 21.8524C33.1875 21.0578 32.4628 20.4136 31.5688 20.4136C30.6748 20.4136 29.9501 21.2633 29.9501 21.8524Z" fill="#150C0C"/>
<ellipse cx="31.2992" cy="21.3128" rx="0.359712" ry="0.269784" fill="white" fill-opacity="0.9"/>
<ellipse cx="17.2665" cy="21.3128" rx="0.359712" ry="0.269784" fill="white" fill-opacity="0.9"/>
<g clip-path="url(#clip2_0_2099)">
<ellipse cx="31.0629" cy="23.2124" rx="1.48381" ry="1" fill="#C98570"/>
<ellipse cx="18.0307" cy="23.2124" rx="1.48381" ry="1" fill="#C98570"/>
</g>
<mask id="path-24-inside-4_0_2099" fill="white">
<path fill-rule="evenodd" clip-rule="evenodd" d="M13.0494 22.8051C12.7666 23.7066 12.2305 25.7263 12.2305 28.0855C12.2305 33.1767 18.2345 37.3009 24.7305 37.3009C31.2265 37.3009 37.2305 33.1767 37.2305 28.0855C37.2305 25.7263 36.6944 23.7066 36.4115 22.8051C36.36 22.6409 36.128 22.6441 36.0665 22.8048C35.6449 23.9068 34.45 26.4392 32.3744 26.4392C31.1223 26.4392 30.0892 26.0106 28.9982 25.5578C27.7774 25.0513 26.4841 24.5147 24.7305 24.5147C22.9768 24.5147 21.6835 25.0513 20.4628 25.5578C19.3717 26.0106 18.3386 26.4392 17.0866 26.4392C15.0109 26.4392 13.8161 23.9068 13.3944 22.8048C13.3329 22.6441 13.101 22.6409 13.0494 22.8051Z"/>
</mask>
<path fill-rule="evenodd" clip-rule="evenodd" d="M13.0494 22.8051C12.7666 23.7066 12.2305 25.7263 12.2305 28.0855C12.2305 33.1767 18.2345 37.3009 24.7305 37.3009C31.2265 37.3009 37.2305 33.1767 37.2305 28.0855C37.2305 25.7263 36.6944 23.7066 36.4115 22.8051C36.36 22.6409 36.128 22.6441 36.0665 22.8048C35.6449 23.9068 34.45 26.4392 32.3744 26.4392C31.1223 26.4392 30.0892 26.0106 28.9982 25.5578C27.7774 25.0513 26.4841 24.5147 24.7305 24.5147C22.9768 24.5147 21.6835 25.0513 20.4628 25.5578C19.3717 26.0106 18.3386 26.4392 17.0866 26.4392C15.0109 26.4392 13.8161 23.9068 13.3944 22.8048C13.3329 22.6441 13.101 22.6409 13.0494 22.8051Z" fill="#4B301C"/>
<path d="M13.0494 22.8051L12.363 22.5897V22.5897L13.0494 22.8051ZM36.4115 22.8051L35.7251 23.0205V23.0205L36.4115 22.8051ZM36.0665 22.8048L36.7384 23.0619L36.7385 23.0619L36.0665 22.8048ZM28.9982 25.5578L28.7225 26.2223L28.9982 25.5578ZM20.4628 25.5578L20.187 24.8933L20.4628 25.5578ZM13.3944 22.8048L12.7225 23.0619V23.0619L13.3944 22.8048ZM12.9499 28.0855C12.9499 25.8268 13.4648 23.8845 13.7359 23.0205L12.363 22.5897C12.0684 23.5287 11.511 25.6258 11.511 28.0855H12.9499ZM24.7305 36.5815C21.6269 36.5815 18.6505 35.5942 16.4652 34.0188C14.2752 32.44 12.9499 30.3304 12.9499 28.0855H11.511C11.511 30.9318 13.1877 33.4298 15.6238 35.186C18.0645 36.9455 21.338 38.0203 24.7305 38.0203V36.5815ZM24.7305 38.0203C28.1229 38.0203 31.3965 36.9455 33.8372 35.186C36.2732 33.4298 37.9499 30.9318 37.9499 28.0855H36.511C36.511 30.3304 35.1857 32.44 32.9958 34.0188C30.8105 35.5942 27.834 36.5815 24.7305 36.5815V38.0203ZM37.9499 28.0855C37.9499 25.6258 37.3926 23.5287 37.0979 22.5897L35.7251 23.0205C35.9962 23.8845 36.511 25.8268 36.511 28.0855H37.9499ZM37.0979 22.5897C36.9652 22.1668 36.5834 21.962 36.2391 21.9637C35.9029 21.9654 35.5426 22.1608 35.3946 22.5477L36.7385 23.0619C36.6519 23.2881 36.4384 23.4016 36.2464 23.4025C36.0464 23.4035 35.8062 23.2792 35.7251 23.0205L37.0979 22.5897ZM35.3946 22.5477C35.1948 23.07 34.8218 23.9008 34.2769 24.5884C33.7256 25.284 33.093 25.7198 32.3744 25.7198V27.1587C33.7313 27.1587 34.734 26.3282 35.4045 25.4821C36.0813 24.6281 36.5166 23.6416 36.7384 23.0619L35.3946 22.5477ZM32.3744 25.7198C31.2861 25.7198 30.3799 25.3523 29.2739 24.8933L28.7225 26.2223C29.7985 26.6688 30.9585 27.1587 32.3744 27.1587V25.7198ZM29.2739 24.8933C28.0526 24.3866 26.6413 23.7952 24.7305 23.7952V25.2341C26.327 25.2341 27.5022 25.716 28.7225 26.2223L29.2739 24.8933ZM20.7385 26.2223C21.9587 25.716 23.134 25.2341 24.7305 25.2341V23.7952C22.8196 23.7952 21.4083 24.3866 20.187 24.8933L20.7385 26.2223ZM17.0866 27.1587C18.5024 27.1587 19.6624 26.6688 20.7385 26.2223L20.187 24.8933C19.081 25.3523 18.1748 25.7198 17.0866 25.7198V27.1587ZM12.7225 23.0619C12.9443 23.6416 13.3796 24.6281 14.0564 25.4821C14.7269 26.3282 15.7296 27.1587 17.0866 27.1587V25.7198C16.3679 25.7198 15.7353 25.284 15.1841 24.5884C14.6391 23.9008 14.2662 23.07 14.0663 22.5477L12.7225 23.0619ZM13.7359 23.0205C13.6547 23.2792 13.4146 23.4035 13.2146 23.4025C13.0225 23.4016 12.809 23.2881 12.7225 23.0619L14.0663 22.5477C13.9183 22.1608 13.5581 21.9654 13.2218 21.9637C12.8775 21.962 12.4957 22.1668 12.363 22.5897L13.7359 23.0205Z" fill="black" mask="url(#path-24-inside-4_0_2099)"/>
<path d="M21.8593 28.327C22.5978 27.7948 23.7888 27.5129 25.0007 27.518C26.2128 27.523 27.3308 27.8141 27.9511 28.3099C27.988 28.4657 27.9668 28.6654 27.8612 28.9057C27.7383 29.1853 27.5138 29.4875 27.2085 29.7686C26.5938 30.3346 25.7187 30.7552 24.8791 30.7552C24.0575 30.7552 23.2014 30.2764 22.5928 29.6671C22.2918 29.3657 22.0707 29.051 21.9514 28.7797C21.8528 28.5555 21.8432 28.4094 21.8593 28.327Z" fill="#F9ECEC" stroke="#150C0C" stroke-width="0.719425"/>
</g>
<defs>
<clipPath id="clip0_0_2099">
<rect width="50" height="50" rx="24.8201" fill="white"/>
</clipPath>
<clipPath id="clip1_0_2099">
<rect width="33.0036" height="25.5396" fill="white" transform="translate(8.27344 32.4639)"/>
</clipPath>
<clipPath id="clip2_0_2099">
<rect width="16.4568" height="2.2482" fill="white" transform="translate(16.5469 22.2124)"/>
</clipPath>
</defs>
</svg>
