<?xml version="1.0" standalone="no"?>
<!DOCTYPE svg PUBLIC "-//W3C//DTD SVG 20010904//EN"
 "http://www.w3.org/TR/2001/REC-SVG-20010904/DTD/svg10.dtd">
<svg version="1.0" xmlns="http://www.w3.org/2000/svg"
 width="322.000000pt" height="337.000000pt" viewBox="0 0 322.000000 337.000000"
 preserveAspectRatio="xMidYMid meet">

<g transform="translate(0.000000,337.000000) scale(0.100000,-0.100000)"
fill="#000000" stroke="none">
<path d="M723 2840 c-64 -28 -83 -67 -83 -167 l0 -82 573 -4 c493 -3 581 -6
635 -20 136 -36 232 -108 284 -215 31 -63 33 -72 33 -177 0 -120 -10 -150 -72
-224 l-29 -34 41 -42 c23 -22 55 -68 71 -101 26 -54 29 -68 29 -164 0 -95 -3
-111 -29 -167 -74 -161 -238 -242 -488 -243 l-108 0 0 159 0 158 93 5 c134 7
187 41 187 120 0 27 -8 47 -29 70 l-29 33 -231 3 -231 3 0 -275 0 -276 -175 0
-175 0 0 435 0 435 378 0 c339 0 381 2 412 18 32 16 35 21 38 68 2 38 -2 56
-17 75 l-19 24 -571 3 -571 2 0 -617 c0 -589 1 -619 19 -647 10 -15 32 -37 47
-47 28 -18 63 -19 894 -19 851 0 866 0 898 20 20 13 41 38 53 65 19 43 19 69
17 894 -3 840 -3 850 -24 877 -11 15 -33 37 -48 48 -27 21 -36 21 -879 23
-823 3 -853 2 -894 -17z"/>
<path d="M1370 748 c-106 -54 -123 -213 -31 -291 43 -35 90 -47 142 -36 79 18
119 66 119 142 l0 47 -75 0 -75 0 0 -30 c0 -28 3 -30 35 -30 23 0 35 -5 35
-13 0 -24 -35 -47 -72 -47 -64 0 -102 71 -78 144 21 64 83 85 132 46 l25 -19
23 24 c20 21 21 27 9 41 -38 46 -122 56 -189 22z"/>
<path d="M630 590 l0 -170 74 0 c40 0 87 5 105 11 67 23 80 122 20 158 -25 15
-27 20 -15 30 37 31 26 109 -20 130 -14 6 -56 11 -94 11 l-70 0 0 -170z m128
81 c4 -25 -12 -41 -40 -41 -14 0 -18 8 -18 36 0 33 2 35 28 32 20 -2 28 -9 30
-27z m22 -130 c13 -25 13 -27 -6 -45 -8 -9 -29 -16 -45 -16 -27 0 -29 2 -29
40 0 39 1 40 35 40 24 0 37 -6 45 -19z"/>
<path d="M960 590 l0 -170 40 0 40 0 0 65 0 65 40 0 c77 0 120 41 120 115 0
27 -8 44 -29 66 -28 28 -33 29 -120 29 l-91 0 0 -170z m148 98 c31 -31 3 -78
-47 -78 -18 0 -21 6 -21 45 0 43 1 45 28 45 15 0 33 -5 40 -12z"/>
<path d="M1741 623 c-30 -76 -61 -153 -68 -170 l-13 -33 40 0 c36 0 41 3 54
35 15 35 15 35 80 35 l65 0 12 -35 c12 -33 16 -35 55 -35 l43 0 -68 168 -69
167 -38 3 -39 3 -54 -138z m128 -55 c1 -5 -15 -8 -34 -8 -40 0 -41 3 -19 56
l17 39 18 -40 c9 -22 18 -43 18 -47z"/>
<path d="M2060 731 c0 -27 3 -30 38 -33 l37 -3 3 -137 3 -138 39 0 40 0 0 140
0 140 40 0 c38 0 40 2 40 30 l0 30 -120 0 -120 0 0 -29z"/>
<path d="M2380 590 l0 -170 100 0 100 0 0 35 0 35 -60 0 -60 0 0 35 0 35 55 0
55 0 0 35 0 35 -55 0 -55 0 0 35 0 35 60 0 60 0 0 30 0 30 -100 0 -100 0 0
-170z"/>
</g>
</svg>
