<svg width="21" height="17" viewBox="0 0 21 17" fill="none" xmlns="http://www.w3.org/2000/svg">
<path d="M6.5415 12.6094C6.5415 12.9774 6.84461 13.2805 7.21265 13.2805H11.0232C11.3913 13.2805 11.6944 12.9774 11.6944 12.6094C11.6944 12.2413 11.3913 11.9382 11.0232 11.9382H7.21265C6.8446 11.9382 6.5415 12.2413 6.5415 12.6094Z" fill="#FFC700"/>
<path d="M18.6879 4.68506H9.55107L10.2872 6.04912H18.6878C18.9693 6.04912 19.2075 6.28729 19.2075 6.56878V7.69468L11.1749 7.69453C11.4564 8.38745 11.4131 9.1885 11.0666 9.85965H19.2074V14.8611C19.2074 15.1426 18.9693 15.3807 18.6878 15.3807H5.43729C5.15578 15.3807 4.91762 15.1426 4.91762 14.8611L4.91777 11.2453H3.55371V14.8394C3.55371 15.8787 4.39811 16.7231 5.43732 16.7231H18.6878C19.727 16.7231 20.5714 15.8787 20.5714 14.8394L20.5716 6.56871C20.5716 5.5295 19.7272 4.6851 18.688 4.6851L18.6879 4.68506Z" fill="#FFC700"/>
<path d="M15.3969 13.3022C15.6135 13.6053 15.9816 13.8218 16.393 13.8218C17.0641 13.8218 17.6054 13.2805 17.6054 12.6094C17.6054 11.9383 17.0641 11.397 16.393 11.397C15.9816 11.397 15.6135 11.5918 15.3969 11.9166C15.1804 11.6135 14.8123 11.397 14.4009 11.397C13.7298 11.397 13.1885 11.9383 13.1885 12.6094C13.1885 13.2805 13.7298 13.8218 14.4009 13.8218C14.8123 13.8218 15.1588 13.6053 15.3969 13.3022Z" fill="#FFC700"/>
<path d="M9.85404 8.04087L6.0867 1.22077C5.61037 0.354797 4.37634 0.354797 3.89997 1.22077L0.154365 8.04087C-0.300386 8.86366 0.305996 9.8813 1.23692 9.8813H8.74987C9.7024 9.8813 10.3086 8.8637 9.85404 8.04087ZM4.333 3.29927C4.333 2.93122 4.6361 2.62813 5.00414 2.62813C5.37218 2.62813 5.67529 2.93124 5.67529 3.29927V5.61602C5.67529 5.98407 5.37218 6.28717 5.00414 6.28717C4.6361 6.28717 4.333 5.98406 4.333 5.61602V3.29927ZM5.00414 8.43059C4.57116 8.43059 4.2247 8.08414 4.2247 7.65115C4.2247 7.21817 4.57115 6.89329 5.00414 6.89329C5.43713 6.89329 5.76201 7.23974 5.76201 7.65115C5.76201 8.06257 5.43715 8.43059 5.00414 8.43059Z" fill="#FFA800"/>
</svg>
