<svg width="21" height="21" viewBox="0 0 21 21" fill="none" xmlns="http://www.w3.org/2000/svg">
<path d="M0.881664 13.0553C0.832636 13.0553 0.808207 13.0797 0.759179 13.0797C0.538809 13.0797 0.342872 12.9328 0.293827 12.7124C0.0978855 11.8798 0 11.0716 0 10.239C0 9.96958 0.22037 9.74922 0.489755 9.74922C0.75914 9.74922 0.97951 9.96959 0.97951 10.239C0.97951 10.9981 1.0774 11.7329 1.24891 12.4676C1.32236 12.7124 1.15106 12.9818 0.881664 13.0553ZM0.661294 8.3532C0.710322 8.3532 0.73475 8.37763 0.783778 8.37763C1.00415 8.37763 1.20009 8.23071 1.24913 8.01035C1.42064 7.27561 1.68986 6.58993 2.0329 5.90421C2.15538 5.65924 2.05732 5.36544 1.83696 5.24294C1.59199 5.12046 1.29818 5.21851 1.17568 5.43888C0.783805 6.17362 0.489965 6.95722 0.294045 7.76538C0.220418 8.03478 0.3919 8.30418 0.661294 8.3532ZM2.93877 4.21436C3.08568 4.21436 3.20817 4.16533 3.30605 4.04284C3.7958 3.47962 4.35903 2.98986 4.9959 2.54896C5.21627 2.40204 5.2653 2.08361 5.11838 1.86324C4.97147 1.64287 4.65303 1.59384 4.43267 1.74076C3.74695 2.20611 3.1347 2.76933 2.57147 3.38158C2.39996 3.57752 2.39996 3.89596 2.6205 4.0673C2.71839 4.18995 2.84089 4.21436 2.93877 4.21436ZM11.3878 0.981773C12.1225 1.07966 12.8573 1.25117 13.5674 1.52055C13.6164 1.54498 13.6899 1.54498 13.7389 1.54498C13.9349 1.54498 14.1308 1.42249 14.2043 1.22656C14.3022 0.981588 14.1798 0.687779 13.9104 0.589863C13.1267 0.296036 12.3187 0.100108 11.5105 0.00206113C11.2411 -0.0223671 10.9961 0.173574 10.9717 0.418368C10.9471 0.712365 11.1184 0.957152 11.3878 0.981773ZM6.80818 1.56944C6.85721 1.56944 6.93066 1.56944 6.97969 1.54502C7.68981 1.27562 8.40011 1.10428 9.1593 1.00624C9.4287 0.981808 9.62465 0.736839 9.5756 0.467458C9.55101 0.173631 9.30621 -0.0222968 9.03683 0.0267268C8.20421 0.124612 7.396 0.320554 6.63686 0.614529C6.39189 0.712414 6.24498 0.981808 6.34303 1.25122C6.41631 1.44699 6.61223 1.56944 6.80818 1.56944ZM19.3225 7.98581C19.3716 8.20618 19.5675 8.35308 19.7879 8.35308C19.8369 8.35308 19.8613 8.35308 19.9104 8.32866C20.1798 8.2552 20.3267 7.98581 20.2777 7.74085C20.0817 6.93269 19.7879 6.1491 19.396 5.41435C19.2735 5.16939 18.9797 5.0715 18.7347 5.21841C18.4898 5.36533 18.3919 5.63472 18.5388 5.87969C18.8817 6.54078 19.151 7.25106 19.3225 7.98581ZM15.551 2.57353C16.1632 2.98984 16.7265 3.50419 17.2408 4.06742C17.3387 4.1653 17.4612 4.23893 17.6081 4.23893C17.7306 4.23893 17.8285 4.1899 17.9266 4.11644C18.1225 3.94493 18.1469 3.62669 17.9756 3.43073C17.4368 2.81848 16.8001 2.25525 16.1144 1.7899C15.894 1.64299 15.5756 1.69202 15.4287 1.91239C15.2816 2.10816 15.3306 2.40197 15.551 2.57348L15.551 2.57353ZM6.97952 18.9328C6.2694 18.6634 5.60813 18.3206 4.99588 17.8798C4.77551 17.7329 4.4571 17.7819 4.31016 18.0023C4.16325 18.2227 4.21228 18.5411 4.43265 18.688C5.11837 19.1534 5.85306 19.5453 6.63665 19.8391C6.68568 19.8635 6.75914 19.8635 6.80817 19.8635C7.00411 19.8635 7.20005 19.741 7.27352 19.5451C7.34698 19.3003 7.22449 19.0309 6.97952 18.9328ZM20.0816 9.72459C19.8122 9.72459 19.5919 9.94496 19.5919 10.2143V10.2388C19.5919 10.9979 19.494 11.7327 19.3225 12.4674C19.249 12.7368 19.4204 13.0062 19.6898 13.0552C19.7388 13.0552 19.7632 13.0796 19.8122 13.0796C20.0326 13.0796 20.2286 12.9327 20.2776 12.7124C20.4735 11.9042 20.5714 11.096 20.5714 10.2389V10.2145C20.5714 9.94492 20.3511 9.72456 20.0817 9.72456L20.0816 9.72459ZM11.3877 19.4716C11.0204 19.5206 10.653 19.545 10.2611 19.545C9.89381 19.545 9.52634 19.5206 9.15908 19.4716C8.88968 19.4472 8.64471 19.6185 8.6203 19.8879C8.59588 20.1573 8.76722 20.4023 9.03661 20.4267C9.45292 20.4757 9.84478 20.5001 10.2856 20.5001C10.7019 20.5001 11.1182 20.4757 11.51 20.4267C11.7794 20.4022 11.9754 20.1573 11.9264 19.8879C11.9021 19.6187 11.6571 19.4472 11.3878 19.4716H11.3877ZM2.03256 14.5491C1.91007 14.3041 1.61625 14.2063 1.37128 14.3532C1.12631 14.4757 1.02843 14.7695 1.17534 15.0144C1.56722 15.7492 2.03258 16.4349 2.59576 17.0471C2.69364 17.145 2.81613 17.2186 2.96304 17.2186C3.08552 17.2186 3.18341 17.1696 3.28146 17.0961C3.4774 16.9246 3.50183 16.6064 3.33049 16.4104C2.81611 15.8226 2.39986 15.2104 2.03256 14.5491ZM13.9101 18.7859C13.7876 18.8349 13.6898 18.8838 13.5673 18.9328C13.3223 19.0307 13.1754 19.3001 13.2735 19.5695C13.3469 19.7654 13.5429 19.8879 13.7388 19.8879C13.7878 19.8879 13.8613 19.8879 13.9103 19.8635C14.1307 19.79 14.351 19.692 14.5716 19.5941C14.3265 19.3493 14.106 19.0798 13.9101 18.7859ZM13.3959 17.4145C12.4164 17.8308 11.3633 18.0512 10.2857 18.0512H10.2612C8.1795 18.0512 6.19586 17.2186 4.72651 15.7491C3.25703 14.2552 2.44903 12.2959 2.44903 10.2143C2.44903 8.13261 3.28165 6.14897 4.75113 4.67962C6.22061 3.21014 8.20426 2.40214 10.2859 2.40214H10.3103C12.392 2.40214 14.3757 3.23476 15.845 4.70424C17.3145 6.19813 18.1225 8.15737 18.1225 10.239C18.1225 11.2675 17.9265 12.2716 17.5347 13.2023C17.8775 13.2514 18.196 13.3493 18.4898 13.4717C18.8817 12.4674 19.1022 11.3654 19.1022 10.239C19.1022 7.88785 18.1961 5.65936 16.5307 3.99404C14.8653 2.32873 12.6613 1.42256 10.3103 1.42256H10.2859C7.93473 1.42256 5.73073 2.32864 4.06541 3.99404C2.40001 5.63487 1.46935 7.86345 1.46935 10.2145C1.46935 12.5656 2.37543 14.7941 4.04084 16.4594C5.70606 18.1246 7.91024 19.0553 10.2613 19.0553H10.2857C11.4612 19.0553 12.6122 18.8103 13.6898 18.3696C13.5431 18.0758 13.445 17.7573 13.3962 17.4145L13.3959 17.4145Z" fill="#A6DDFD"/>
<path d="M10.3189 7.81927C11.029 7.81927 11.5434 8.21115 11.5434 8.57842C11.5434 9.01915 11.9106 9.38658 12.3515 9.38658C12.7923 9.38658 13.1597 9.01931 13.1597 8.57842C13.1597 7.50082 12.3025 6.59478 11.127 6.30094V6.05597C11.127 5.61524 10.7597 5.2478 10.3189 5.2478C9.87813 5.2478 9.51069 5.61508 9.51069 6.05597V6.30094C8.33522 6.59477 7.47803 7.50099 7.47803 8.57842C7.47803 9.90079 8.75155 10.9539 10.3433 10.9539C11.0535 10.9539 11.5678 11.3458 11.5678 11.7131C11.5678 12.0804 11.0535 12.4722 10.3433 12.4722C9.63323 12.4722 9.11885 12.0804 9.11885 11.7131C9.11885 11.2724 8.75157 10.9049 8.31069 10.9049C7.86995 10.9049 7.50252 11.2722 7.50252 11.7131C7.50252 12.7907 8.35975 13.6967 9.53518 13.9906V14.2109C9.53518 14.6517 9.90246 15.0191 10.3433 15.0191C10.7841 15.0191 11.1515 14.6518 11.1515 14.2109V13.9906C12.327 13.6967 13.1842 12.7905 13.1842 11.7131C13.1842 10.3907 11.9107 9.33756 10.3189 9.33756C9.60874 9.33756 9.09436 8.94568 9.09436 8.57842C9.09436 8.21114 9.60874 7.81927 10.3189 7.81927ZM20.1149 16.7582C20.1149 18.448 18.7435 19.8194 17.0536 19.8194C15.3638 19.8194 13.9924 18.448 13.9924 16.7582C13.9924 15.0683 15.3638 13.6969 17.0536 13.6969C18.7435 13.6969 20.1149 15.0683 20.1149 16.7582ZM17.7394 16.7582L18.6945 15.8031C18.8904 15.6071 18.8904 15.3133 18.6945 15.1174C18.4985 14.9214 18.2047 14.9214 18.0087 15.1174L17.0536 16.0478L16.0985 15.0927C15.9026 14.8968 15.6088 14.8968 15.4128 15.0927C15.2169 15.2887 15.2169 15.5825 15.4128 15.7785L16.3679 16.7336L15.4128 17.6887C15.2169 17.8846 15.2169 18.1784 15.4128 18.3744C15.5107 18.4723 15.6332 18.5213 15.7557 18.5213C15.8781 18.5213 16.0006 18.4723 16.0985 18.3744L17.0536 17.4193L18.0087 18.3744C18.1066 18.4723 18.2291 18.5213 18.3516 18.5213C18.4741 18.5213 18.5965 18.4723 18.6944 18.3744C18.8904 18.1784 18.8904 17.8846 18.6944 17.6887L17.7394 16.7582Z" fill="#202f4b"/>
</svg>
