<svg width="21" height="18" viewBox="0 0 21 18" fill="none" xmlns="http://www.w3.org/2000/svg">
<path d="M8.15156 0C5.74218 0 3.78271 1.88109 3.78271 4.19409C3.78271 6.50709 5.74218 8.38818 8.15156 8.38818C10.5609 8.38818 12.5204 6.50709 12.5204 4.19409C12.5204 1.88109 10.5609 0 8.15156 0ZM9.47759 5.83081C9.25264 5.97288 8.98034 6.06949 8.6725 6.10927V6.45027C8.6725 6.56393 8.5778 6.64917 8.46532 6.64917H8.08052C7.96212 6.64917 7.87334 6.55825 7.87334 6.45027V6.10927C7.52407 6.05812 7.21035 5.92742 6.93803 5.72283C6.76636 5.5978 6.63016 5.46709 6.52953 5.3307C6.49993 5.2966 6.48219 5.2625 6.48219 5.22272C6.48219 5.1602 6.51175 5.11473 6.58279 5.07495L6.97351 4.85334C6.97351 4.85334 7.05051 4.81921 7.08603 4.81921C7.15707 4.81921 7.21622 4.84763 7.25766 4.89878C7.45301 5.10337 7.66023 5.23979 7.87334 5.31367V4.44414C7.37016 4.37026 7.00314 4.18839 6.77819 3.89856C6.64203 3.72807 6.57693 3.53486 6.57101 3.31322C6.56509 2.86426 6.81959 2.52326 7.33462 2.30163C7.49445 2.23343 7.67207 2.18231 7.87334 2.1539V1.77311C7.87334 1.65945 7.96804 1.57421 8.08052 1.57421H8.46532C8.58372 1.57421 8.6725 1.66513 8.6725 1.77311V2.16524C9.09873 2.23912 9.44208 2.42099 9.70848 2.71082C9.744 2.74492 9.76765 2.78468 9.76173 2.83014C9.76173 2.88697 9.73219 2.93247 9.67299 2.96657L9.24079 3.22796C9.24079 3.22796 9.16385 3.26774 9.11057 3.26206C9.03953 3.26206 8.98037 3.23934 8.93302 3.19956C8.85014 3.13136 8.7613 3.07454 8.6725 3.03476V3.72807C9.18753 3.79627 9.56643 3.97244 9.80914 4.2509C9.95714 4.42708 10.0341 4.63738 10.0282 4.88744C10.0223 5.28525 9.83278 5.60349 9.47759 5.83081Z" fill="#FBBFCE"/>
<path d="M8.08075 6.65503H8.46555C8.58395 6.65503 8.67273 6.56408 8.67273 6.4561V6.11513C8.98056 6.06967 9.24695 5.97875 9.47782 5.83667C9.83893 5.60935 10.0225 5.29676 10.0284 4.89327C10.0343 4.64321 9.96328 4.43294 9.80937 4.25677C9.56665 3.9783 9.18776 3.80214 8.67273 3.73394V3.04062C8.76153 3.08041 8.85036 3.13722 8.93324 3.20542C8.98652 3.2452 9.04568 3.26793 9.11079 3.26793C9.16407 3.26793 9.24101 3.23383 9.24101 3.23383L9.67322 2.9724C9.73242 2.9383 9.76196 2.89284 9.76196 2.83601C9.76196 2.79054 9.74422 2.75078 9.7087 2.71669C9.44231 2.42117 9.09304 2.2393 8.67273 2.1711V1.77897C8.67273 1.66531 8.57803 1.58008 8.46555 1.58008H8.08075C7.96235 1.58008 7.87357 1.67099 7.87357 1.77897V2.15972C7.67229 2.18814 7.49468 2.23361 7.33484 2.30749C6.81982 2.53481 6.56531 2.87013 6.57123 3.31909C6.57715 3.54073 6.64818 3.73393 6.77841 3.90442C7.00337 4.19426 7.37038 4.37613 7.87357 4.45001V5.31949C7.65453 5.24562 7.44732 5.10923 7.25788 4.90464C7.21644 4.8535 7.15729 4.82507 7.08626 4.82507C7.05074 4.82507 6.97374 4.85917 6.97374 4.85917L6.58301 5.08082C6.51789 5.1206 6.48242 5.16607 6.48242 5.22858C6.48242 5.26836 6.50016 5.30246 6.52975 5.33656C6.63039 5.47295 6.76659 5.60367 6.93826 5.72869C7.21649 5.93328 7.53022 6.0583 7.87357 6.11513V6.4561C7.86765 6.56408 7.96235 6.65503 8.08075 6.65503ZM8.67273 4.54092C8.87993 4.60343 8.9865 4.71709 8.9865 4.89327C8.9865 5.05239 8.90954 5.17743 8.76154 5.26268C8.73194 5.27973 8.70826 5.2911 8.67866 5.30815V4.54092H8.67273ZM7.61898 3.31909C7.61898 3.19406 7.69002 3.09744 7.84394 3.02925L7.87357 3.01787V3.63165C7.70189 3.56913 7.61898 3.46685 7.61898 3.31909Z" fill="white"/>
<path d="M7.61897 3.3188C7.61897 3.46656 7.70188 3.56884 7.87355 3.63136V3.01758L7.84393 3.02896C7.69001 3.09715 7.61305 3.19377 7.61897 3.3188Z" fill="#FBBFCE"/>
<path d="M8.67243 5.30214C8.70203 5.29078 8.73164 5.27372 8.75532 5.25667C8.90331 5.17142 8.98027 5.04642 8.98027 4.88729C8.98027 4.7168 8.87962 4.60311 8.6665 4.53491V5.30214H8.67243Z" fill="#FBBFCE"/>
<path d="M20.5596 11.2865L20.5655 11.2695C19.0796 11.2695 18.168 10.4 17.0788 9.6669C16.2855 9.13269 15.3916 8.67236 14.1129 8.67236C13.5387 8.67236 13.0474 8.67806 12.633 8.68943H9.60788C9.16389 8.68943 8.80872 9.03608 8.80872 9.45663C8.80872 9.87717 9.16981 10.2238 9.60788 10.2238H11.3187H12.4435C13.0177 10.3148 13.4558 10.7921 13.4558 11.3661C13.4558 11.8037 13.2013 12.1788 12.8342 12.372C12.7454 12.3948 12.3133 12.5084 11.7332 12.6505C11.3602 12.7357 11.005 12.8267 10.6735 12.9176L10.6024 12.9346C9.35336 13.2529 8.01546 13.5882 7.77275 13.645C7.61291 13.6507 7.46492 13.645 7.33468 13.6166L2.86525 10.8376L2.05424 10.275C2.0128 10.2523 1.97131 10.2295 1.92987 10.2068C1.87067 10.1784 1.81151 10.15 1.74639 10.1329C1.69312 10.1159 1.63983 10.1045 1.58655 10.0988C1.52735 10.0931 1.46812 10.0874 1.40892 10.0874C1.33197 10.0874 1.24908 10.0931 1.17804 10.1102C0.51502 10.167 0 10.6898 0 11.3377C0 11.6787 0.14801 11.9856 0.384804 12.2129L0.390729 12.2186C0.485447 12.3038 0.592027 12.3834 0.710424 12.4402L1.01827 12.6562L8.02141 17.5322C8.05101 17.5436 8.08062 17.555 8.11022 17.5663C8.27005 17.6175 8.43579 17.6516 8.60746 17.6516C8.7081 17.6516 8.80874 17.6402 8.90938 17.6232L8.94486 17.6118C11.3187 17.0321 16.2204 15.833 18.5173 15.2931C18.5765 15.2704 18.6298 15.2533 18.683 15.2363C19.2691 15.0942 20.0682 14.9294 20.5655 14.9294V14.6055H20.5714L20.5655 14.1622V11.3832V11.2865H20.5596Z" fill="#F1416C"/>
</svg>
