<svg width="21" height="15" viewBox="0 0 21 15" fill="none" xmlns="http://www.w3.org/2000/svg">
<path d="M10.9706 9.96425H10.7403H9.68701C9.71004 12.2629 11.6555 14.125 14.05 14.125C16.4559 14.125 18.4186 12.2463 18.4186 9.9311C18.4186 9.24592 18.246 8.59943 17.9409 8.03029L17.5552 7.76507L14.3205 5.75374C14.2284 5.74821 14.142 5.74268 14.05 5.74268C12.4268 5.74268 11.0051 6.59917 10.2568 7.87006H10.9763C11.1432 7.87006 11.2986 7.9087 11.4425 7.97501C11.8109 8.14631 12.0699 8.50548 12.0699 8.9199C12.0642 9.48904 11.5749 9.96425 10.9706 9.96425ZM12.4729 10.8097L12.8643 10.5887C12.8643 10.5887 12.9391 10.5555 12.9794 10.5555C13.0484 10.5555 13.106 10.5831 13.152 10.6329C13.3477 10.8373 13.5492 10.9699 13.7679 11.0473V10.1798C13.2614 10.1079 12.8988 9.92555 12.6743 9.6327C12.5419 9.4614 12.4729 9.26801 12.4671 9.04698C12.4613 8.59941 12.7146 8.25684 13.2269 8.03582C13.388 7.96399 13.5665 7.91978 13.7679 7.89215V7.51088C13.7679 7.40037 13.86 7.30643 13.9751 7.30643H14.3608C14.4759 7.30643 14.568 7.40037 14.568 7.51088V7.90321C14.9939 7.97504 15.3393 8.15738 15.604 8.45024C15.6443 8.48339 15.6616 8.52205 15.6616 8.56626C15.6616 8.62151 15.6328 8.66572 15.5695 8.7044L15.1378 8.96412C15.1378 8.96412 15.063 9.0028 15.0054 9.0028C14.9363 9.0028 14.8788 8.98067 14.827 8.94199C14.7406 8.87016 14.6543 8.81491 14.5622 8.77623V9.47247C15.0803 9.5443 15.4544 9.71559 15.7019 9.99187C15.8515 10.1687 15.9264 10.3787 15.9206 10.6273C15.9148 11.0252 15.7306 11.3401 15.368 11.5667C15.1378 11.7103 14.873 11.8043 14.5622 11.8485V12.1911C14.5622 12.3016 14.4701 12.39 14.355 12.39H13.9694C13.8542 12.39 13.7622 12.3016 13.7622 12.1911V11.8485C13.4111 11.7932 13.1002 11.6662 12.824 11.4617C12.6513 11.3346 12.5131 11.2075 12.4153 11.0694C12.3865 11.0362 12.3693 11.0031 12.3693 10.9644C12.3693 10.8981 12.4038 10.8483 12.4729 10.8097Z" fill="#A6DDFD"/>
<path d="M13.9752 12.3844H14.3609C14.476 12.3844 14.5681 12.296 14.5681 12.1854V11.8428C14.8789 11.7986 15.1437 11.7047 15.3739 11.561C15.7308 11.3345 15.915 11.0195 15.9265 10.6217C15.9322 10.373 15.8574 10.1575 15.7078 9.98622C15.466 9.70994 15.0861 9.53312 14.5681 9.46681V8.77058C14.6602 8.80926 14.7465 8.86454 14.8329 8.93638C14.8847 8.98058 14.9422 8.99715 15.0113 8.99715C15.0688 8.99715 15.1437 8.95847 15.1437 8.95847L15.5753 8.69878C15.6329 8.66562 15.6617 8.61589 15.6675 8.56064C15.6675 8.51643 15.6502 8.47774 15.6099 8.44459C15.3394 8.15173 14.994 7.96939 14.5738 7.89756V7.50523C14.5738 7.39471 14.4818 7.30078 14.3666 7.30078H13.981C13.8659 7.30078 13.7738 7.39471 13.7738 7.50523V7.88649C13.5723 7.91412 13.3939 7.96386 13.2327 8.03017C12.7147 8.25672 12.4615 8.59379 12.473 9.04136C12.4787 9.26239 12.5478 9.45578 12.6802 9.62708C12.9047 9.91993 13.2673 10.0967 13.7738 10.1741V11.0416C13.5551 10.9698 13.3479 10.8317 13.1579 10.6272C13.1176 10.572 13.06 10.5498 12.9852 10.5498C12.9449 10.5498 12.8701 10.583 12.8701 10.583L12.4787 10.804C12.4097 10.8427 12.3809 10.8924 12.3809 10.9532C12.3809 10.9919 12.3981 11.0306 12.4269 11.0582C12.5305 11.1963 12.6687 11.329 12.8356 11.4505C13.1119 11.655 13.4227 11.7821 13.7738 11.8373V12.1799C13.768 12.2959 13.8601 12.3844 13.9752 12.3844ZM14.5681 10.2736C14.7753 10.3343 14.8789 10.4504 14.8789 10.6217C14.8789 10.7819 14.8041 10.9035 14.6544 10.9919C14.6256 11.0085 14.5969 11.0195 14.5681 11.0361V10.2736ZM13.5148 9.05239C13.5148 8.9253 13.5896 8.83138 13.7392 8.75955L13.768 8.74849V9.36736C13.6011 9.30657 13.5148 9.20158 13.5148 9.05239Z" fill="white"/>
<path d="M13.5146 9.05244C13.5146 9.20163 13.601 9.30662 13.7679 9.3674V8.74854L13.7391 8.7596C13.5837 8.83143 13.5146 8.93087 13.5146 9.05244Z" fill="#A6DDFD"/>
<path d="M14.5684 11.0362C14.5971 11.0252 14.6259 11.0086 14.6547 10.992C14.8044 10.9036 14.8792 10.782 14.8792 10.6218C14.8792 10.4505 14.7756 10.3345 14.5684 10.2737V11.0362Z" fill="#A6DDFD"/>
<path d="M7.74738 5.99684C7.83948 5.97474 8.27116 5.86422 8.8525 5.71503C9.22663 5.62662 9.57775 5.53822 9.91159 5.44428L9.98066 5.42769C11.2239 5.11273 12.5708 4.77015 12.8125 4.71489C12.8528 4.71489 12.8931 4.70936 12.9334 4.70936C13.0485 4.70936 13.1521 4.72041 13.25 4.74252L17.7165 7.52192L18.5281 8.08551C18.5684 8.11313 18.6087 8.12971 18.649 8.15181C18.7065 8.17944 18.7698 8.20707 18.8332 8.22365C18.885 8.24022 18.9368 8.24575 18.9886 8.2568C19.0461 8.26232 19.1037 8.27339 19.1612 8.27339C19.2418 8.27339 19.3166 8.26784 19.3915 8.25127C20.0534 8.19601 20.5714 7.67109 20.5714 7.0246C20.5714 6.68201 20.4218 6.37809 20.1858 6.15154L20.18 6.14601C20.0879 6.0576 19.9786 5.98579 19.8634 5.92501L19.5526 5.7095L12.5478 0.835903C12.519 0.824852 12.4902 0.813802 12.4614 0.80275C12.306 0.75302 12.1391 0.714355 11.9607 0.714355C11.8571 0.714355 11.7592 0.7254 11.6614 0.741977L11.6268 0.753039C9.25541 1.33323 4.35143 2.52673 2.05484 3.07377C1.99728 3.09587 1.94549 3.11247 1.88793 3.13458C1.30084 3.27824 0.50652 3.44401 0.00576147 3.44401V3.76447H0L0.00576147 4.20655V6.98591V7.08537L0 7.10196C1.48501 7.10196 2.39443 7.96947 3.48804 8.70437C4.28235 9.23483 5.16876 9.69348 6.45232 9.69348C7.0279 9.69348 7.51715 9.68794 7.93157 9.67689H10.9534C11.3966 9.67689 11.7535 9.33429 11.7535 8.90882C11.7535 8.48334 11.3966 8.14078 10.9534 8.14078H9.24389H8.12153C7.5517 8.05237 7.11425 7.57717 7.11425 7.00251C7.12577 6.56598 7.37901 6.19024 7.74738 5.99684Z" fill="#202f4b"/>
</svg>
