<svg width="24" height="22" viewBox="0 0 24 22" fill="none" xmlns="http://www.w3.org/2000/svg">
<path d="M6.02612 14.9543L6.06597 14.9849L9.38979 11.8399C9.15864 11.5492 8.95937 11.2507 8.79198 10.937L5.30078 14.2427L6.02612 14.9543Z" fill="#FFE793"/>
<path d="M9.93956 14.5717L10.3939 15.0156L11.7569 13.7224C11.4221 13.5617 11.1033 13.3781 10.7924 13.1638L9.27002 14.6024C9.50117 14.6024 9.72435 14.5947 9.93956 14.5717Z" fill="#FFE793"/>
<path d="M12.5277 17.1202L13.9297 15.7932L13.163 15.0467L11.761 16.3737L12.5277 17.1202Z" fill="#FFE793"/>
<path d="M14.7218 15.0463L15.4551 14.3499C14.9768 14.3959 14.4906 14.3958 14.0044 14.3423L14.7218 15.0463Z" fill="#FFE793"/>
<path d="M10.3471 19.1853L11.7495 17.8586L10.983 17.1119L9.58068 18.4385L10.3471 19.1853Z" fill="#FFE793"/>
<path d="M8.20057 17.0916L9.60254 15.7646L8.84145 15.0236L7.43948 16.3506L8.20057 17.0916Z" fill="#FFE793"/>
<path d="M21.3537 14.6255L19.6958 13.011L18.293 14.3424L19.9349 15.9417L19.9668 15.9723L19.9987 16.0029C20.19 16.1712 20.4291 16.2554 20.6683 16.2554C20.9233 16.2554 21.1704 16.1636 21.3617 15.9799C21.553 15.7963 21.6487 15.5591 21.6566 15.3219C21.6566 15.0847 21.569 14.8475 21.3856 14.6562L21.3697 14.6409L21.3537 14.6255Z" fill="#FFE793"/>
<path d="M13.7896 19.8134L13.1519 19.1936L11.749 20.525L12.3229 21.0836L12.3867 21.1525L12.4584 21.2137C12.841 21.5274 13.4229 21.5045 13.7896 21.1602C14.1721 20.7929 14.1801 20.196 13.8055 19.8287L13.7896 19.8134Z" fill="#FFE793"/>
<path d="M2.94122 11.9473C3.0289 12.0468 3.11657 12.1462 3.22019 12.2381C3.29193 12.3069 3.36367 12.3758 3.44337 12.437C3.46729 12.46 3.4912 12.483 3.52309 12.5059L3.92162 12.8885L8.11425 8.92476L10.6968 6.48379L11.8047 5.43548L11.8446 5.39723C11.8685 5.37427 11.8844 5.33602 11.9004 5.31307C11.9402 5.28246 11.9801 5.25952 12.012 5.23656L12.0837 5.20593C12.1076 5.16002 12.1315 5.12178 12.1714 5.08352C12.3388 4.92283 12.6177 4.92283 12.7931 5.08352L12.8011 5.09118L15.9256 8.15956L16.5553 8.77176C16.7306 8.96306 16.9777 9.07781 17.2647 9.08547C17.7987 9.09312 18.2292 8.67991 18.2371 8.17488C18.2451 7.91472 18.1335 7.67751 17.9502 7.50917L17.9263 7.48624L14.0126 3.64495L14.0046 3.63729C13.3351 2.98687 12.5619 2.50478 11.733 2.1834C10.9837 1.89263 10.1946 1.7396 9.40551 1.71664C9.12654 1.70899 8.84756 1.71667 8.56858 1.74728C8.32149 1.77024 8.07439 1.80847 7.8273 1.86203C7.34108 1.84673 6.86284 1.65544 6.49618 1.30346L5.6194 0.454102L0 5.77216L0.797077 6.54502L1.29127 7.02709C1.52242 7.35613 1.64198 7.73872 1.63401 8.12131L1.62604 8.21313C1.6101 8.54217 1.62604 8.87122 1.67387 9.19261C1.80937 10.1338 2.19196 11.0444 2.84557 11.8249L2.8376 11.8325L2.94122 11.9473Z" fill="#FFE793"/>
<path d="M15.3277 17.1274L13.9248 18.4589L15.5907 20.0811L15.6226 20.1117L15.6545 20.1423C15.8378 20.303 16.061 20.3872 16.2921 20.3948C16.5472 20.4025 16.8102 20.3106 17.0175 20.1193C17.2167 19.928 17.3124 19.6832 17.3124 19.4307C17.3124 19.1935 17.2167 18.9639 17.0254 18.7802L16.9935 18.7496L15.3277 17.1274Z" fill="#FFE793"/>
<path d="M19.6321 17.1352L17.5039 15.0615L16.1011 16.393L18.2372 18.4666L18.2611 18.4896C18.6437 18.8645 19.2734 18.8645 19.656 18.4972C20.0466 18.1299 20.0466 17.5254 19.664 17.1581L19.6321 17.1352Z" fill="#FFE793"/>
<path d="M23.1949 6.44545L23.9999 5.68025L18.4602 0.285645L17.5755 1.12734C17.2009 1.47933 16.7226 1.65534 16.2364 1.67064C15.9893 1.61708 15.7422 1.57884 15.4951 1.54823C15.2161 1.51763 14.9372 1.50228 14.6582 1.50994C13.6539 1.51759 12.6495 1.75482 11.7249 2.19863C12.5539 2.52001 13.3271 3.0021 13.9966 3.65252L14.0046 3.66018L17.9182 7.50142L17.9421 7.5244C18.1175 7.69274 18.2291 7.92995 18.2291 8.19011C18.2211 8.70279 17.7907 9.10835 17.2567 9.10069C16.9777 9.10069 16.7226 8.97824 16.5473 8.78694L15.9176 8.17479L12.793 5.10636L12.7851 5.0987C12.6097 4.93801 12.3387 4.93801 12.1633 5.0987C12.1235 5.13696 12.0996 5.17524 12.0757 5.22116L12.0039 5.25175C11.9641 5.2747 11.9242 5.30534 11.8923 5.32829C11.8764 5.3589 11.8604 5.3895 11.8365 5.41245L11.7967 5.4507L10.6887 6.49902L8.10621 8.93999L3.91358 12.9037L2.50276 14.2351L2.48682 14.2504L2.47088 14.2658C2.28755 14.4494 2.19189 14.6866 2.19189 14.9238C2.19189 15.161 2.28754 15.4059 2.47884 15.5895C2.67014 15.7732 2.91724 15.865 3.16433 15.8726C3.40345 15.8726 3.64258 15.7961 3.83388 15.6278L3.86576 15.5972L3.89765 15.5666L5.29253 14.2504L8.78373 10.9448C8.95111 11.2585 9.15038 11.5569 9.38153 11.8477L6.05772 14.9927L4.16865 16.7756L4.13676 16.8062C3.7462 17.1735 3.7462 17.778 4.12879 18.1453C4.51139 18.5202 5.14108 18.5202 5.52368 18.1529L5.54759 18.13L7.43666 16.3394L8.83952 15.008L9.26197 14.6024L10.7844 13.1639C11.0953 13.3781 11.4141 13.5618 11.7488 13.7224L10.3859 15.0156L9.61269 15.7502L8.20983 17.0817L6.79103 18.4208L6.75915 18.4513C6.56785 18.6273 6.4722 18.8646 6.46423 19.0941C6.45626 19.3466 6.55191 19.5991 6.74321 19.7904C6.94248 19.9817 7.20551 20.0735 7.46057 20.0735C7.69173 20.0735 7.91491 19.9894 8.09824 19.8363L8.13012 19.8058L8.16201 19.7752L9.5808 18.4361L10.9837 17.1046L11.7568 16.37L13.1597 15.0386L13.893 14.3423C13.9249 14.3423 13.9488 14.3423 13.9807 14.3499C14.4589 14.4035 14.9531 14.4035 15.4314 14.3576L14.698 15.0539L13.9249 15.7885L12.522 17.1199L11.7488 17.8545L10.346 19.1859L9.97137 19.538L9.9634 19.5456L9.95543 19.5532C9.57283 19.9205 9.57283 20.5174 9.95543 20.8847C10.3141 21.2366 10.888 21.2596 11.2865 20.9535L11.3583 20.8923L11.4221 20.8235L11.7329 20.525L13.1358 19.1936L13.9089 18.459L15.3118 17.1276L16.0849 16.393L17.4878 15.0615L17.7987 14.7708H17.8066L18.2689 14.3269L19.6718 12.9955L20.3413 12.3604C20.445 12.2763 20.5486 12.1844 20.6442 12.0926C20.7399 12.0008 20.8355 11.9013 20.9232 11.8018L21.0428 11.6871L21.0348 11.6794C21.6964 10.9065 22.0949 10.0036 22.2464 9.07006C22.2942 8.74868 22.3181 8.41967 22.3101 8.09063L22.3022 7.99881C22.3022 7.61622 22.4217 7.23362 22.6608 6.90459L23.1949 6.44545Z" fill="#FFC700"/>
</svg>
