<svg width="50" height="50" viewBox="0 0 50 50" fill="none" xmlns="http://www.w3.org/2000/svg">
<rect x="8.3335" y="8.33325" width="14.5833" height="14.5833" rx="1.5" fill="white"/>
<path opacity="0.3" fill-rule="evenodd" clip-rule="evenodd" d="M27.0835 9.83325C27.0835 9.00482 27.7551 8.33325 28.5835 8.33325H40.1668C40.9953 8.33325 41.6668 9.00482 41.6668 9.83325V21.4166C41.6668 22.245 40.9953 22.9166 40.1668 22.9166H28.5835C27.7551 22.9166 27.0835 22.245 27.0835 21.4166V9.83325ZM8.3335 28.5832C8.3335 27.7548 9.00507 27.0833 9.8335 27.0833H21.4168C22.2453 27.0833 22.9168 27.7548 22.9168 28.5833V40.1666C22.9168 40.995 22.2453 41.6666 21.4168 41.6666H9.83349C9.00507 41.6666 8.3335 40.995 8.3335 40.1666V28.5832ZM28.5835 27.0833C27.7551 27.0833 27.0835 27.7548 27.0835 28.5832V40.1666C27.0835 40.995 27.7551 41.6666 28.5835 41.6666H40.1668C40.9953 41.6666 41.6668 40.995 41.6668 40.1666V28.5833C41.6668 27.7548 40.9953 27.0833 40.1668 27.0833H28.5835Z" fill="white"/>
</svg>
