<svg width="21" height="17" viewBox="0 0 21 17" fill="none" xmlns="http://www.w3.org/2000/svg">
<path d="M18.5144 0.857178H2.05702C0.920907 0.857178 0 1.77808 0 2.9142V13.1997C0 14.3359 0.921083 15.2569 2.0572 15.2569H4.34256L6.39975 13.1997L2.05702 13.1999V8.05692H4.26921L6.64908 5.67705L9.02895 8.05692H11.5423L13.9222 5.67705L16.302 8.05692H18.5142V13.1999H14.1719L16.229 15.2571L18.5142 15.2569C19.6503 15.2569 20.5714 14.3359 20.5714 13.1997L20.5713 2.9142C20.5713 1.77808 19.6503 0.857178 18.5142 0.857178H18.5144ZM18.5144 4.97139H2.05702V2.9142H18.514L18.5144 4.97139Z" fill="#FF7F9E"/>
<path d="M13.9293 6.5437L15.3838 7.99821L11.7472 11.6348L15.3838 15.2713L13.9293 16.726L10.2927 13.0895L6.65617 16.726L5.20166 15.2713L8.83821 11.6348L5.20166 7.99821L6.65617 6.5437L10.2927 10.1802L13.9293 6.5437Z" fill="#F1416C"/>
</svg>
