<svg width="24" height="21" viewBox="0 0 24 21" fill="none" xmlns="http://www.w3.org/2000/svg">
<path d="M9.51056 0C6.69962 0 4.41357 2.1946 4.41357 4.8931C4.41357 7.5916 6.69962 9.78621 9.51056 9.78621C12.3215 9.78621 14.6075 7.5916 14.6075 4.8931C14.6075 2.1946 12.3215 0 9.51056 0ZM11.0576 6.80261C10.7952 6.96836 10.4775 7.08107 10.1183 7.12748V7.52532C10.1183 7.65792 10.0078 7.75736 9.87662 7.75736H9.42768C9.28955 7.75736 9.18597 7.65129 9.18597 7.52532V7.12748C8.77849 7.06781 8.41248 6.91532 8.09478 6.67663C7.89449 6.53077 7.7356 6.37827 7.61819 6.21915C7.58366 6.17936 7.56297 6.13958 7.56297 6.09317C7.56297 6.02024 7.59745 5.96719 7.68032 5.92078L8.13617 5.66223C8.13617 5.66223 8.226 5.62241 8.26744 5.62241C8.35032 5.62241 8.41933 5.65557 8.46767 5.71524C8.69559 5.95393 8.93734 6.11308 9.18597 6.19928V5.18483C8.59892 5.09864 8.17074 4.88646 7.90829 4.54832C7.74944 4.34941 7.67349 4.12401 7.66658 3.86543C7.65967 3.34164 7.9566 2.94381 8.55746 2.68523C8.74393 2.60567 8.95115 2.54603 9.18597 2.51288V2.06862C9.18597 1.93602 9.29646 1.83658 9.42768 1.83658H9.87662C10.0147 1.83658 10.1183 1.94265 10.1183 2.06862V2.52611C10.6156 2.6123 11.0162 2.82449 11.327 3.16263C11.3684 3.20241 11.396 3.24879 11.3891 3.30183C11.3891 3.36814 11.3546 3.42121 11.2856 3.46099L10.7813 3.76596C10.7813 3.76596 10.6916 3.81237 10.6294 3.80574C10.5465 3.80574 10.4775 3.77923 10.4223 3.73282C10.3256 3.65325 10.2219 3.58696 10.1183 3.54055V4.34942C10.7192 4.42898 11.1612 4.63451 11.4444 4.95939C11.6171 5.16493 11.7068 5.41028 11.6999 5.70201C11.693 6.16613 11.472 6.5374 11.0576 6.80261Z" fill="#63FAA8"/>
<path d="M9.42721 7.76428H9.87615C10.0143 7.76428 10.1179 7.65818 10.1179 7.5322V7.13441C10.477 7.08136 10.7878 6.97529 11.0571 6.80953C11.4784 6.54432 11.6926 6.17964 11.6995 5.70889C11.7064 5.41716 11.6235 5.17185 11.4439 4.96631C11.1608 4.64143 10.7187 4.43591 10.1179 4.35634V3.54748C10.2215 3.59389 10.3251 3.66018 10.4218 3.73974C10.4839 3.78615 10.553 3.81266 10.6289 3.81266C10.6911 3.81266 10.7809 3.77288 10.7809 3.77288L11.2851 3.46788C11.3542 3.42809 11.3886 3.37506 11.3886 3.30876C11.3886 3.25572 11.3679 3.20933 11.3265 3.16955C11.0157 2.82478 10.6082 2.6126 10.1179 2.53303V2.07555C10.1179 1.94294 10.0074 1.84351 9.87615 1.84351H9.42721C9.28908 1.84351 9.1855 1.94957 9.1855 2.07555V2.51976C8.95068 2.55291 8.74347 2.60596 8.55699 2.69215C7.95613 2.95736 7.65921 3.34856 7.66611 3.87235C7.67302 4.13093 7.75588 4.35633 7.90782 4.55524C8.17027 4.89338 8.59845 5.10556 9.1855 5.19176V6.20616C8.92996 6.11997 8.68821 5.96085 8.4672 5.72217C8.41886 5.66249 8.34985 5.62933 8.26697 5.62933C8.22553 5.62933 8.13571 5.66911 8.13571 5.66911L7.67986 5.9277C7.60388 5.97411 7.5625 6.02716 7.5625 6.10009C7.5625 6.1465 7.58319 6.18629 7.61772 6.22607C7.73513 6.38519 7.89402 6.53769 8.09431 6.68356C8.41892 6.92224 8.78493 7.0681 9.1855 7.13441V7.5322C9.1786 7.65818 9.28908 7.76428 9.42721 7.76428ZM10.1179 5.29782C10.3596 5.37075 10.4839 5.50336 10.4839 5.70889C10.4839 5.89454 10.3941 6.04042 10.2215 6.13987C10.1869 6.15976 10.1593 6.17304 10.1248 6.19293V5.29782H10.1179ZM8.88849 3.87235C8.88849 3.72649 8.97137 3.61377 9.15094 3.5342L9.1855 3.52093V4.237C8.98522 4.16407 8.88849 4.04474 8.88849 3.87235Z" fill="white"/>
<path d="M8.88855 3.87193C8.88855 4.04431 8.98528 4.16365 9.18557 4.23658V3.52051L9.151 3.53378C8.97143 3.61334 8.88165 3.72606 8.88855 3.87193Z" fill="#63FAA8"/>
<path d="M10.1178 6.18587C10.1523 6.17261 10.1868 6.15271 10.2145 6.13282C10.3871 6.03337 10.4769 5.88753 10.4769 5.70188C10.4769 5.50298 10.3595 5.37033 10.1108 5.29077V6.18587H10.1178Z" fill="#63FAA8"/>
<path d="M23.9862 13.1678L23.9931 13.1479C22.2596 13.1479 21.196 12.1335 19.9252 11.2782C18.9998 10.655 17.9569 10.1179 16.4651 10.1179C15.7952 10.1179 15.2219 10.1246 14.7385 10.1378H11.2092C10.6912 10.1378 10.2768 10.5423 10.2768 11.0329C10.2768 11.5235 10.6981 11.928 11.2092 11.928H13.2052H14.5174C15.1874 12.034 15.6984 12.591 15.6984 13.2606C15.6984 13.7712 15.4015 14.2088 14.9733 14.4342C14.8697 14.4607 14.3655 14.5933 13.6887 14.7591C13.2536 14.8585 12.8392 14.9646 12.4524 15.0707L12.3695 15.0906C10.9123 15.4619 9.35137 15.8531 9.0682 15.9194C8.88173 15.926 8.70907 15.9194 8.55713 15.8862L3.34279 12.644L2.39661 11.9876C2.34827 11.9611 2.29986 11.9346 2.25152 11.9081C2.18245 11.8749 2.11343 11.8418 2.03746 11.8219C1.9753 11.802 1.91313 11.7887 1.85097 11.7821C1.78191 11.7755 1.71281 11.7688 1.64374 11.7688C1.55396 11.7688 1.45726 11.7755 1.37438 11.7954C0.600857 11.8617 0 12.4716 0 13.2275C0 13.6253 0.172679 13.9833 0.448938 14.2485L0.455851 14.2552C0.566355 14.3546 0.690698 14.4475 0.828828 14.5138L1.18798 14.7657L9.35831 20.4544C9.39284 20.4677 9.42739 20.481 9.46192 20.4942C9.6484 20.5539 9.84175 20.5937 10.042 20.5937C10.1595 20.5937 10.2769 20.5804 10.3943 20.5605L10.4357 20.5472C13.2052 19.871 18.9238 18.472 21.6035 17.8421C21.6725 17.8156 21.7347 17.7957 21.7969 17.7758C22.4806 17.6101 23.4129 17.4178 23.9931 17.4178V17.0399H24L23.9931 16.5227V13.2805V13.1678H23.9862Z" fill="#47BB7C"/>
</svg>
